<?xml version="1.0" encoding="utf-8" standalone="no"?>
<!DOCTYPE svg PUBLIC "-//W3C//DTD SVG 1.1//EN"
  "http://www.w3.org/Graphics/SVG/1.1/DTD/svg11.dtd">
<svg xmlns:xlink="http://www.w3.org/1999/xlink" width="491.04pt" height="221.04pt" viewBox="0 0 491.04 221.04" xmlns="http://www.w3.org/2000/svg" version="1.1">
 <metadata>
  <rdf:RDF xmlns:dc="http://purl.org/dc/elements/1.1/" xmlns:cc="http://creativecommons.org/ns#" xmlns:rdf="http://www.w3.org/1999/02/22-rdf-syntax-ns#">
   <cc:Work>
    <dc:type rdf:resource="http://purl.org/dc/dcmitype/StillImage"/>
    <dc:format>image/svg+xml</dc:format>
    <dc:creator>
     <cc:Agent>
      <dc:title>Matplotlib v3.11.2, https://matplotlib.org/</dc:title>
     </cc:Agent>
    </dc:creator>
   </cc:Work>
  </rdf:RDF>
 </metadata>
 <defs>
  <style type="text/css">*{stroke-linejoin: round; stroke-linecap: butt}</style>
 </defs>
 <g id="figure_1">
  <g id="patch_1">
   <path d="M 0 221.04 
L 491.04 221.04 
L 491.04 -0 
L 0 -0 
z
" style="fill: #ffffff"/>
  </g>
  <g id="axes_1">
   <g id="patch_2">
    <path d="M 165.4416 38.232 
Q 252.756 38.232 338.281546 38.232 
" clip-path="url(#pcc19663674)" style="fill: none; stroke: #2a78d6; stroke-width: 1.6; stroke-linecap: round"/>
    <path d="M 334.281546 36.232 
L 338.281546 38.232 
L 334.281546 40.232 
z
" clip-path="url(#pcc19663674)" style="fill: #2a78d6; stroke: #2a78d6; stroke-width: 1.6; stroke-linecap: round"/>
   </g>
   <g id="patch_3">
    <path d="M 86.328 117.3456 
Q 86.328 141.7068 86.328 164.614556 
" clip-path="url(#pcc19663674)" style="fill: none; stroke: #7a7974; stroke-width: 1.3; stroke-linecap: round"/>
    <path d="M 88.328 160.614556 
L 86.328 164.614556 
L 84.328 160.614556 
z
" clip-path="url(#pcc19663674)" style="fill: #7a7974; stroke: #7a7974; stroke-width: 1.3; stroke-linecap: round"/>
   </g>
   <g id="patch_4">
    <path d="M 86.328 166.068 
Q 136.0152 166.068 184.248956 166.068 
" clip-path="url(#pcc19663674)" style="fill: none; stroke: #7a7974; stroke-width: 1.3; stroke-linecap: round"/>
    <path d="M 180.248956 164.068 
L 184.248956 166.068 
L 180.248956 168.068 
z
" clip-path="url(#pcc19663674)" style="fill: #7a7974; stroke: #7a7974; stroke-width: 1.3; stroke-linecap: round"/>
   </g>
   <g id="patch_5">
    <path d="M 319.8096 149.184 
Q 329.94 132.3 339.207564 116.854059 
" clip-path="url(#pcc19663674)" style="fill: none; stroke: #eb6834; stroke-width: 1.5; stroke-linecap: round"/>
    <path d="M 335.434596 119.25504 
L 339.207564 116.854059 
L 338.864567 121.313023 
z
" clip-path="url(#pcc19663674)" style="fill: #eb6834; stroke: #eb6834; stroke-width: 1.5; stroke-linecap: round"/>
   </g>
   <g id="patch_6">
    <path d="M 319.8096 182.952 
Q 329.94 182.952 338.393349 182.952 
" clip-path="url(#pcc19663674)" style="fill: none; stroke: #e34948; stroke-width: 1.5; stroke-linecap: round"/>
    <path d="M 334.393349 180.952 
L 338.393349 182.952 
L 334.393349 184.952 
z
" clip-path="url(#pcc19663674)" style="fill: #e34948; stroke: #e34948; stroke-width: 1.5; stroke-linecap: round"/>
   </g>
   <g id="patch_7">
    <path d="M 16.8624 115.416 
L 155.7936 115.416 
Q 163.512 115.416 163.512 107.6976 
L 163.512 21.8304 
Q 163.512 14.112 155.7936 14.112 
L 16.8624 14.112 
Q 9.144 14.112 9.144 21.8304 
L 9.144 107.6976 
Q 9.144 115.416 16.8624 115.416 
z
" clip-path="url(#pcc19663674)" style="fill: #ffffff; stroke: #52514e; stroke-width: 1.2; stroke-linejoin: miter"/>
   </g>
   <g id="patch_8">
    <path d="M 195.3504 207.072 
L 310.1616 207.072 
Q 317.88 207.072 317.88 199.3536 
L 317.88 132.7824 
Q 317.88 125.064 310.1616 125.064 
L 195.3504 125.064 
Q 187.632 125.064 187.632 132.7824 
L 187.632 199.3536 
Q 187.632 207.072 195.3504 207.072 
z
" clip-path="url(#pcc19663674)" style="fill: #ffffff; stroke: #52514e; stroke-width: 1.2; stroke-linejoin: miter"/>
   </g>
   <g id="patch_9">
    <path d="M 349.7184 69.588 
L 474.1776 69.588 
Q 481.896 69.588 481.896 61.8696 
L 481.896 13.6296 
Q 481.896 5.9112 474.1776 5.9112 
L 349.7184 5.9112 
Q 342 5.9112 342 13.6296 
L 342 61.8696 
Q 342 69.588 349.7184 69.588 
z
" clip-path="url(#pcc19663674)" style="fill: #eef5fd; stroke: #2a78d6; stroke-width: 1.6; stroke-linejoin: miter"/>
   </g>
   <g id="patch_10">
    <path d="M 349.7184 141.948 
L 474.1776 141.948 
Q 481.896 141.948 481.896 134.2296 
L 481.896 85.9896 
Q 481.896 78.2712 474.1776 78.2712 
L 349.7184 78.2712 
Q 342 78.2712 342 85.9896 
L 342 134.2296 
Q 342 141.948 349.7184 141.948 
z
" clip-path="url(#pcc19663674)" style="fill: #fdf1ea; stroke: #eb6834; stroke-width: 1.6; stroke-linejoin: miter"/>
   </g>
   <g id="patch_11">
    <path d="M 349.7184 214.308 
L 474.1776 214.308 
Q 481.896 214.308 481.896 206.5896 
L 481.896 158.3496 
Q 481.896 150.6312 474.1776 150.6312 
L 349.7184 150.6312 
Q 342 150.6312 342 158.3496 
L 342 206.5896 
Q 342 214.308 349.7184 214.308 
z
" clip-path="url(#pcc19663674)" style="fill: #fdeeee; stroke: #e34948; stroke-width: 1.6; stroke-linejoin: miter"/>
   </g>
   <g id="text_1">
    <!-- 1. ¿El enunciado muestra que -->
    <g style="fill: #1d1d1b" transform="translate(31.3405 41.786188) scale(0.08 -0.08)">
     <defs>
      <path id="Inter-Regular-53e" d="M 2041 4656 
L 2041 0 
L 1456 0 
L 1456 4106 
L 1425 4106 
L 300 3272 
L 300 3909 
L 1313 4656 
L 2041 4656 
z
" transform="scale(0.015625)"/>
      <path id="Inter-Regular-5de" d="M 922 -41 
Q 747 -41 623 82 
Q 500 206 500 381 
Q 500 556 623 679 
Q 747 803 922 803 
Q 1097 803 1220 679 
Q 1344 556 1344 381 
Q 1344 206 1220 82 
Q 1097 -41 922 -41 
z
" transform="scale(0.015625)"/>
      <path id="Inter-Regular-6f1" transform="scale(0.015625)"/>
      <path id="Inter-Regular-59a" d="M 2075 2091 
L 2075 2056 
Q 2075 1631 1992 1397 
Q 1909 1163 1753 1028 
Q 1597 894 1381 763 
Q 1175 638 1034 445 
Q 894 253 894 -19 
Q 894 -344 1116 -536 
Q 1338 -728 1653 -728 
Q 1931 -728 2164 -553 
Q 2397 -378 2422 9 
L 3016 9 
Q 3000 -381 2814 -657 
Q 2628 -934 2325 -1079 
Q 2022 -1225 1653 -1225 
Q 1250 -1225 950 -1065 
Q 650 -906 484 -629 
Q 319 -353 319 3 
Q 319 381 484 650 
Q 650 919 953 1103 
Q 1156 1228 1278 1340 
Q 1400 1453 1454 1617 
Q 1509 1781 1509 2056 
L 1509 2091 
L 2075 2091 
z
M 1784 3534 
Q 1959 3534 2082 3412 
Q 2206 3291 2206 3116 
Q 2206 2941 2082 2817 
Q 1959 2694 1784 2694 
Q 1613 2694 1489 2817 
Q 1366 2941 1366 3116 
Q 1366 3291 1489 3412 
Q 1613 3534 1784 3534 
z
" transform="scale(0.015625)"/>
      <path id="Inter-Regular-5f" d="M 563 0 
L 563 4656 
L 3400 4656 
L 3400 4131 
L 1156 4131 
L 1156 2613 
L 3247 2613 
L 3247 2088 
L 1156 2088 
L 1156 525 
L 3428 525 
L 3428 0 
L 563 0 
z
" transform="scale(0.015625)"/>
      <path id="Inter-Regular-2e0" d="M 1056 4656 
L 1056 0 
L 494 0 
L 494 4656 
L 1056 4656 
z
" transform="scale(0.015625)"/>
      <path id="Inter-Regular-266" d="M 1963 -75 
Q 1456 -75 1089 150 
Q 722 375 523 778 
Q 325 1181 325 1719 
Q 325 2256 519 2665 
Q 713 3075 1067 3306 
Q 1422 3538 1897 3538 
Q 2175 3538 2445 3445 
Q 2716 3353 2936 3148 
Q 3156 2944 3287 2609 
Q 3419 2275 3419 1791 
L 3419 1556 
L 894 1556 
Q 916 1009 1208 717 
Q 1500 425 1966 425 
Q 2275 425 2498 561 
Q 2722 697 2819 963 
L 3363 813 
Q 3241 416 2870 170 
Q 2500 -75 1963 -75 
z
M 897 2031 
L 2847 2031 
Q 2806 2478 2567 2758 
Q 2328 3038 1897 3038 
Q 1597 3038 1380 2897 
Q 1163 2756 1038 2528 
Q 913 2300 897 2031 
z
" transform="scale(0.015625)"/>
      <path id="Inter-Regular-305" d="M 1056 2094 
L 1056 0 
L 494 0 
L 494 3494 
L 1034 3494 
L 1038 2847 
Q 1206 3219 1479 3378 
Q 1753 3538 2106 3538 
Q 2638 3538 2963 3209 
Q 3288 2881 3288 2219 
L 3288 0 
L 2725 0 
L 2725 2172 
Q 2725 2575 2514 2803 
Q 2303 3031 1938 3031 
Q 1559 3031 1307 2786 
Q 1056 2541 1056 2094 
z
" transform="scale(0.015625)"/>
      <path id="Inter-Regular-393" d="M 1678 -44 
Q 1150 -44 822 284 
Q 494 613 494 1275 
L 494 3494 
L 1056 3494 
L 1056 1322 
Q 1056 919 1268 691 
Q 1481 463 1847 463 
Q 2222 463 2473 708 
Q 2725 953 2725 1400 
L 2725 3494 
L 3291 3494 
L 3291 0 
L 2747 0 
L 2747 653 
Q 2575 272 2298 114 
Q 2022 -44 1678 -44 
z
" transform="scale(0.015625)"/>
      <path id="Inter-Regular-24a" d="M 1916 -75 
Q 1441 -75 1083 150 
Q 725 375 525 781 
Q 325 1188 325 1725 
Q 325 2272 525 2680 
Q 725 3088 1083 3313 
Q 1441 3538 1916 3538 
Q 2422 3538 2805 3283 
Q 3188 3028 3331 2572 
L 2791 2419 
Q 2713 2688 2486 2861 
Q 2259 3034 1916 3034 
Q 1566 3034 1341 2851 
Q 1116 2669 1006 2372 
Q 897 2075 897 1725 
Q 897 1381 1006 1086 
Q 1116 791 1341 609 
Q 1566 428 1916 428 
Q 2269 428 2498 608 
Q 2728 788 2806 1072 
L 3344 919 
Q 3203 453 2815 189 
Q 2428 -75 1916 -75 
z
" transform="scale(0.015625)"/>
      <path id="Inter-Regular-2b1" d="M 494 0 
L 494 3494 
L 1056 3494 
L 1056 0 
L 494 0 
z
M 778 4066 
Q 619 4066 503 4175 
Q 387 4284 387 4438 
Q 387 4594 503 4701 
Q 619 4809 778 4809 
Q 940 4809 1056 4701 
Q 1172 4594 1172 4438 
Q 1172 4284 1056 4175 
Q 940 4066 778 4066 
z
" transform="scale(0.015625)"/>
      <path id="Inter-Regular-1fb" d="M 1472 -81 
Q 1141 -81 870 44 
Q 600 169 440 409 
Q 281 650 281 994 
Q 281 1294 400 1481 
Q 519 1669 717 1776 
Q 916 1884 1156 1937 
Q 1397 1991 1641 2022 
Q 1953 2063 2150 2084 
Q 2347 2106 2442 2159 
Q 2538 2213 2538 2341 
L 2538 2359 
Q 2538 2684 2353 2864 
Q 2169 3044 1806 3044 
Q 1428 3044 1215 2880 
Q 1003 2716 922 2531 
L 381 2709 
Q 516 3028 744 3208 
Q 972 3388 1247 3463 
Q 1522 3538 1791 3538 
Q 1966 3538 2189 3495 
Q 2413 3453 2620 3328 
Q 2828 3203 2964 2958 
Q 3100 2713 3100 2303 
L 3100 0 
L 2547 0 
L 2547 475 
L 2509 475 
Q 2450 353 2319 223 
Q 2188 94 1978 6 
Q 1769 -81 1472 -81 
z
M 1569 416 
Q 1881 416 2097 537 
Q 2313 659 2425 854 
Q 2538 1050 2538 1263 
L 2538 1747 
Q 2503 1706 2387 1673 
Q 2272 1641 2123 1616 
Q 1975 1591 1836 1573 
Q 1697 1556 1616 1547 
Q 1413 1522 1236 1461 
Q 1059 1400 953 1283 
Q 847 1166 847 966 
Q 847 694 1051 555 
Q 1256 416 1569 416 
z
" transform="scale(0.015625)"/>
      <path id="Inter-Regular-255" d="M 1803 -75 
Q 1369 -75 1034 147 
Q 700 369 512 775 
Q 325 1181 325 1738 
Q 325 2291 514 2695 
Q 703 3100 1037 3319 
Q 1372 3538 1806 3538 
Q 2147 3538 2347 3425 
Q 2547 3313 2655 3170 
Q 2763 3028 2819 2934 
L 2863 2934 
L 2863 4656 
L 3425 4656 
L 3425 0 
L 2881 0 
L 2881 541 
L 2819 541 
Q 2763 444 2652 298 
Q 2541 153 2339 39 
Q 2138 -75 1803 -75 
z
M 1888 428 
Q 2363 428 2616 793 
Q 2869 1159 2869 1744 
Q 2869 2322 2620 2678 
Q 2372 3034 1888 3034 
Q 1556 3034 1336 2862 
Q 1116 2691 1006 2398 
Q 897 2106 897 1744 
Q 897 1378 1008 1079 
Q 1119 781 1341 604 
Q 1563 428 1888 428 
z
" transform="scale(0.015625)"/>
      <path id="Inter-Regular-316" d="M 1916 -75 
Q 1441 -75 1083 150 
Q 725 375 525 781 
Q 325 1188 325 1725 
Q 325 2272 525 2680 
Q 725 3088 1083 3313 
Q 1441 3538 1916 3538 
Q 2394 3538 2753 3313 
Q 3113 3088 3313 2680 
Q 3513 2272 3513 1725 
Q 3513 1188 3313 781 
Q 3113 375 2753 150 
Q 2394 -75 1916 -75 
z
M 1916 428 
Q 2269 428 2497 609 
Q 2725 791 2834 1086 
Q 2944 1381 2944 1725 
Q 2944 2072 2834 2370 
Q 2725 2669 2497 2851 
Q 2269 3034 1916 3034 
Q 1566 3034 1341 2851 
Q 1116 2669 1006 2372 
Q 897 2075 897 1725 
Q 897 1381 1006 1086 
Q 1116 791 1341 609 
Q 1566 428 1916 428 
z
" transform="scale(0.015625)"/>
      <path id="Inter-Regular-2fe" d="M 494 0 
L 494 3494 
L 1041 3494 
L 1044 2853 
Q 1172 3206 1442 3381 
Q 1713 3556 2022 3556 
Q 2366 3556 2592 3361 
Q 2819 3166 2913 2844 
Q 3038 3175 3336 3365 
Q 3634 3556 4013 3556 
Q 4316 3556 4566 3425 
Q 4816 3294 4964 3028 
Q 5113 2763 5113 2356 
L 5113 0 
L 4550 0 
L 4550 2341 
Q 4550 2719 4337 2881 
Q 4125 3044 3844 3044 
Q 3491 3044 3287 2828 
Q 3084 2613 3084 2281 
L 3084 0 
L 2522 0 
L 2522 2397 
Q 2522 2688 2328 2866 
Q 2134 3044 1838 3044 
Q 1531 3044 1293 2831 
Q 1056 2619 1056 2200 
L 1056 0 
L 494 0 
z
" transform="scale(0.015625)"/>
      <path id="Inter-Regular-367" d="M 1681 -75 
Q 1144 -75 787 159 
Q 431 394 338 847 
L 872 975 
Q 947 688 1155 553 
Q 1363 419 1675 419 
Q 2041 419 2258 575 
Q 2475 731 2475 947 
Q 2475 1306 1963 1428 
L 1381 1566 
Q 444 1788 444 2519 
Q 444 2819 612 3048 
Q 781 3278 1073 3408 
Q 1366 3538 1738 3538 
Q 2278 3538 2576 3302 
Q 2875 3066 2994 2697 
L 2484 2566 
Q 2413 2753 2245 2906 
Q 2078 3059 1741 3059 
Q 1428 3059 1220 2915 
Q 1013 2772 1013 2553 
Q 1013 2359 1153 2242 
Q 1294 2125 1600 2053 
L 2128 1928 
Q 2603 1816 2831 1580 
Q 3059 1344 3059 984 
Q 3059 678 2886 439 
Q 2713 200 2402 62 
Q 2091 -75 1681 -75 
z
" transform="scale(0.015625)"/>
      <path id="Inter-Regular-379" d="M 1869 3494 
L 1869 3013 
L 1150 3013 
L 1150 906 
Q 1150 672 1245 564 
Q 1341 456 1563 456 
Q 1616 456 1698 468 
Q 1781 481 1850 494 
L 1966 19 
Q 1878 -13 1767 -28 
Q 1656 -44 1547 -44 
Q 1094 -44 841 195 
Q 588 434 588 863 
L 588 3013 
L 63 3013 
L 63 3494 
L 588 3494 
L 588 4325 
L 1150 4325 
L 1150 3494 
L 1869 3494 
z
" transform="scale(0.015625)"/>
      <path id="Inter-Regular-354" d="M 494 0 
L 494 3494 
L 1038 3494 
L 1038 2956 
L 1075 2956 
Q 1172 3222 1420 3383 
Q 1669 3544 1981 3544 
Q 2044 3544 2130 3541 
Q 2216 3538 2266 3534 
L 2266 2969 
Q 2241 2975 2141 2987 
Q 2041 3000 1928 3000 
Q 1550 3000 1303 2770 
Q 1056 2541 1056 2188 
L 1056 0 
L 494 0 
z
" transform="scale(0.015625)"/>
      <path id="Inter-Regular-351" d="M 3425 -1306 
L 2863 -1306 
L 2863 541 
L 2819 541 
Q 2763 444 2652 298 
Q 2541 153 2339 39 
Q 2138 -75 1803 -75 
Q 1369 -75 1034 147 
Q 700 369 512 775 
Q 325 1181 325 1738 
Q 325 2291 514 2695 
Q 703 3100 1037 3319 
Q 1372 3538 1806 3538 
Q 2147 3538 2347 3425 
Q 2547 3313 2655 3170 
Q 2763 3028 2819 2934 
L 2881 2934 
L 2881 3494 
L 3425 3494 
L 3425 -1306 
z
M 1888 428 
Q 2363 428 2616 793 
Q 2869 1159 2869 1744 
Q 2869 2322 2620 2678 
Q 2372 3034 1888 3034 
Q 1556 3034 1336 2862 
Q 1116 2691 1006 2398 
Q 897 2106 897 1744 
Q 897 1378 1008 1079 
Q 1119 781 1341 604 
Q 1563 428 1888 428 
z
" transform="scale(0.015625)"/>
     </defs>
     <use xlink:href="#Inter-Regular-53e"/>
     <use xlink:href="#Inter-Regular-5de" transform="translate(40.671875 0)"/>
     <use xlink:href="#Inter-Regular-6f1" transform="translate(69.484375 0)"/>
     <use xlink:href="#Inter-Regular-59a" transform="translate(97.609375 0)"/>
     <use xlink:href="#Inter-Regular-5f" transform="translate(148.734375 0)"/>
     <use xlink:href="#Inter-Regular-2e0" transform="translate(208.84375 0)"/>
     <use xlink:href="#Inter-Regular-6f1" transform="translate(233.0625 0)"/>
     <use xlink:href="#Inter-Regular-266" transform="translate(261.1875 0)"/>
     <use xlink:href="#Inter-Regular-305" transform="translate(319.484375 0)"/>
     <use xlink:href="#Inter-Regular-393" transform="translate(378.5625 0)"/>
     <use xlink:href="#Inter-Regular-305" transform="translate(437.6875 0)"/>
     <use xlink:href="#Inter-Regular-24a" transform="translate(496.765625 0)"/>
     <use xlink:href="#Inter-Regular-2b1" transform="translate(553.890625 0)"/>
     <use xlink:href="#Inter-Regular-1fb" transform="translate(578.109375 0)"/>
     <use xlink:href="#Inter-Regular-255" transform="translate(634.265625 0)"/>
     <use xlink:href="#Inter-Regular-316" transform="translate(695.5 0)"/>
     <use xlink:href="#Inter-Regular-6f1" transform="translate(755.46875 0)"/>
     <use xlink:href="#Inter-Regular-2fe" transform="translate(783.59375 0)"/>
     <use xlink:href="#Inter-Regular-393" transform="translate(871.1875 0)"/>
     <use xlink:href="#Inter-Regular-266" transform="translate(930.3125 0)"/>
     <use xlink:href="#Inter-Regular-367" transform="translate(988.609375 0)"/>
     <use xlink:href="#Inter-Regular-379" transform="translate(1041.390625 0)"/>
     <use xlink:href="#Inter-Regular-354" transform="translate(1074.109375 0)"/>
     <use xlink:href="#Inter-Regular-1fb" transform="translate(1111.75 0)"/>
     <use xlink:href="#Inter-Regular-6f1" transform="translate(1167.90625 0)"/>
     <use xlink:href="#Inter-Regular-351" transform="translate(1196.03125 0)"/>
     <use xlink:href="#Inter-Regular-393" transform="translate(1257.265625 0)"/>
     <use xlink:href="#Inter-Regular-266" transform="translate(1316.390625 0)"/>
    </g>
    <!-- había ALTERNATIVAS y la persona -->
    <g style="fill: #1d1d1b" transform="translate(21.582375 54.391656) scale(0.08 -0.08)">
     <defs>
      <path id="Inter-Regular-29e" d="M 1056 2094 
L 1056 0 
L 494 0 
L 494 4656 
L 1056 4656 
L 1056 2888 
Q 1228 3238 1495 3388 
Q 1763 3538 2106 3538 
Q 2638 3538 2964 3209 
Q 3291 2881 3291 2219 
L 3291 0 
L 2725 0 
L 2725 2172 
Q 2725 2575 2514 2803 
Q 2303 3031 1938 3031 
Q 1559 3031 1307 2786 
Q 1056 2541 1056 2094 
z
" transform="scale(0.015625)"/>
      <path id="Inter-Regular-242" d="M 2116 -75 
Q 1784 -75 1581 39 
Q 1378 153 1268 298 
Q 1159 444 1100 541 
L 1038 541 
L 1038 0 
L 494 0 
L 494 4656 
L 1056 4656 
L 1056 2934 
L 1100 2934 
Q 1159 3028 1265 3170 
Q 1372 3313 1572 3425 
Q 1772 3538 2113 3538 
Q 2550 3538 2883 3319 
Q 3216 3100 3405 2695 
Q 3594 2291 3594 1738 
Q 3594 1181 3406 775 
Q 3219 369 2886 147 
Q 2553 -75 2116 -75 
z
M 2031 428 
Q 2359 428 2579 604 
Q 2800 781 2911 1079 
Q 3022 1378 3022 1744 
Q 3022 2106 2912 2398 
Q 2803 2691 2583 2862 
Q 2363 3034 2031 3034 
Q 1550 3034 1300 2678 
Q 1050 2322 1050 1744 
Q 1050 1159 1303 793 
Q 1556 428 2031 428 
z
" transform="scale(0.015625)"/>
      <path id="Inter-Regular-2bb" d="M 494 0 
L 494 3494 
L 1056 3494 
L 1056 0 
L 494 0 
z
M 531 3950 
L 969 4869 
L 1597 4869 
L 990 3950 
L 531 3950 
z
" transform="scale(0.015625)"/>
      <path id="Inter-Regular-2" d="M 163 0 
L 1853 4656 
L 2541 4656 
L 4253 0 
L 3628 0 
L 3163 1300 
L 1244 1300 
L 794 0 
L 163 0 
z
M 1425 1819 
L 2978 1819 
L 2641 2763 
Q 2556 2997 2450 3336 
Q 2344 3675 2194 4181 
Q 2047 3666 1937 3322 
Q 1828 2978 1753 2763 
L 1425 1819 
z
" transform="scale(0.015625)"/>
      <path id="Inter-Regular-119" d="M 563 0 
L 563 4656 
L 1156 4656 
L 1156 525 
L 3313 525 
L 3313 0 
L 563 0 
z
" transform="scale(0.015625)"/>
      <path id="Inter-Regular-19b" d="M 306 4131 
L 306 4656 
L 3825 4656 
L 3825 4131 
L 2366 4131 
L 2366 0 
L 1772 0 
L 1772 4131 
L 306 4131 
z
" transform="scale(0.015625)"/>
      <path id="Inter-Regular-180" d="M 563 0 
L 563 4656 
L 2156 4656 
Q 2700 4656 3051 4470 
Q 3403 4284 3573 3959 
Q 3744 3634 3744 3219 
Q 3744 2756 3533 2412 
Q 3322 2069 2881 1916 
L 3925 0 
L 3238 0 
L 2269 1809 
Q 2216 1806 2159 1806 
L 1156 1806 
L 1156 0 
L 563 0 
z
M 1156 2334 
L 2131 2334 
Q 2681 2334 2917 2571 
Q 3153 2809 3153 3219 
Q 3153 3634 2917 3884 
Q 2681 4134 2125 4134 
L 1156 4134 
L 1156 2334 
z
" transform="scale(0.015625)"/>
      <path id="Inter-Regular-12c" d="M 563 0 
L 563 4656 
L 1263 4656 
L 3156 1678 
Q 3250 1528 3398 1273 
Q 3547 1019 3706 703 
Q 3678 1041 3672 1327 
Q 3666 1613 3666 1800 
L 3666 4656 
L 4259 4656 
L 4259 0 
L 3553 0 
L 1866 2650 
Q 1759 2816 1654 2991 
Q 1550 3166 1422 3394 
Q 1294 3622 1113 3944 
Q 1131 3497 1145 3161 
Q 1159 2825 1159 2656 
L 1159 0 
L 563 0 
z
" transform="scale(0.015625)"/>
      <path id="Inter-Regular-c5" d="M 1156 4656 
L 1156 0 
L 563 0 
L 563 4656 
L 1156 4656 
z
" transform="scale(0.015625)"/>
      <path id="Inter-Regular-1c8" d="M 1875 0 
L 163 4656 
L 788 4656 
L 1772 1894 
Q 1850 1678 1961 1329 
Q 2072 981 2219 481 
Q 2366 994 2477 1336 
Q 2588 1678 2663 1894 
L 3622 4656 
L 4253 4656 
L 2559 0 
L 1875 0 
z
" transform="scale(0.015625)"/>
      <path id="Inter-Regular-18d" d="M 2053 -81 
Q 1297 -81 850 276 
Q 403 634 363 1219 
L 972 1219 
Q 997 956 1150 786 
Q 1303 616 1542 533 
Q 1781 450 2053 450 
Q 2369 450 2620 553 
Q 2872 656 3019 843 
Q 3166 1031 3166 1278 
Q 3166 1503 3039 1643 
Q 2913 1784 2703 1875 
Q 2494 1966 2244 2034 
L 1681 2194 
Q 1119 2353 806 2650 
Q 494 2947 494 3409 
Q 494 3803 706 4098 
Q 919 4394 1281 4556 
Q 1644 4719 2094 4719 
Q 2553 4719 2906 4556 
Q 3259 4394 3464 4114 
Q 3669 3834 3681 3481 
L 3100 3481 
Q 3059 3822 2775 4008 
Q 2491 4194 2075 4194 
Q 1622 4194 1347 3980 
Q 1072 3766 1072 3438 
Q 1072 3194 1223 3045 
Q 1375 2897 1583 2814 
Q 1791 2731 1959 2684 
L 2425 2556 
Q 2613 2506 2839 2418 
Q 3066 2331 3272 2186 
Q 3478 2041 3611 1817 
Q 3744 1594 3744 1269 
Q 3744 888 3545 581 
Q 3347 275 2969 97 
Q 2591 -81 2053 -81 
z
" transform="scale(0.015625)"/>
      <path id="Inter-Regular-3e6" d="M 438 -1266 
L 581 -778 
L 641 -794 
Q 900 -863 1087 -773 
Q 1275 -684 1403 -309 
L 1503 -19 
L 169 3494 
L 784 3494 
L 1528 1422 
Q 1609 1194 1673 969 
Q 1738 744 1797 525 
Q 1856 744 1920 969 
Q 1984 1194 2066 1422 
L 2816 3494 
L 3428 3494 
L 1894 -522 
Q 1734 -938 1478 -1134 
Q 1222 -1331 850 -1331 
Q 700 -1331 590 -1309 
Q 481 -1288 438 -1266 
z
" transform="scale(0.015625)"/>
      <path id="Inter-Regular-34b" d="M 494 -1306 
L 494 3494 
L 1038 3494 
L 1038 2934 
L 1100 2934 
Q 1159 3028 1265 3170 
Q 1372 3313 1572 3425 
Q 1772 3538 2113 3538 
Q 2550 3538 2883 3319 
Q 3216 3100 3405 2695 
Q 3594 2291 3594 1738 
Q 3594 1181 3406 775 
Q 3219 369 2886 147 
Q 2553 -75 2116 -75 
Q 1784 -75 1581 39 
Q 1378 153 1268 298 
Q 1159 444 1100 541 
L 1056 541 
L 1056 -1306 
L 494 -1306 
z
M 2031 428 
Q 2359 428 2579 604 
Q 2800 781 2911 1079 
Q 3022 1378 3022 1744 
Q 3022 2106 2912 2398 
Q 2803 2691 2583 2862 
Q 2363 3034 2031 3034 
Q 1550 3034 1300 2678 
Q 1050 2322 1050 1744 
Q 1050 1159 1303 793 
Q 1556 428 2031 428 
z
" transform="scale(0.015625)"/>
     </defs>
     <use xlink:href="#Inter-Regular-29e"/>
     <use xlink:href="#Inter-Regular-1fb" transform="translate(59.125 0)"/>
     <use xlink:href="#Inter-Regular-242" transform="translate(115.28125 0)"/>
     <use xlink:href="#Inter-Regular-2bb" transform="translate(176.515625 0)"/>
     <use xlink:href="#Inter-Regular-1fb" transform="translate(200.734375 0)"/>
     <use xlink:href="#Inter-Regular-6f1" transform="translate(256.890625 0)"/>
     <use xlink:href="#Inter-Regular-2" transform="translate(285.015625 0)"/>
     <use xlink:href="#Inter-Regular-119" transform="translate(354.015625 0)"/>
     <use xlink:href="#Inter-Regular-19b" transform="translate(400.9375 0)"/>
     <use xlink:href="#Inter-Regular-5f" transform="translate(465.484375 0)"/>
     <use xlink:href="#Inter-Regular-180" transform="translate(525.59375 0)"/>
     <use xlink:href="#Inter-Regular-12c" transform="translate(589.953125 0)"/>
     <use xlink:href="#Inter-Regular-2" transform="translate(665.296875 0)"/>
     <use xlink:href="#Inter-Regular-19b" transform="translate(725.796875 0)"/>
     <use xlink:href="#Inter-Regular-c5" transform="translate(790.34375 0)"/>
     <use xlink:href="#Inter-Regular-1c8" transform="translate(817.203125 0)"/>
     <use xlink:href="#Inter-Regular-2" transform="translate(879.375 0)"/>
     <use xlink:href="#Inter-Regular-18d" transform="translate(948.375 0)"/>
     <use xlink:href="#Inter-Regular-6f1" transform="translate(1012.53125 0)"/>
     <use xlink:href="#Inter-Regular-3e6" transform="translate(1040.65625 0)"/>
     <use xlink:href="#Inter-Regular-6f1" transform="translate(1096.859375 0)"/>
     <use xlink:href="#Inter-Regular-2e0" transform="translate(1124.984375 0)"/>
     <use xlink:href="#Inter-Regular-1fb" transform="translate(1149.203125 0)"/>
     <use xlink:href="#Inter-Regular-6f1" transform="translate(1205.359375 0)"/>
     <use xlink:href="#Inter-Regular-34b" transform="translate(1233.484375 0)"/>
     <use xlink:href="#Inter-Regular-266" transform="translate(1294.71875 0)"/>
     <use xlink:href="#Inter-Regular-354" transform="translate(1353.015625 0)"/>
     <use xlink:href="#Inter-Regular-367" transform="translate(1390.65625 0)"/>
     <use xlink:href="#Inter-Regular-316" transform="translate(1443.4375 0)"/>
     <use xlink:href="#Inter-Regular-305" transform="translate(1503.40625 0)"/>
     <use xlink:href="#Inter-Regular-1fb" transform="translate(1562.484375 0)"/>
    </g>
    <!-- eligió (o podría elegir)? -->
    <g style="fill: #1d1d1b" transform="translate(42.92925 66.989) scale(0.08 -0.08)">
     <defs>
      <path id="Inter-Regular-292" d="M 1909 -1381 
Q 1328 -1381 981 -1168 
Q 634 -956 472 -669 
L 928 -375 
Q 1003 -475 1114 -597 
Q 1225 -719 1414 -805 
Q 1603 -891 1909 -891 
Q 2328 -891 2598 -691 
Q 2869 -491 2869 -59 
L 2869 641 
L 2816 641 
Q 2756 541 2648 403 
Q 2541 266 2339 161 
Q 2138 56 1800 56 
Q 1381 56 1047 254 
Q 713 453 519 834 
Q 325 1216 325 1763 
Q 325 2303 515 2701 
Q 706 3100 1042 3319 
Q 1378 3538 1813 3538 
Q 2150 3538 2351 3427 
Q 2553 3316 2662 3172 
Q 2772 3028 2831 2934 
L 2884 2934 
L 2884 3494 
L 3431 3494 
L 3431 -91 
Q 3431 -541 3228 -827 
Q 3025 -1113 2679 -1247 
Q 2334 -1381 1909 -1381 
z
M 1894 556 
Q 2369 556 2622 879 
Q 2875 1203 2875 1775 
Q 2875 2331 2626 2682 
Q 2378 3034 1894 3034 
Q 1563 3034 1341 2864 
Q 1119 2694 1008 2409 
Q 897 2125 897 1775 
Q 897 1238 1150 897 
Q 1403 556 1894 556 
z
" transform="scale(0.015625)"/>
      <path id="Inter-Regular-31c" d="M 1916 -75 
Q 1441 -75 1083 150 
Q 725 375 525 781 
Q 325 1188 325 1725 
Q 325 2272 525 2680 
Q 725 3088 1083 3313 
Q 1441 3538 1916 3538 
Q 2394 3538 2753 3313 
Q 3113 3088 3313 2680 
Q 3513 2272 3513 1725 
Q 3513 1188 3313 781 
Q 3113 375 2753 150 
Q 2394 -75 1916 -75 
z
M 1916 428 
Q 2269 428 2497 609 
Q 2725 791 2834 1086 
Q 2944 1381 2944 1725 
Q 2944 2072 2834 2370 
Q 2725 2669 2497 2851 
Q 2269 3034 1916 3034 
Q 1566 3034 1341 2851 
Q 1116 2669 1006 2372 
Q 897 2075 897 1725 
Q 897 1381 1006 1086 
Q 1116 791 1341 609 
Q 1566 428 1916 428 
z
M 1669 3950 
L 2107 4869 
L 2735 4869 
L 2128 3950 
L 1669 3950 
z
" transform="scale(0.015625)"/>
      <path id="Inter-Regular-59d" d="M 681 1897 
Q 681 2406 786 2964 
Q 891 3522 1072 4039 
Q 1253 4556 1488 4941 
L 2034 4941 
Q 1794 4450 1617 3919 
Q 1441 3388 1347 2870 
Q 1253 2353 1253 1897 
Q 1253 1275 1442 617 
Q 1631 -41 2034 -872 
L 1488 -872 
Q 1091 -194 886 509 
Q 681 1213 681 1897 
z
" transform="scale(0.015625)"/>
      <path id="Inter-Regular-59e" d="M 300 -872 
Q 716 -16 898 639 
Q 1081 1294 1081 1897 
Q 1081 2353 987 2870 
Q 894 3388 719 3919 
Q 544 4450 300 4941 
L 847 4941 
Q 1081 4556 1264 4039 
Q 1447 3522 1550 2962 
Q 1653 2403 1653 1897 
Q 1653 1200 1445 497 
Q 1238 -206 847 -872 
L 300 -872 
z
" transform="scale(0.015625)"/>
      <path id="Inter-Regular-597" d="M 1197 1403 
L 1197 1438 
Q 1197 1866 1280 2098 
Q 1363 2331 1519 2467 
Q 1675 2603 1891 2731 
Q 2097 2856 2237 3048 
Q 2378 3241 2378 3513 
Q 2378 3838 2156 4030 
Q 1934 4222 1619 4222 
Q 1344 4222 1109 4048 
Q 875 3875 850 3484 
L 256 3484 
Q 272 3878 458 4153 
Q 644 4428 947 4573 
Q 1250 4719 1619 4719 
Q 2025 4719 2323 4561 
Q 2622 4403 2787 4125 
Q 2953 3847 2953 3491 
Q 2953 3113 2787 2844 
Q 2622 2575 2319 2391 
Q 2119 2269 1995 2155 
Q 1872 2041 1817 1878 
Q 1763 1716 1763 1438 
L 1763 1403 
L 1197 1403 
z
M 1488 -41 
Q 1313 -41 1189 82 
Q 1066 206 1066 378 
Q 1066 553 1189 676 
Q 1313 800 1488 800 
Q 1663 800 1784 676 
Q 1906 553 1906 378 
Q 1906 206 1784 82 
Q 1663 -41 1488 -41 
z
" transform="scale(0.015625)"/>
     </defs>
     <use xlink:href="#Inter-Regular-266"/>
     <use xlink:href="#Inter-Regular-2e0" transform="translate(58.296875 0)"/>
     <use xlink:href="#Inter-Regular-2b1" transform="translate(82.515625 0)"/>
     <use xlink:href="#Inter-Regular-292" transform="translate(106.734375 0)"/>
     <use xlink:href="#Inter-Regular-2b1" transform="translate(168.0625 0)"/>
     <use xlink:href="#Inter-Regular-31c" transform="translate(192.28125 0)"/>
     <use xlink:href="#Inter-Regular-6f1" transform="translate(252.25 0)"/>
     <use xlink:href="#Inter-Regular-59d" transform="translate(280.375 0)"/>
     <use xlink:href="#Inter-Regular-316" transform="translate(315.71875 0)"/>
     <use xlink:href="#Inter-Regular-6f1" transform="translate(375.6875 0)"/>
     <use xlink:href="#Inter-Regular-34b" transform="translate(403.8125 0)"/>
     <use xlink:href="#Inter-Regular-316" transform="translate(465.046875 0)"/>
     <use xlink:href="#Inter-Regular-255" transform="translate(525.015625 0)"/>
     <use xlink:href="#Inter-Regular-354" transform="translate(586.25 0)"/>
     <use xlink:href="#Inter-Regular-2bb" transform="translate(624.875 0)"/>
     <use xlink:href="#Inter-Regular-1fb" transform="translate(649.09375 0)"/>
     <use xlink:href="#Inter-Regular-6f1" transform="translate(705.25 0)"/>
     <use xlink:href="#Inter-Regular-266" transform="translate(733.375 0)"/>
     <use xlink:href="#Inter-Regular-2e0" transform="translate(791.671875 0)"/>
     <use xlink:href="#Inter-Regular-266" transform="translate(815.890625 0)"/>
     <use xlink:href="#Inter-Regular-292" transform="translate(874.1875 0)"/>
     <use xlink:href="#Inter-Regular-2b1" transform="translate(935.515625 0)"/>
     <use xlink:href="#Inter-Regular-354" transform="translate(959.734375 0)"/>
     <use xlink:href="#Inter-Regular-59e" transform="translate(997.375 0)"/>
     <use xlink:href="#Inter-Regular-597" transform="translate(1033.84375 0)"/>
    </g>
    <!-- “decidió”, “prefirió”, “rechazó”, -->
    <g style="fill: #1d1d1b" transform="translate(29.036125 79.578219) scale(0.08 -0.08)">
     <defs>
      <path id="Inter-Regular-5ce" d="M 500 2884 
L 988 4656 
L 1419 4656 
L 1144 2884 
L 500 2884 
z
M 1650 2884 
L 2138 4656 
L 2569 4656 
L 2294 2884 
L 1650 2884 
z
" transform="scale(0.015625)"/>
      <path id="Inter-Regular-5cf" d="M 500 2884 
L 775 4656 
L 1419 4656 
L 931 2884 
L 500 2884 
z
M 1650 2884 
L 1925 4656 
L 2569 4656 
L 2081 2884 
L 1650 2884 
z
" transform="scale(0.015625)"/>
      <path id="Inter-Regular-5dd" d="M 400 -1122 
L 675 650 
L 1319 650 
L 831 -1122 
L 400 -1122 
z
" transform="scale(0.015625)"/>
      <path id="Inter-Regular-287" d="M 2119 3494 
L 2119 3013 
L 1313 3013 
L 1313 0 
L 750 0 
L 750 3013 
L 63 3013 
L 63 3494 
L 750 3494 
L 750 3959 
Q 750 4263 892 4466 
Q 1034 4669 1262 4772 
Q 1491 4875 1744 4875 
Q 1944 4875 2075 4842 
Q 2206 4809 2269 4781 
L 2113 4300 
Q 2069 4316 1998 4334 
Q 1928 4353 1809 4353 
Q 1550 4353 1431 4220 
Q 1313 4088 1313 3834 
L 1313 3494 
L 2119 3494 
z
" transform="scale(0.015625)"/>
      <path id="Inter-Regular-3fe" d="M 394 0 
L 394 419 
L 2353 2938 
L 2353 2972 
L 456 2972 
L 456 3494 
L 3078 3494 
L 3078 3047 
L 1175 556 
L 1175 522 
L 3141 522 
L 3141 0 
L 394 0 
z
" transform="scale(0.015625)"/>
     </defs>
     <use xlink:href="#Inter-Regular-5ce"/>
     <use xlink:href="#Inter-Regular-255" transform="translate(40.140625 0)"/>
     <use xlink:href="#Inter-Regular-266" transform="translate(101.375 0)"/>
     <use xlink:href="#Inter-Regular-24a" transform="translate(159.671875 0)"/>
     <use xlink:href="#Inter-Regular-2b1" transform="translate(216.796875 0)"/>
     <use xlink:href="#Inter-Regular-255" transform="translate(241.015625 0)"/>
     <use xlink:href="#Inter-Regular-2b1" transform="translate(302.25 0)"/>
     <use xlink:href="#Inter-Regular-31c" transform="translate(326.46875 0)"/>
     <use xlink:href="#Inter-Regular-5cf" transform="translate(384 0)"/>
     <use xlink:href="#Inter-Regular-5dd" transform="translate(418.140625 0)"/>
     <use xlink:href="#Inter-Regular-6f1" transform="translate(446.953125 0)"/>
     <use xlink:href="#Inter-Regular-5ce" transform="translate(475.078125 0)"/>
     <use xlink:href="#Inter-Regular-34b" transform="translate(519.125 0)"/>
     <use xlink:href="#Inter-Regular-354" transform="translate(580.359375 0)"/>
     <use xlink:href="#Inter-Regular-266" transform="translate(616.34375 0)"/>
     <use xlink:href="#Inter-Regular-287" transform="translate(674.640625 0)"/>
     <use xlink:href="#Inter-Regular-2b1" transform="translate(711.65625 0)"/>
     <use xlink:href="#Inter-Regular-354" transform="translate(735.875 0)"/>
     <use xlink:href="#Inter-Regular-2b1" transform="translate(774.5 0)"/>
     <use xlink:href="#Inter-Regular-31c" transform="translate(798.71875 0)"/>
     <use xlink:href="#Inter-Regular-5cf" transform="translate(856.25 0)"/>
     <use xlink:href="#Inter-Regular-5dd" transform="translate(890.390625 0)"/>
     <use xlink:href="#Inter-Regular-6f1" transform="translate(919.203125 0)"/>
     <use xlink:href="#Inter-Regular-5ce" transform="translate(947.328125 0)"/>
     <use xlink:href="#Inter-Regular-354" transform="translate(991.375 0)"/>
     <use xlink:href="#Inter-Regular-266" transform="translate(1027.359375 0)"/>
     <use xlink:href="#Inter-Regular-24a" transform="translate(1085.65625 0)"/>
     <use xlink:href="#Inter-Regular-29e" transform="translate(1142.78125 0)"/>
     <use xlink:href="#Inter-Regular-1fb" transform="translate(1201.90625 0)"/>
     <use xlink:href="#Inter-Regular-3fe" transform="translate(1258.0625 0)"/>
     <use xlink:href="#Inter-Regular-31c" transform="translate(1311.8125 0)"/>
     <use xlink:href="#Inter-Regular-5cf" transform="translate(1369.34375 0)"/>
     <use xlink:href="#Inter-Regular-5dd" transform="translate(1403.484375 0)"/>
    </g>
    <!-- “podría haberse postulado” -->
    <g style="fill: #1d1d1b" transform="translate(34.55675 92.158062) scale(0.08 -0.08)">
     <use xlink:href="#Inter-Regular-5ce"/>
     <use xlink:href="#Inter-Regular-34b" transform="translate(44.046875 0)"/>
     <use xlink:href="#Inter-Regular-316" transform="translate(105.28125 0)"/>
     <use xlink:href="#Inter-Regular-255" transform="translate(165.25 0)"/>
     <use xlink:href="#Inter-Regular-354" transform="translate(226.484375 0)"/>
     <use xlink:href="#Inter-Regular-2bb" transform="translate(265.109375 0)"/>
     <use xlink:href="#Inter-Regular-1fb" transform="translate(289.328125 0)"/>
     <use xlink:href="#Inter-Regular-6f1" transform="translate(345.484375 0)"/>
     <use xlink:href="#Inter-Regular-29e" transform="translate(373.609375 0)"/>
     <use xlink:href="#Inter-Regular-1fb" transform="translate(432.734375 0)"/>
     <use xlink:href="#Inter-Regular-242" transform="translate(488.890625 0)"/>
     <use xlink:href="#Inter-Regular-266" transform="translate(550.125 0)"/>
     <use xlink:href="#Inter-Regular-354" transform="translate(608.421875 0)"/>
     <use xlink:href="#Inter-Regular-367" transform="translate(646.0625 0)"/>
     <use xlink:href="#Inter-Regular-266" transform="translate(698.84375 0)"/>
     <use xlink:href="#Inter-Regular-6f1" transform="translate(757.140625 0)"/>
     <use xlink:href="#Inter-Regular-34b" transform="translate(785.265625 0)"/>
     <use xlink:href="#Inter-Regular-316" transform="translate(846.5 0)"/>
     <use xlink:href="#Inter-Regular-367" transform="translate(906.46875 0)"/>
     <use xlink:href="#Inter-Regular-379" transform="translate(959.25 0)"/>
     <use xlink:href="#Inter-Regular-393" transform="translate(991.96875 0)"/>
     <use xlink:href="#Inter-Regular-2e0" transform="translate(1051.09375 0)"/>
     <use xlink:href="#Inter-Regular-1fb" transform="translate(1075.3125 0)"/>
     <use xlink:href="#Inter-Regular-255" transform="translate(1131.46875 0)"/>
     <use xlink:href="#Inter-Regular-316" transform="translate(1192.703125 0)"/>
     <use xlink:href="#Inter-Regular-5cf" transform="translate(1250.234375 0)"/>
    </g>
   </g>
   <g id="text_2">
    <!-- 2. Es un hecho ya realizado. -->
    <g style="fill: #1d1d1b" transform="translate(199.62475 149.366359) scale(0.08 -0.08)">
     <defs>
      <path id="Inter-Regular-53f" d="M 481 0 
L 481 428 
L 2028 2106 
Q 2288 2388 2459 2600 
Q 2631 2813 2718 3005 
Q 2806 3197 2806 3413 
Q 2806 3778 2554 3990 
Q 2303 4203 1931 4203 
Q 1534 4203 1298 3965 
Q 1063 3728 1063 3334 
L 494 3334 
Q 494 3747 684 4059 
Q 875 4372 1203 4545 
Q 1531 4719 1947 4719 
Q 2363 4719 2683 4545 
Q 3003 4372 3186 4078 
Q 3369 3784 3369 3419 
Q 3369 3166 3278 2927 
Q 3188 2688 2959 2384 
Q 2731 2081 2319 1644 
L 1300 559 
L 1300 522 
L 3447 522 
L 3447 0 
L 481 0 
z
" transform="scale(0.015625)"/>
     </defs>
     <use xlink:href="#Inter-Regular-53f"/>
     <use xlink:href="#Inter-Regular-5de" transform="translate(60.984375 0)"/>
     <use xlink:href="#Inter-Regular-6f1" transform="translate(89.796875 0)"/>
     <use xlink:href="#Inter-Regular-5f" transform="translate(117.921875 0)"/>
     <use xlink:href="#Inter-Regular-367" transform="translate(178.03125 0)"/>
     <use xlink:href="#Inter-Regular-6f1" transform="translate(230.8125 0)"/>
     <use xlink:href="#Inter-Regular-393" transform="translate(258.9375 0)"/>
     <use xlink:href="#Inter-Regular-305" transform="translate(318.0625 0)"/>
     <use xlink:href="#Inter-Regular-6f1" transform="translate(377.140625 0)"/>
     <use xlink:href="#Inter-Regular-29e" transform="translate(405.265625 0)"/>
     <use xlink:href="#Inter-Regular-266" transform="translate(464.390625 0)"/>
     <use xlink:href="#Inter-Regular-24a" transform="translate(522.6875 0)"/>
     <use xlink:href="#Inter-Regular-29e" transform="translate(579.8125 0)"/>
     <use xlink:href="#Inter-Regular-316" transform="translate(638.9375 0)"/>
     <use xlink:href="#Inter-Regular-6f1" transform="translate(698.90625 0)"/>
     <use xlink:href="#Inter-Regular-3e6" transform="translate(727.03125 0)"/>
     <use xlink:href="#Inter-Regular-1fb" transform="translate(782.75 0)"/>
     <use xlink:href="#Inter-Regular-6f1" transform="translate(838.90625 0)"/>
     <use xlink:href="#Inter-Regular-354" transform="translate(867.03125 0)"/>
     <use xlink:href="#Inter-Regular-266" transform="translate(903.015625 0)"/>
     <use xlink:href="#Inter-Regular-1fb" transform="translate(962.296875 0)"/>
     <use xlink:href="#Inter-Regular-2e0" transform="translate(1018.453125 0)"/>
     <use xlink:href="#Inter-Regular-2b1" transform="translate(1042.671875 0)"/>
     <use xlink:href="#Inter-Regular-3fe" transform="translate(1066.890625 0)"/>
     <use xlink:href="#Inter-Regular-1fb" transform="translate(1122.109375 0)"/>
     <use xlink:href="#Inter-Regular-255" transform="translate(1178.265625 0)"/>
     <use xlink:href="#Inter-Regular-316" transform="translate(1239.5 0)"/>
     <use xlink:href="#Inter-Regular-5de" transform="translate(1299.46875 0)"/>
    </g>
    <!-- ¿Fue FORZADO por falta de -->
    <g style="fill: #1d1d1b" transform="translate(200.671 162.006828) scale(0.08 -0.08)">
     <defs>
      <path id="Inter-Regular-89" d="M 563 0 
L 563 4656 
L 3378 4656 
L 3378 4131 
L 1156 4131 
L 1156 2538 
L 3166 2538 
L 3166 2013 
L 1156 2013 
L 1156 0 
L 563 0 
z
" transform="scale(0.015625)"/>
      <path id="Inter-Regular-141" d="M 2450 -63 
Q 1853 -63 1386 226 
Q 919 516 650 1052 
Q 381 1588 381 2325 
Q 381 3066 650 3602 
Q 919 4138 1386 4428 
Q 1853 4719 2450 4719 
Q 3047 4719 3512 4428 
Q 3978 4138 4245 3602 
Q 4513 3066 4513 2325 
Q 4513 1588 4245 1052 
Q 3978 516 3512 226 
Q 3047 -63 2450 -63 
z
M 2450 488 
Q 2866 488 3202 698 
Q 3538 909 3736 1320 
Q 3934 1731 3934 2325 
Q 3934 2925 3736 3336 
Q 3538 3747 3202 3958 
Q 2866 4169 2450 4169 
Q 2031 4169 1693 3956 
Q 1356 3744 1157 3333 
Q 959 2922 959 2325 
Q 959 1731 1157 1322 
Q 1356 913 1693 700 
Q 2031 488 2450 488 
z
" transform="scale(0.015625)"/>
      <path id="Inter-Regular-1f0" d="M 406 0 
L 406 419 
L 2488 3516 
Q 2594 3672 2711 3831 
Q 2828 3991 2947 4147 
Q 2716 4138 2481 4134 
Q 2247 4131 2016 4131 
L 381 4131 
L 381 4656 
L 3619 4656 
L 3619 4231 
L 1569 1184 
Q 1453 1016 1329 845 
Q 1206 675 1078 509 
Q 1309 519 1539 522 
Q 1769 525 2000 525 
L 3644 525 
L 3644 0 
L 406 0 
z
" transform="scale(0.015625)"/>
      <path id="Inter-Regular-54" d="M 2016 0 
L 563 0 
L 563 4656 
L 2075 4656 
Q 2756 4656 3239 4378 
Q 3722 4100 3980 3579 
Q 4238 3059 4238 2338 
Q 4238 1609 3978 1086 
Q 3719 563 3222 281 
Q 2725 0 2016 0 
z
M 1156 525 
L 1978 525 
Q 2828 525 3245 1008 
Q 3663 1491 3663 2338 
Q 3663 3178 3253 3654 
Q 2844 4131 2034 4131 
L 1156 4131 
L 1156 525 
z
" transform="scale(0.015625)"/>
     </defs>
     <use xlink:href="#Inter-Regular-59a"/>
     <use xlink:href="#Inter-Regular-89" transform="translate(51.125 0)"/>
     <use xlink:href="#Inter-Regular-393" transform="translate(106.78125 0)"/>
     <use xlink:href="#Inter-Regular-266" transform="translate(165.90625 0)"/>
     <use xlink:href="#Inter-Regular-6f1" transform="translate(224.203125 0)"/>
     <use xlink:href="#Inter-Regular-89" transform="translate(252.328125 0)"/>
     <use xlink:href="#Inter-Regular-141" transform="translate(311.359375 0)"/>
     <use xlink:href="#Inter-Regular-180" transform="translate(387.828125 0)"/>
     <use xlink:href="#Inter-Regular-1f0" transform="translate(452.1875 0)"/>
     <use xlink:href="#Inter-Regular-2" transform="translate(515.078125 0)"/>
     <use xlink:href="#Inter-Regular-54" transform="translate(584.078125 0)"/>
     <use xlink:href="#Inter-Regular-141" transform="translate(656.25 0)"/>
     <use xlink:href="#Inter-Regular-6f1" transform="translate(732.71875 0)"/>
     <use xlink:href="#Inter-Regular-34b" transform="translate(760.84375 0)"/>
     <use xlink:href="#Inter-Regular-316" transform="translate(822.078125 0)"/>
     <use xlink:href="#Inter-Regular-354" transform="translate(882.046875 0)"/>
     <use xlink:href="#Inter-Regular-6f1" transform="translate(919.6875 0)"/>
     <use xlink:href="#Inter-Regular-287" transform="translate(947.8125 0)"/>
     <use xlink:href="#Inter-Regular-1fb" transform="translate(983.265625 0)"/>
     <use xlink:href="#Inter-Regular-2e0" transform="translate(1039.421875 0)"/>
     <use xlink:href="#Inter-Regular-379" transform="translate(1065.109375 0)"/>
     <use xlink:href="#Inter-Regular-1fb" transform="translate(1098.3125 0)"/>
     <use xlink:href="#Inter-Regular-6f1" transform="translate(1154.46875 0)"/>
     <use xlink:href="#Inter-Regular-255" transform="translate(1182.59375 0)"/>
     <use xlink:href="#Inter-Regular-266" transform="translate(1243.828125 0)"/>
    </g>
    <!-- alternativas (ingreso, -->
    <g style="fill: #1d1d1b" transform="translate(213.036625 174.584797) scale(0.08 -0.08)">
     <defs>
      <path id="Inter-Regular-3d4" d="M 1503 0 
L 169 3494 
L 784 3494 
L 1528 1422 
Q 1609 1194 1675 967 
Q 1741 741 1800 522 
Q 1859 741 1923 967 
Q 1988 1194 2069 1422 
L 2813 3494 
L 3428 3494 
L 2094 0 
L 1503 0 
z
" transform="scale(0.015625)"/>
     </defs>
     <use xlink:href="#Inter-Regular-1fb"/>
     <use xlink:href="#Inter-Regular-2e0" transform="translate(56.15625 0)"/>
     <use xlink:href="#Inter-Regular-379" transform="translate(81.84375 0)"/>
     <use xlink:href="#Inter-Regular-266" transform="translate(113.59375 0)"/>
     <use xlink:href="#Inter-Regular-354" transform="translate(171.890625 0)"/>
     <use xlink:href="#Inter-Regular-305" transform="translate(211.09375 0)"/>
     <use xlink:href="#Inter-Regular-1fb" transform="translate(270.171875 0)"/>
     <use xlink:href="#Inter-Regular-379" transform="translate(326.328125 0)"/>
     <use xlink:href="#Inter-Regular-2b1" transform="translate(359.046875 0)"/>
     <use xlink:href="#Inter-Regular-3d4" transform="translate(383.265625 0)"/>
     <use xlink:href="#Inter-Regular-1fb" transform="translate(438.984375 0)"/>
     <use xlink:href="#Inter-Regular-367" transform="translate(495.140625 0)"/>
     <use xlink:href="#Inter-Regular-6f1" transform="translate(547.921875 0)"/>
     <use xlink:href="#Inter-Regular-59d" transform="translate(576.046875 0)"/>
     <use xlink:href="#Inter-Regular-2b1" transform="translate(612.515625 0)"/>
     <use xlink:href="#Inter-Regular-305" transform="translate(636.734375 0)"/>
     <use xlink:href="#Inter-Regular-292" transform="translate(695.8125 0)"/>
     <use xlink:href="#Inter-Regular-354" transform="translate(757.140625 0)"/>
     <use xlink:href="#Inter-Regular-266" transform="translate(793.125 0)"/>
     <use xlink:href="#Inter-Regular-367" transform="translate(851.421875 0)"/>
     <use xlink:href="#Inter-Regular-316" transform="translate(904.203125 0)"/>
     <use xlink:href="#Inter-Regular-5dd" transform="translate(964.171875 0)"/>
    </g>
    <!-- cobertura, distancia)? -->
    <g style="fill: #1d1d1b" transform="translate(211.549125 187.330266) scale(0.08 -0.08)">
     <use xlink:href="#Inter-Regular-24a"/>
     <use xlink:href="#Inter-Regular-316" transform="translate(57.125 0)"/>
     <use xlink:href="#Inter-Regular-242" transform="translate(117.09375 0)"/>
     <use xlink:href="#Inter-Regular-266" transform="translate(178.328125 0)"/>
     <use xlink:href="#Inter-Regular-354" transform="translate(236.625 0)"/>
     <use xlink:href="#Inter-Regular-379" transform="translate(275.828125 0)"/>
     <use xlink:href="#Inter-Regular-393" transform="translate(308.546875 0)"/>
     <use xlink:href="#Inter-Regular-354" transform="translate(367.671875 0)"/>
     <use xlink:href="#Inter-Regular-1fb" transform="translate(405.3125 0)"/>
     <use xlink:href="#Inter-Regular-5dd" transform="translate(461.46875 0)"/>
     <use xlink:href="#Inter-Regular-6f1" transform="translate(490.28125 0)"/>
     <use xlink:href="#Inter-Regular-255" transform="translate(518.40625 0)"/>
     <use xlink:href="#Inter-Regular-2b1" transform="translate(579.640625 0)"/>
     <use xlink:href="#Inter-Regular-367" transform="translate(603.859375 0)"/>
     <use xlink:href="#Inter-Regular-379" transform="translate(656.640625 0)"/>
     <use xlink:href="#Inter-Regular-1fb" transform="translate(689.84375 0)"/>
     <use xlink:href="#Inter-Regular-305" transform="translate(746 0)"/>
     <use xlink:href="#Inter-Regular-24a" transform="translate(805.078125 0)"/>
     <use xlink:href="#Inter-Regular-2b1" transform="translate(862.203125 0)"/>
     <use xlink:href="#Inter-Regular-1fb" transform="translate(886.421875 0)"/>
     <use xlink:href="#Inter-Regular-59e" transform="translate(942.578125 0)"/>
     <use xlink:href="#Inter-Regular-597" transform="translate(979.046875 0)"/>
    </g>
   </g>
   <g id="text_3">
    <!-- CAPACIDAD  (el menú) -->
    <g style="fill: #184f95" transform="translate(350.6832 18.844145) scale(0.08 -0.08)">
     <defs>
      <path id="Inter-Bold-49" d="M 2456 -63 
Q 1834 -63 1346 218 
Q 859 500 576 1034 
Q 294 1569 294 2325 
Q 294 3084 578 3620 
Q 863 4156 1353 4437 
Q 1844 4719 2456 4719 
Q 2984 4719 3412 4523 
Q 3841 4328 4116 3958 
Q 4391 3588 4459 3066 
L 3494 3066 
Q 3428 3444 3151 3658 
Q 2875 3872 2475 3872 
Q 1931 3872 1597 3469 
Q 1263 3066 1263 2325 
Q 1263 1569 1598 1176 
Q 1934 784 2472 784 
Q 2869 784 3148 998 
Q 3428 1213 3497 1594 
L 4463 1594 
Q 4409 1159 4156 782 
Q 3903 406 3473 171 
Q 3044 -63 2456 -63 
z
" transform="scale(0.015625)"/>
      <path id="Inter-Bold-2" d="M 153 0 
L 1744 4656 
L 2994 4656 
L 4625 0 
L 3566 0 
L 3206 1081 
L 1553 1081 
L 1206 0 
L 153 0 
z
M 1791 1828 
L 2959 1828 
L 2819 2247 
Q 2706 2603 2593 3018 
Q 2481 3434 2359 3909 
Q 2244 3428 2137 3012 
Q 2031 2597 1925 2247 
L 1791 1828 
z
" transform="scale(0.015625)"/>
      <path id="Inter-Bold-177" d="M 422 0 
L 422 4656 
L 2238 4656 
Q 2769 4656 3141 4454 
Q 3513 4253 3708 3898 
Q 3903 3544 3903 3084 
Q 3903 2622 3704 2270 
Q 3506 1919 3128 1720 
Q 2750 1522 2216 1522 
L 1375 1522 
L 1375 0 
L 422 0 
z
M 1375 2291 
L 2063 2291 
Q 2500 2291 2709 2512 
Q 2919 2734 2919 3084 
Q 2919 3438 2709 3653 
Q 2500 3869 2059 3869 
L 1375 3869 
L 1375 2291 
z
" transform="scale(0.015625)"/>
      <path id="Inter-Bold-c5" d="M 1375 4656 
L 1375 0 
L 422 0 
L 422 4656 
L 1375 4656 
z
" transform="scale(0.015625)"/>
      <path id="Inter-Bold-54" d="M 2059 0 
L 422 0 
L 422 4656 
L 2075 4656 
Q 2775 4656 3279 4376 
Q 3784 4097 4056 3576 
Q 4328 3056 4328 2331 
Q 4328 1603 4056 1081 
Q 3784 559 3275 279 
Q 2766 0 2059 0 
z
M 1375 822 
L 2013 822 
Q 2684 822 3031 1184 
Q 3378 1547 3378 2331 
Q 3378 3113 3033 3473 
Q 2688 3834 2019 3834 
L 1375 3834 
L 1375 822 
z
" transform="scale(0.015625)"/>
      <path id="Inter-Bold-6f1" transform="scale(0.015625)"/>
      <path id="Inter-Bold-59d" d="M 528 1897 
Q 528 2413 631 2973 
Q 734 3534 917 4048 
Q 1100 4563 1334 4941 
L 2206 4941 
Q 1978 4456 1817 3931 
Q 1656 3406 1570 2886 
Q 1484 2366 1484 1897 
Q 1484 1488 1557 1073 
Q 1631 659 1790 185 
Q 1950 -288 2206 -872 
L 1334 -872 
Q 938 -216 733 489 
Q 528 1194 528 1897 
z
" transform="scale(0.015625)"/>
      <path id="Inter-Bold-266" d="M 1978 -69 
Q 1444 -69 1056 150 
Q 669 369 461 772 
Q 253 1175 253 1728 
Q 253 2269 461 2675 
Q 669 3081 1045 3309 
Q 1422 3538 1931 3538 
Q 2388 3538 2759 3344 
Q 3131 3150 3351 2756 
Q 3572 2363 3572 1766 
L 3572 1503 
L 1181 1503 
Q 1197 1075 1419 856 
Q 1641 638 1994 638 
Q 2241 638 2417 742 
Q 2594 847 2669 1050 
L 3519 891 
Q 3391 456 2989 193 
Q 2588 -69 1978 -69 
z
M 1188 2091 
L 2669 2091 
Q 2634 2431 2450 2631 
Q 2266 2831 1941 2831 
Q 1603 2831 1409 2623 
Q 1216 2416 1188 2091 
z
" transform="scale(0.015625)"/>
      <path id="Inter-Bold-2e0" d="M 1338 4656 
L 1338 0 
L 400 0 
L 400 4656 
L 1338 4656 
z
" transform="scale(0.015625)"/>
      <path id="Inter-Bold-2fe" d="M 400 0 
L 400 3494 
L 1269 3494 
L 1306 2816 
Q 1447 3197 1719 3372 
Q 1991 3547 2303 3547 
Q 2966 3547 3203 2763 
Q 3350 3166 3658 3356 
Q 3966 3547 4325 3547 
Q 4806 3547 5123 3236 
Q 5441 2925 5441 2356 
L 5441 0 
L 4503 0 
L 4503 2178 
Q 4503 2472 4342 2617 
Q 4181 2763 3947 2763 
Q 3681 2763 3526 2594 
Q 3372 2425 3372 2150 
L 3372 0 
L 2466 0 
L 2466 2203 
Q 2466 2459 2314 2611 
Q 2163 2763 1922 2763 
Q 1675 2763 1506 2595 
Q 1338 2428 1338 2113 
L 1338 0 
L 400 0 
z
" transform="scale(0.015625)"/>
      <path id="Inter-Bold-305" d="M 1338 2022 
L 1338 0 
L 400 0 
L 400 3494 
L 1284 3494 
L 1297 2772 
Q 1444 3138 1712 3338 
Q 1981 3538 2384 3538 
Q 2928 3538 3256 3188 
Q 3584 2838 3584 2222 
L 3584 0 
L 2647 0 
L 2647 2059 
Q 2647 2384 2480 2568 
Q 2313 2753 2016 2753 
Q 1716 2753 1527 2561 
Q 1338 2369 1338 2022 
z
" transform="scale(0.015625)"/>
      <path id="Inter-Bold-39a" d="M 1603 -44 
Q 1059 -44 729 306 
Q 400 656 400 1272 
L 400 3494 
L 1338 3494 
L 1338 1434 
Q 1338 1109 1506 925 
Q 1675 741 1969 741 
Q 2269 741 2458 933 
Q 2647 1125 2647 1472 
L 2647 3494 
L 3588 3494 
L 3588 0 
L 2700 0 
L 2688 725 
Q 2541 353 2270 154 
Q 2000 -44 1603 -44 
z
M 1653 3938 
L 2088 4909 
L 2956 4909 
L 2309 3938 
L 1653 3938 
z
" transform="scale(0.015625)"/>
      <path id="Inter-Bold-59e" d="M 209 -872 
Q 469 -278 626 195 
Q 784 669 856 1081 
Q 928 1494 928 1897 
Q 928 2366 842 2886 
Q 756 3406 595 3931 
Q 434 4456 209 4941 
L 1078 4941 
Q 1316 4563 1497 4048 
Q 1678 3534 1781 2973 
Q 1884 2413 1884 1897 
Q 1884 1191 1678 486 
Q 1472 -219 1078 -872 
L 209 -872 
z
" transform="scale(0.015625)"/>
     </defs>
     <use xlink:href="#Inter-Bold-49"/>
     <use xlink:href="#Inter-Bold-2" transform="translate(71.234375 0)"/>
     <use xlink:href="#Inter-Bold-177" transform="translate(145.890625 0)"/>
     <use xlink:href="#Inter-Bold-2" transform="translate(202.390625 0)"/>
     <use xlink:href="#Inter-Bold-49" transform="translate(272.84375 0)"/>
     <use xlink:href="#Inter-Bold-c5" transform="translate(346.8125 0)"/>
     <use xlink:href="#Inter-Bold-54" transform="translate(374.890625 0)"/>
     <use xlink:href="#Inter-Bold-2" transform="translate(442.90625 0)"/>
     <use xlink:href="#Inter-Bold-54" transform="translate(517.5625 0)"/>
     <use xlink:href="#Inter-Bold-6f1" transform="translate(589.78125 0)"/>
     <use xlink:href="#Inter-Bold-6f1" transform="translate(613.46875 0)"/>
     <use xlink:href="#Inter-Bold-59d" transform="translate(637.15625 0)"/>
     <use xlink:href="#Inter-Bold-266" transform="translate(674.328125 0)"/>
     <use xlink:href="#Inter-Bold-2e0" transform="translate(733.90625 0)"/>
     <use xlink:href="#Inter-Bold-6f1" transform="translate(761 0)"/>
     <use xlink:href="#Inter-Bold-2fe" transform="translate(784.6875 0)"/>
     <use xlink:href="#Inter-Bold-266" transform="translate(875.953125 0)"/>
     <use xlink:href="#Inter-Bold-305" transform="translate(935.53125 0)"/>
     <use xlink:href="#Inter-Bold-39a" transform="translate(997.78125 0)"/>
     <use xlink:href="#Inter-Bold-59e" transform="translate(1060.03125 0)"/>
    </g>
   </g>
   <g id="text_4">
    <!-- Lucía cuida a sus hijos · no fue a votar -->
    <g style="fill: #52514e" transform="translate(350.6832 38.411552) scale(0.069 -0.069)">
     <defs>
      <path id="Inter-Regular-2cf" d="M 491 3494 
L 1056 3494 
L 1056 -250 
Q 1059 -750 800 -1028 
Q 541 -1306 31 -1306 
L -81 -1306 
L -81 -788 
L 22 -788 
Q 491 -788 491 -250 
L 491 3494 
z
M 775 4066 
Q 616 4066 500 4175 
Q 384 4284 384 4438 
Q 384 4594 500 4701 
Q 616 4809 775 4809 
Q 937 4809 1053 4701 
Q 1169 4594 1169 4438 
Q 1169 4284 1053 4175 
Q 937 4066 775 4066 
z
" transform="scale(0.015625)"/>
      <path id="Inter-Regular-5e5" d="M 922 1790 
Q 747 1790 623 1913 
Q 500 2037 500 2212 
Q 500 2387 623 2510 
Q 747 2634 922 2634 
Q 1097 2634 1220 2510 
Q 1344 2387 1344 2212 
Q 1344 2037 1220 1913 
Q 1097 1790 922 1790 
z
" transform="scale(0.015625)"/>
     </defs>
     <use xlink:href="#Inter-Regular-119"/>
     <use xlink:href="#Inter-Regular-393" transform="translate(56.546875 0)"/>
     <use xlink:href="#Inter-Regular-24a" transform="translate(115.671875 0)"/>
     <use xlink:href="#Inter-Regular-2bb" transform="translate(172.796875 0)"/>
     <use xlink:href="#Inter-Regular-1fb" transform="translate(197.015625 0)"/>
     <use xlink:href="#Inter-Regular-6f1" transform="translate(253.171875 0)"/>
     <use xlink:href="#Inter-Regular-24a" transform="translate(281.296875 0)"/>
     <use xlink:href="#Inter-Regular-393" transform="translate(338.421875 0)"/>
     <use xlink:href="#Inter-Regular-2b1" transform="translate(397.546875 0)"/>
     <use xlink:href="#Inter-Regular-255" transform="translate(421.765625 0)"/>
     <use xlink:href="#Inter-Regular-1fb" transform="translate(483 0)"/>
     <use xlink:href="#Inter-Regular-6f1" transform="translate(539.15625 0)"/>
     <use xlink:href="#Inter-Regular-1fb" transform="translate(567.28125 0)"/>
     <use xlink:href="#Inter-Regular-6f1" transform="translate(623.4375 0)"/>
     <use xlink:href="#Inter-Regular-367" transform="translate(651.5625 0)"/>
     <use xlink:href="#Inter-Regular-393" transform="translate(704.34375 0)"/>
     <use xlink:href="#Inter-Regular-367" transform="translate(763.46875 0)"/>
     <use xlink:href="#Inter-Regular-6f1" transform="translate(816.25 0)"/>
     <use xlink:href="#Inter-Regular-29e" transform="translate(844.375 0)"/>
     <use xlink:href="#Inter-Regular-2b1" transform="translate(903.5 0)"/>
     <use xlink:href="#Inter-Regular-2cf" transform="translate(927.71875 0)"/>
     <use xlink:href="#Inter-Regular-316" transform="translate(951.9375 0)"/>
     <use xlink:href="#Inter-Regular-367" transform="translate(1011.90625 0)"/>
     <use xlink:href="#Inter-Regular-6f1" transform="translate(1064.6875 0)"/>
     <use xlink:href="#Inter-Regular-5e5" transform="translate(1092.8125 0)"/>
     <use xlink:href="#Inter-Regular-6f1" transform="translate(1121.625 0)"/>
     <use xlink:href="#Inter-Regular-305" transform="translate(1149.75 0)"/>
     <use xlink:href="#Inter-Regular-316" transform="translate(1208.828125 0)"/>
     <use xlink:href="#Inter-Regular-6f1" transform="translate(1268.796875 0)"/>
     <use xlink:href="#Inter-Regular-287" transform="translate(1296.921875 0)"/>
     <use xlink:href="#Inter-Regular-393" transform="translate(1333.9375 0)"/>
     <use xlink:href="#Inter-Regular-266" transform="translate(1393.0625 0)"/>
     <use xlink:href="#Inter-Regular-6f1" transform="translate(1451.359375 0)"/>
     <use xlink:href="#Inter-Regular-1fb" transform="translate(1479.484375 0)"/>
     <use xlink:href="#Inter-Regular-6f1" transform="translate(1535.640625 0)"/>
     <use xlink:href="#Inter-Regular-3d4" transform="translate(1563.765625 0)"/>
     <use xlink:href="#Inter-Regular-316" transform="translate(1618.015625 0)"/>
     <use xlink:href="#Inter-Regular-379" transform="translate(1677.984375 0)"/>
     <use xlink:href="#Inter-Regular-1fb" transform="translate(1711.1875 0)"/>
     <use xlink:href="#Inter-Regular-354" transform="translate(1767.34375 0)"/>
    </g>
    <!-- · Beyoncé ayuna · Paula · Joaquín -->
    <g style="fill: #52514e" transform="translate(350.6832 48.413318) scale(0.069 -0.069)">
     <defs>
      <path id="Inter-Regular-41" d="M 563 0 
L 563 4656 
L 2213 4656 
Q 2700 4656 3017 4489 
Q 3334 4322 3489 4042 
Q 3644 3763 3644 3422 
Q 3644 3122 3537 2926 
Q 3431 2731 3257 2615 
Q 3084 2500 2881 2444 
L 2881 2400 
Q 3100 2388 3317 2250 
Q 3534 2113 3679 1859 
Q 3825 1606 3825 1241 
Q 3825 891 3664 609 
Q 3503 328 3159 164 
Q 2816 0 2266 0 
L 563 0 
z
M 1156 525 
L 2250 525 
Q 2794 525 3023 734 
Q 3253 944 3253 1247 
Q 3253 1481 3134 1678 
Q 3016 1875 2798 1994 
Q 2581 2113 2281 2113 
L 1156 2113 
L 1156 525 
z
M 1156 2613 
L 2181 2613 
Q 2556 2613 2815 2831 
Q 3075 3050 3075 3409 
Q 3075 3713 2864 3922 
Q 2653 4131 2200 4131 
L 1156 4131 
L 1156 2613 
z
" transform="scale(0.015625)"/>
      <path id="Inter-Regular-26a" d="M 1963 -75 
Q 1456 -75 1089 150 
Q 722 375 523 778 
Q 325 1181 325 1719 
Q 325 2256 519 2665 
Q 713 3075 1067 3306 
Q 1422 3538 1897 3538 
Q 2175 3538 2445 3445 
Q 2716 3353 2936 3148 
Q 3156 2944 3287 2609 
Q 3419 2275 3419 1791 
L 3419 1556 
L 894 1556 
Q 916 1009 1208 717 
Q 1500 425 1966 425 
Q 2275 425 2498 561 
Q 2722 697 2819 963 
L 3363 813 
Q 3241 416 2870 170 
Q 2500 -75 1963 -75 
z
M 897 2031 
L 2847 2031 
Q 2806 2478 2567 2758 
Q 2328 3038 1897 3038 
Q 1597 3038 1380 2897 
Q 1163 2756 1038 2528 
Q 913 2300 897 2031 
z
M 1638 3950 
L 2076 4869 
L 2704 4869 
L 2097 3950 
L 1638 3950 
z
" transform="scale(0.015625)"/>
      <path id="Inter-Regular-177" d="M 563 0 
L 563 4656 
L 2156 4656 
Q 2700 4656 3051 4457 
Q 3403 4259 3573 3925 
Q 3744 3591 3744 3175 
Q 3744 2759 3573 2421 
Q 3403 2084 3053 1884 
Q 2703 1684 2159 1684 
L 1156 1684 
L 1156 0 
L 563 0 
z
M 1156 2206 
L 2131 2206 
Q 2684 2206 2918 2482 
Q 3153 2759 3153 3175 
Q 3153 3588 2918 3861 
Q 2684 4134 2125 4134 
L 1156 4134 
L 1156 2206 
z
" transform="scale(0.015625)"/>
      <path id="Inter-Regular-10a" d="M 1703 -63 
Q 1088 -63 700 300 
Q 313 663 313 1331 
L 313 1581 
L 906 1581 
L 906 1331 
Q 906 906 1125 682 
Q 1344 459 1703 459 
Q 2059 459 2278 682 
Q 2497 906 2497 1331 
L 2497 4656 
L 3091 4656 
L 3091 1331 
Q 3091 663 2705 300 
Q 2319 -63 1703 -63 
z
" transform="scale(0.015625)"/>
     </defs>
     <use xlink:href="#Inter-Regular-5e5"/>
     <use xlink:href="#Inter-Regular-6f1" transform="translate(28.8125 0)"/>
     <use xlink:href="#Inter-Regular-41" transform="translate(56.9375 0)"/>
     <use xlink:href="#Inter-Regular-266" transform="translate(122.375 0)"/>
     <use xlink:href="#Inter-Regular-3e6" transform="translate(178.71875 0)"/>
     <use xlink:href="#Inter-Regular-316" transform="translate(232.96875 0)"/>
     <use xlink:href="#Inter-Regular-305" transform="translate(292.9375 0)"/>
     <use xlink:href="#Inter-Regular-24a" transform="translate(352.015625 0)"/>
     <use xlink:href="#Inter-Regular-26a" transform="translate(409.140625 0)"/>
     <use xlink:href="#Inter-Regular-6f1" transform="translate(467.4375 0)"/>
     <use xlink:href="#Inter-Regular-1fb" transform="translate(495.5625 0)"/>
     <use xlink:href="#Inter-Regular-3e6" transform="translate(550.25 0)"/>
     <use xlink:href="#Inter-Regular-393" transform="translate(606.453125 0)"/>
     <use xlink:href="#Inter-Regular-305" transform="translate(665.578125 0)"/>
     <use xlink:href="#Inter-Regular-1fb" transform="translate(724.65625 0)"/>
     <use xlink:href="#Inter-Regular-6f1" transform="translate(780.8125 0)"/>
     <use xlink:href="#Inter-Regular-5e5" transform="translate(808.9375 0)"/>
     <use xlink:href="#Inter-Regular-6f1" transform="translate(837.75 0)"/>
     <use xlink:href="#Inter-Regular-177" transform="translate(865.875 0)"/>
     <use xlink:href="#Inter-Regular-1fb" transform="translate(929.75 0)"/>
     <use xlink:href="#Inter-Regular-393" transform="translate(985.90625 0)"/>
     <use xlink:href="#Inter-Regular-2e0" transform="translate(1045.03125 0)"/>
     <use xlink:href="#Inter-Regular-1fb" transform="translate(1069.25 0)"/>
     <use xlink:href="#Inter-Regular-6f1" transform="translate(1125.40625 0)"/>
     <use xlink:href="#Inter-Regular-5e5" transform="translate(1153.53125 0)"/>
     <use xlink:href="#Inter-Regular-6f1" transform="translate(1182.34375 0)"/>
     <use xlink:href="#Inter-Regular-10a" transform="translate(1210.46875 0)"/>
     <use xlink:href="#Inter-Regular-316" transform="translate(1267.546875 0)"/>
     <use xlink:href="#Inter-Regular-1fb" transform="translate(1328.5 0)"/>
     <use xlink:href="#Inter-Regular-351" transform="translate(1384.65625 0)"/>
     <use xlink:href="#Inter-Regular-393" transform="translate(1445.890625 0)"/>
     <use xlink:href="#Inter-Regular-2bb" transform="translate(1505.015625 0)"/>
     <use xlink:href="#Inter-Regular-305" transform="translate(1529.234375 0)"/>
    </g>
   </g>
   <g id="text_5">
    <!-- FUNCIONAMIENTO  (el plato) -->
    <g style="fill: #a8431b" transform="translate(350.6832 90.932895) scale(0.08 -0.08)">
     <defs>
      <path id="Inter-Bold-89" d="M 422 0 
L 422 4656 
L 3484 4656 
L 3484 3866 
L 1375 3866 
L 1375 2566 
L 3278 2566 
L 3278 1788 
L 1375 1788 
L 1375 0 
L 422 0 
z
" transform="scale(0.015625)"/>
      <path id="Inter-Bold-1a8" d="M 2344 -66 
Q 1763 -66 1331 146 
Q 900 359 661 742 
Q 422 1125 422 1634 
L 422 4656 
L 1375 4656 
L 1375 1713 
Q 1375 1306 1639 1042 
Q 1903 778 2344 778 
Q 2781 778 3045 1042 
Q 3309 1306 3309 1713 
L 3309 4656 
L 4266 4656 
L 4266 1634 
Q 4266 1125 4023 742 
Q 3781 359 3350 146 
Q 2919 -66 2344 -66 
z
" transform="scale(0.015625)"/>
      <path id="Inter-Bold-12c" d="M 422 0 
L 422 4656 
L 1484 4656 
L 2956 2300 
Q 3094 2072 3241 1798 
Q 3388 1525 3541 1159 
Q 3516 1503 3498 1848 
Q 3481 2194 3481 2422 
L 3481 4656 
L 4456 4656 
L 4456 0 
L 3391 0 
L 2053 2138 
Q 1925 2347 1815 2544 
Q 1706 2741 1592 2964 
Q 1478 3188 1334 3478 
Q 1359 3056 1378 2701 
Q 1397 2347 1397 2141 
L 1397 0 
L 422 0 
z
" transform="scale(0.015625)"/>
      <path id="Inter-Bold-141" d="M 2466 -63 
Q 1850 -63 1358 218 
Q 866 500 580 1034 
Q 294 1569 294 2325 
Q 294 3084 580 3620 
Q 866 4156 1358 4437 
Q 1850 4719 2466 4719 
Q 3084 4719 3575 4437 
Q 4066 4156 4352 3620 
Q 4638 3084 4638 2325 
Q 4638 1566 4352 1033 
Q 4066 500 3575 218 
Q 3084 -63 2466 -63 
z
M 2466 784 
Q 3009 784 3339 1179 
Q 3669 1575 3669 2325 
Q 3669 3078 3339 3475 
Q 3009 3872 2466 3872 
Q 1925 3872 1594 3473 
Q 1263 3075 1263 2325 
Q 1263 1578 1594 1181 
Q 1925 784 2466 784 
z
" transform="scale(0.015625)"/>
      <path id="Inter-Bold-124" d="M 422 0 
L 422 4656 
L 1884 4656 
L 2641 2519 
Q 2688 2372 2747 2134 
Q 2806 1897 2870 1623 
Q 2934 1350 2988 1097 
Q 3041 1347 3103 1620 
Q 3166 1894 3225 2131 
Q 3284 2369 3331 2519 
L 4075 4656 
L 5544 4656 
L 5544 0 
L 4584 0 
L 4584 2197 
Q 4584 2372 4592 2644 
Q 4600 2916 4608 3228 
Q 4616 3541 4619 3834 
Q 4541 3522 4455 3206 
Q 4369 2891 4291 2627 
Q 4213 2363 4156 2197 
L 3384 0 
L 2581 0 
L 1797 2197 
Q 1744 2356 1667 2612 
Q 1591 2869 1503 3176 
Q 1416 3484 1334 3797 
Q 1341 3516 1348 3211 
Q 1356 2906 1362 2639 
Q 1369 2372 1369 2197 
L 1369 0 
L 422 0 
z
" transform="scale(0.015625)"/>
      <path id="Inter-Bold-5f" d="M 422 0 
L 422 4656 
L 3538 4656 
L 3538 3866 
L 1375 3866 
L 1375 2741 
L 3375 2741 
L 3375 1963 
L 1375 1963 
L 1375 791 
L 3544 791 
L 3544 0 
L 422 0 
z
" transform="scale(0.015625)"/>
      <path id="Inter-Bold-19b" d="M 234 3866 
L 234 4656 
L 4038 4656 
L 4038 3866 
L 2616 3866 
L 2616 0 
L 1659 0 
L 1659 3866 
L 234 3866 
z
" transform="scale(0.015625)"/>
      <path id="Inter-Bold-34b" d="M 400 -1306 
L 400 3494 
L 1322 3494 
L 1322 2906 
L 1366 2906 
Q 1428 3044 1548 3191 
Q 1669 3338 1867 3438 
Q 2066 3538 2363 3538 
Q 2750 3538 3072 3338 
Q 3394 3138 3586 2738 
Q 3778 2338 3778 1741 
Q 3778 1159 3590 757 
Q 3403 356 3081 148 
Q 2759 -59 2356 -59 
Q 2072 -59 1875 37 
Q 1678 134 1554 276 
Q 1431 419 1366 559 
L 1338 559 
L 1338 -1306 
L 400 -1306 
z
M 2069 694 
Q 2434 694 2626 987 
Q 2819 1281 2819 1744 
Q 2819 2203 2628 2495 
Q 2438 2788 2069 2788 
Q 1706 2788 1511 2503 
Q 1316 2219 1316 1744 
Q 1316 1269 1512 981 
Q 1709 694 2069 694 
z
" transform="scale(0.015625)"/>
      <path id="Inter-Bold-1fb" d="M 1375 -69 
Q 875 -69 544 195 
Q 213 459 213 978 
Q 213 1369 400 1591 
Q 588 1813 888 1916 
Q 1188 2019 1531 2050 
Q 1981 2094 2179 2142 
Q 2378 2191 2378 2363 
L 2378 2378 
Q 2378 2600 2236 2722 
Q 2094 2844 1831 2844 
Q 1559 2844 1393 2726 
Q 1228 2609 1172 2441 
L 313 2584 
Q 447 3038 848 3288 
Q 1250 3538 1834 3538 
Q 2209 3538 2548 3419 
Q 2888 3300 3102 3039 
Q 3316 2778 3316 2353 
L 3316 0 
L 2428 0 
L 2428 484 
L 2397 484 
Q 2269 241 2016 86 
Q 1763 -69 1375 -69 
z
M 1641 591 
Q 1969 591 2176 781 
Q 2384 972 2384 1250 
L 2384 1628 
Q 2328 1588 2201 1558 
Q 2075 1528 1934 1504 
Q 1794 1481 1691 1469 
Q 1431 1431 1272 1322 
Q 1113 1213 1113 1003 
Q 1113 800 1261 695 
Q 1409 591 1641 591 
z
" transform="scale(0.015625)"/>
      <path id="Inter-Bold-379" d="M 2134 3494 
L 2134 2778 
L 1481 2778 
L 1481 1022 
Q 1481 697 1800 697 
Q 1853 697 1948 711 
Q 2044 725 2097 738 
L 2231 34 
Q 2075 -13 1920 -31 
Q 1766 -50 1625 -50 
Q 1100 -50 822 204 
Q 544 459 544 941 
L 544 2778 
L 63 2778 
L 63 3494 
L 544 3494 
L 544 4325 
L 1481 4325 
L 1481 3494 
L 2134 3494 
z
" transform="scale(0.015625)"/>
      <path id="Inter-Bold-316" d="M 1963 -69 
Q 1438 -69 1053 157 
Q 669 384 461 789 
Q 253 1194 253 1731 
Q 253 2272 461 2678 
Q 669 3084 1053 3311 
Q 1438 3538 1963 3538 
Q 2488 3538 2872 3311 
Q 3256 3084 3464 2678 
Q 3672 2272 3672 1731 
Q 3672 1194 3464 789 
Q 3256 384 2872 157 
Q 2488 -69 1963 -69 
z
M 1963 669 
Q 2338 669 2528 972 
Q 2719 1275 2719 1734 
Q 2719 2197 2528 2498 
Q 2338 2800 1963 2800 
Q 1588 2800 1398 2498 
Q 1209 2197 1209 1734 
Q 1209 1275 1398 972 
Q 1588 669 1963 669 
z
" transform="scale(0.015625)"/>
     </defs>
     <use xlink:href="#Inter-Bold-89"/>
     <use xlink:href="#Inter-Bold-1a8" transform="translate(58.6875 0)"/>
     <use xlink:href="#Inter-Bold-12c" transform="translate(131.875 0)"/>
     <use xlink:href="#Inter-Bold-49" transform="translate(208.09375 0)"/>
     <use xlink:href="#Inter-Bold-c5" transform="translate(282.0625 0)"/>
     <use xlink:href="#Inter-Bold-141" transform="translate(310.140625 0)"/>
     <use xlink:href="#Inter-Bold-12c" transform="translate(387.1875 0)"/>
     <use xlink:href="#Inter-Bold-2" transform="translate(463.40625 0)"/>
     <use xlink:href="#Inter-Bold-124" transform="translate(538.0625 0)"/>
     <use xlink:href="#Inter-Bold-c5" transform="translate(631.234375 0)"/>
     <use xlink:href="#Inter-Bold-5f" transform="translate(659.3125 0)"/>
     <use xlink:href="#Inter-Bold-12c" transform="translate(720.0625 0)"/>
     <use xlink:href="#Inter-Bold-19b" transform="translate(796.28125 0)"/>
     <use xlink:href="#Inter-Bold-141" transform="translate(859.859375 0)"/>
     <use xlink:href="#Inter-Bold-6f1" transform="translate(936.90625 0)"/>
     <use xlink:href="#Inter-Bold-6f1" transform="translate(960.59375 0)"/>
     <use xlink:href="#Inter-Bold-59d" transform="translate(984.28125 0)"/>
     <use xlink:href="#Inter-Bold-266" transform="translate(1021.453125 0)"/>
     <use xlink:href="#Inter-Bold-2e0" transform="translate(1081.03125 0)"/>
     <use xlink:href="#Inter-Bold-6f1" transform="translate(1108.125 0)"/>
     <use xlink:href="#Inter-Bold-34b" transform="translate(1131.8125 0)"/>
     <use xlink:href="#Inter-Bold-2e0" transform="translate(1194.84375 0)"/>
     <use xlink:href="#Inter-Bold-1fb" transform="translate(1221.9375 0)"/>
     <use xlink:href="#Inter-Bold-379" transform="translate(1280 0)"/>
     <use xlink:href="#Inter-Bold-316" transform="translate(1315.65625 0)"/>
     <use xlink:href="#Inter-Bold-59e" transform="translate(1375.71875 0)"/>
    </g>
   </g>
   <g id="text_6">
    <!-- Mariela y Víctor se recibieron · -->
    <g style="fill: #52514e" transform="translate(350.6832 110.754841) scale(0.069 -0.069)">
     <defs>
      <path id="Inter-Regular-124" d="M 563 0 
L 563 4656 
L 1406 4656 
L 2553 1719 
Q 2619 1550 2716 1247 
Q 2813 944 2897 659 
Q 2978 934 3075 1239 
Q 3172 1544 3241 1719 
L 4372 4656 
L 5219 4656 
L 5219 0 
L 4634 0 
L 4634 2659 
Q 4634 2916 4640 3287 
Q 4647 3659 4656 4022 
Q 4528 3622 4398 3244 
Q 4269 2866 4188 2659 
L 3147 0 
L 2631 0 
L 1575 2659 
Q 1497 2856 1370 3229 
Q 1244 3603 1106 4013 
Q 1113 3681 1120 3304 
Q 1128 2928 1128 2659 
L 1128 0 
L 563 0 
z
" transform="scale(0.015625)"/>
     </defs>
     <use xlink:href="#Inter-Regular-124"/>
     <use xlink:href="#Inter-Regular-1fb" transform="translate(90.328125 0)"/>
     <use xlink:href="#Inter-Regular-354" transform="translate(146.484375 0)"/>
     <use xlink:href="#Inter-Regular-2b1" transform="translate(185.109375 0)"/>
     <use xlink:href="#Inter-Regular-266" transform="translate(209.328125 0)"/>
     <use xlink:href="#Inter-Regular-2e0" transform="translate(267.625 0)"/>
     <use xlink:href="#Inter-Regular-1fb" transform="translate(291.84375 0)"/>
     <use xlink:href="#Inter-Regular-6f1" transform="translate(348 0)"/>
     <use xlink:href="#Inter-Regular-3e6" transform="translate(376.125 0)"/>
     <use xlink:href="#Inter-Regular-6f1" transform="translate(432.328125 0)"/>
     <use xlink:href="#Inter-Regular-1c8" transform="translate(460.453125 0)"/>
     <use xlink:href="#Inter-Regular-2bb" transform="translate(529.453125 0)"/>
     <use xlink:href="#Inter-Regular-24a" transform="translate(553.671875 0)"/>
     <use xlink:href="#Inter-Regular-379" transform="translate(610.796875 0)"/>
     <use xlink:href="#Inter-Regular-316" transform="translate(642.546875 0)"/>
     <use xlink:href="#Inter-Regular-354" transform="translate(702.515625 0)"/>
     <use xlink:href="#Inter-Regular-6f1" transform="translate(740.15625 0)"/>
     <use xlink:href="#Inter-Regular-367" transform="translate(768.28125 0)"/>
     <use xlink:href="#Inter-Regular-266" transform="translate(821.0625 0)"/>
     <use xlink:href="#Inter-Regular-6f1" transform="translate(879.359375 0)"/>
     <use xlink:href="#Inter-Regular-354" transform="translate(907.484375 0)"/>
     <use xlink:href="#Inter-Regular-266" transform="translate(943.46875 0)"/>
     <use xlink:href="#Inter-Regular-24a" transform="translate(1001.765625 0)"/>
     <use xlink:href="#Inter-Regular-2b1" transform="translate(1058.890625 0)"/>
     <use xlink:href="#Inter-Regular-242" transform="translate(1083.109375 0)"/>
     <use xlink:href="#Inter-Regular-2b1" transform="translate(1144.34375 0)"/>
     <use xlink:href="#Inter-Regular-266" transform="translate(1168.5625 0)"/>
     <use xlink:href="#Inter-Regular-354" transform="translate(1226.859375 0)"/>
     <use xlink:href="#Inter-Regular-316" transform="translate(1262.84375 0)"/>
     <use xlink:href="#Inter-Regular-305" transform="translate(1322.8125 0)"/>
     <use xlink:href="#Inter-Regular-6f1" transform="translate(1381.890625 0)"/>
     <use xlink:href="#Inter-Regular-5e5" transform="translate(1410.015625 0)"/>
    </g>
    <!-- transportista · Carlos (sobrepeso) -->
    <g style="fill: #52514e" transform="translate(350.6832 120.825607) scale(0.069 -0.069)">
     <defs>
      <path id="Inter-Regular-49" d="M 2447 -63 
Q 1850 -63 1383 226 
Q 916 516 648 1052 
Q 381 1588 381 2325 
Q 381 3066 648 3602 
Q 916 4138 1383 4428 
Q 1850 4719 2447 4719 
Q 2919 4719 3314 4536 
Q 3709 4353 3976 4012 
Q 4244 3672 4325 3191 
L 3731 3191 
Q 3666 3509 3477 3728 
Q 3288 3947 3019 4058 
Q 2750 4169 2447 4169 
Q 2028 4169 1690 3956 
Q 1353 3744 1156 3333 
Q 959 2922 959 2325 
Q 959 1731 1157 1320 
Q 1356 909 1693 698 
Q 2031 488 2447 488 
Q 2753 488 3020 600 
Q 3288 713 3477 931 
Q 3666 1150 3731 1466 
L 4325 1466 
Q 4244 994 3980 650 
Q 3716 306 3320 121 
Q 2925 -63 2447 -63 
z
" transform="scale(0.015625)"/>
     </defs>
     <use xlink:href="#Inter-Regular-379"/>
     <use xlink:href="#Inter-Regular-354" transform="translate(32.71875 0)"/>
     <use xlink:href="#Inter-Regular-1fb" transform="translate(70.359375 0)"/>
     <use xlink:href="#Inter-Regular-305" transform="translate(126.515625 0)"/>
     <use xlink:href="#Inter-Regular-367" transform="translate(185.59375 0)"/>
     <use xlink:href="#Inter-Regular-34b" transform="translate(238.375 0)"/>
     <use xlink:href="#Inter-Regular-316" transform="translate(299.609375 0)"/>
     <use xlink:href="#Inter-Regular-354" transform="translate(359.578125 0)"/>
     <use xlink:href="#Inter-Regular-379" transform="translate(398.78125 0)"/>
     <use xlink:href="#Inter-Regular-2b1" transform="translate(431.5 0)"/>
     <use xlink:href="#Inter-Regular-367" transform="translate(455.71875 0)"/>
     <use xlink:href="#Inter-Regular-379" transform="translate(508.5 0)"/>
     <use xlink:href="#Inter-Regular-1fb" transform="translate(541.703125 0)"/>
     <use xlink:href="#Inter-Regular-6f1" transform="translate(597.859375 0)"/>
     <use xlink:href="#Inter-Regular-5e5" transform="translate(625.984375 0)"/>
     <use xlink:href="#Inter-Regular-6f1" transform="translate(654.796875 0)"/>
     <use xlink:href="#Inter-Regular-49" transform="translate(682.921875 0)"/>
     <use xlink:href="#Inter-Regular-1fb" transform="translate(755.96875 0)"/>
     <use xlink:href="#Inter-Regular-354" transform="translate(812.125 0)"/>
     <use xlink:href="#Inter-Regular-2e0" transform="translate(851.328125 0)"/>
     <use xlink:href="#Inter-Regular-316" transform="translate(875.546875 0)"/>
     <use xlink:href="#Inter-Regular-367" transform="translate(935.515625 0)"/>
     <use xlink:href="#Inter-Regular-6f1" transform="translate(988.296875 0)"/>
     <use xlink:href="#Inter-Regular-59d" transform="translate(1016.421875 0)"/>
     <use xlink:href="#Inter-Regular-367" transform="translate(1052.890625 0)"/>
     <use xlink:href="#Inter-Regular-316" transform="translate(1105.671875 0)"/>
     <use xlink:href="#Inter-Regular-242" transform="translate(1165.640625 0)"/>
     <use xlink:href="#Inter-Regular-354" transform="translate(1226.875 0)"/>
     <use xlink:href="#Inter-Regular-266" transform="translate(1262.859375 0)"/>
     <use xlink:href="#Inter-Regular-34b" transform="translate(1321.15625 0)"/>
     <use xlink:href="#Inter-Regular-266" transform="translate(1382.390625 0)"/>
     <use xlink:href="#Inter-Regular-367" transform="translate(1440.6875 0)"/>
     <use xlink:href="#Inter-Regular-316" transform="translate(1493.46875 0)"/>
     <use xlink:href="#Inter-Regular-59e" transform="translate(1552.3125 0)"/>
    </g>
   </g>
   <g id="text_7">
    <!-- FUNCIONAMIENTO por -->
    <g style="fill: #a82b2a" transform="translate(350.6832 163.154145) scale(0.08 -0.08)">
     <defs>
      <path id="Inter-Bold-354" d="M 400 0 
L 400 3494 
L 1306 3494 
L 1306 2884 
L 1344 2884 
Q 1441 3206 1667 3373 
Q 1894 3541 2188 3541 
Q 2347 3541 2491 3509 
L 2491 2672 
Q 2428 2691 2308 2705 
Q 2188 2719 2084 2719 
Q 1759 2719 1548 2516 
Q 1338 2313 1338 1988 
L 1338 0 
L 400 0 
z
" transform="scale(0.015625)"/>
     </defs>
     <use xlink:href="#Inter-Bold-89"/>
     <use xlink:href="#Inter-Bold-1a8" transform="translate(58.6875 0)"/>
     <use xlink:href="#Inter-Bold-12c" transform="translate(131.875 0)"/>
     <use xlink:href="#Inter-Bold-49" transform="translate(208.09375 0)"/>
     <use xlink:href="#Inter-Bold-c5" transform="translate(282.0625 0)"/>
     <use xlink:href="#Inter-Bold-141" transform="translate(310.140625 0)"/>
     <use xlink:href="#Inter-Bold-12c" transform="translate(387.1875 0)"/>
     <use xlink:href="#Inter-Bold-2" transform="translate(463.40625 0)"/>
     <use xlink:href="#Inter-Bold-124" transform="translate(538.0625 0)"/>
     <use xlink:href="#Inter-Bold-c5" transform="translate(631.234375 0)"/>
     <use xlink:href="#Inter-Bold-5f" transform="translate(659.3125 0)"/>
     <use xlink:href="#Inter-Bold-12c" transform="translate(720.0625 0)"/>
     <use xlink:href="#Inter-Bold-19b" transform="translate(796.28125 0)"/>
     <use xlink:href="#Inter-Bold-141" transform="translate(859.859375 0)"/>
     <use xlink:href="#Inter-Bold-6f1" transform="translate(936.90625 0)"/>
     <use xlink:href="#Inter-Bold-34b" transform="translate(960.59375 0)"/>
     <use xlink:href="#Inter-Bold-316" transform="translate(1023.625 0)"/>
     <use xlink:href="#Inter-Bold-354" transform="translate(1084.953125 0)"/>
    </g>
    <!-- PRIVACIÓN de capacidad -->
    <g style="fill: #a82b2a" transform="translate(350.6832 175.131411) scale(0.08 -0.08)">
     <defs>
      <path id="Inter-Bold-180" d="M 422 0 
L 422 4656 
L 2238 4656 
Q 3031 4656 3467 4242 
Q 3903 3828 3903 3141 
Q 3903 2663 3690 2323 
Q 3478 1984 3078 1816 
L 4069 0 
L 3013 0 
L 2125 1663 
L 1375 1663 
L 1375 0 
L 422 0 
z
M 1375 2434 
L 2063 2434 
Q 2919 2434 2919 3141 
Q 2919 3494 2708 3681 
Q 2497 3869 2059 3869 
L 1375 3869 
L 1375 2434 
z
" transform="scale(0.015625)"/>
      <path id="Inter-Bold-1c8" d="M 1784 0 
L 153 4656 
L 1213 4656 
L 1956 2409 
Q 2069 2059 2181 1650 
Q 2294 1241 2413 769 
Q 2531 1244 2639 1650 
Q 2747 2056 2853 2409 
L 3572 4656 
L 4625 4656 
L 3031 0 
L 1784 0 
z
" transform="scale(0.015625)"/>
      <path id="Inter-Bold-147" d="M 2466 -63 
Q 1850 -63 1358 218 
Q 866 500 580 1034 
Q 294 1569 294 2325 
Q 294 3084 580 3620 
Q 866 4156 1358 4437 
Q 1850 4719 2466 4719 
Q 3084 4719 3575 4437 
Q 4066 4156 4352 3620 
Q 4638 3084 4638 2325 
Q 4638 1566 4352 1033 
Q 4066 500 3575 218 
Q 3084 -63 2466 -63 
z
M 2466 784 
Q 3009 784 3339 1179 
Q 3669 1575 3669 2325 
Q 3669 3078 3339 3475 
Q 3009 3872 2466 3872 
Q 1925 3872 1594 3473 
Q 1263 3075 1263 2325 
Q 1263 1578 1594 1181 
Q 1925 784 2466 784 
z
M 2128 5101 
L 2563 6072 
L 3431 6072 
L 2784 5101 
L 2128 5101 
z
" transform="scale(0.015625)"/>
      <path id="Inter-Bold-255" d="M 1678 -59 
Q 1275 -59 953 148 
Q 631 356 442 757 
Q 253 1159 253 1741 
Q 253 2338 447 2738 
Q 641 3138 962 3338 
Q 1284 3538 1672 3538 
Q 1969 3538 2166 3438 
Q 2363 3338 2483 3191 
Q 2603 3044 2666 2906 
L 2697 2906 
L 2697 4656 
L 3634 4656 
L 3634 0 
L 2713 0 
L 2713 559 
L 2666 559 
Q 2600 419 2478 276 
Q 2356 134 2159 37 
Q 1963 -59 1678 -59 
z
M 1966 694 
Q 2322 694 2519 981 
Q 2716 1269 2716 1744 
Q 2716 2219 2520 2503 
Q 2325 2788 1966 2788 
Q 1597 2788 1406 2495 
Q 1216 2203 1216 1744 
Q 1216 1281 1408 987 
Q 1600 694 1966 694 
z
" transform="scale(0.015625)"/>
      <path id="Inter-Bold-24a" d="M 1963 -69 
Q 1434 -69 1051 157 
Q 669 384 461 789 
Q 253 1194 253 1731 
Q 253 2272 461 2678 
Q 669 3084 1051 3311 
Q 1434 3538 1963 3538 
Q 2584 3538 3000 3227 
Q 3416 2916 3516 2375 
L 2644 2213 
Q 2584 2484 2414 2642 
Q 2244 2800 1972 2800 
Q 1597 2800 1403 2504 
Q 1209 2209 1209 1734 
Q 1209 1266 1403 967 
Q 1597 669 1972 669 
Q 2244 669 2419 833 
Q 2594 997 2650 1278 
L 3522 1119 
Q 3422 566 3006 248 
Q 2591 -69 1963 -69 
z
" transform="scale(0.015625)"/>
      <path id="Inter-Bold-2b1" d="M 400 0 
L 400 3494 
L 1338 3494 
L 1338 0 
L 400 0 
z
M 869 3950 
Q 656 3950 506 4090 
Q 356 4231 356 4431 
Q 356 4631 506 4772 
Q 656 4913 869 4913 
Q 1081 4913 1232 4772 
Q 1384 4631 1384 4431 
Q 1384 4231 1232 4090 
Q 1081 3950 869 3950 
z
" transform="scale(0.015625)"/>
     </defs>
     <use xlink:href="#Inter-Bold-177"/>
     <use xlink:href="#Inter-Bold-180" transform="translate(64.796875 0)"/>
     <use xlink:href="#Inter-Bold-c5" transform="translate(130.46875 0)"/>
     <use xlink:href="#Inter-Bold-1c8" transform="translate(158.546875 0)"/>
     <use xlink:href="#Inter-Bold-2" transform="translate(225.296875 0)"/>
     <use xlink:href="#Inter-Bold-49" transform="translate(295.75 0)"/>
     <use xlink:href="#Inter-Bold-c5" transform="translate(369.71875 0)"/>
     <use xlink:href="#Inter-Bold-147" transform="translate(397.796875 0)"/>
     <use xlink:href="#Inter-Bold-12c" transform="translate(474.84375 0)"/>
     <use xlink:href="#Inter-Bold-6f1" transform="translate(551.0625 0)"/>
     <use xlink:href="#Inter-Bold-255" transform="translate(574.75 0)"/>
     <use xlink:href="#Inter-Bold-266" transform="translate(637.78125 0)"/>
     <use xlink:href="#Inter-Bold-6f1" transform="translate(697.359375 0)"/>
     <use xlink:href="#Inter-Bold-24a" transform="translate(721.046875 0)"/>
     <use xlink:href="#Inter-Bold-1fb" transform="translate(780.875 0)"/>
     <use xlink:href="#Inter-Bold-34b" transform="translate(838.9375 0)"/>
     <use xlink:href="#Inter-Bold-1fb" transform="translate(902.953125 0)"/>
     <use xlink:href="#Inter-Bold-24a" transform="translate(961.015625 0)"/>
     <use xlink:href="#Inter-Bold-2b1" transform="translate(1019.859375 0)"/>
     <use xlink:href="#Inter-Bold-255" transform="translate(1046.953125 0)"/>
     <use xlink:href="#Inter-Bold-1fb" transform="translate(1109.984375 0)"/>
     <use xlink:href="#Inter-Bold-255" transform="translate(1168.046875 0)"/>
    </g>
   </g>
   <g id="text_8">
    <!-- Jorge · Manuel · niño de 30 km · -->
    <g style="fill: #52514e" transform="translate(350.6832 194.150745) scale(0.069 -0.069)">
     <defs>
      <path id="Inter-Regular-306" d="M 1056 2094 
L 1056 0 
L 494 0 
L 494 3494 
L 1034 3494 
L 1038 2847 
Q 1206 3219 1479 3378 
Q 1753 3538 2106 3538 
Q 2638 3538 2963 3209 
Q 3288 2881 3288 2219 
L 3288 0 
L 2725 0 
L 2725 2172 
Q 2725 2575 2514 2803 
Q 2303 3031 1938 3031 
Q 1559 3031 1307 2786 
Q 1056 2541 1056 2094 
z
M 2300 4103 
Q 2147 4103 2001 4168 
Q 1856 4234 1739 4298 
Q 1622 4363 1541 4363 
Q 1459 4363 1420 4284 
Q 1381 4206 1375 4116 
L 981 4116 
Q 991 4397 1114 4581 
Q 1238 4766 1488 4766 
Q 1650 4766 1781 4700 
Q 1913 4634 2025 4567 
Q 2138 4500 2241 4500 
Q 2384 4500 2416 4753 
L 2800 4753 
Q 2791 4459 2661 4281 
Q 2531 4103 2300 4103 
z
" transform="scale(0.015625)"/>
      <path id="Inter-Regular-541" d="M 1984 -63 
Q 1528 -63 1175 93 
Q 822 250 614 528 
Q 406 806 391 1175 
L 991 1175 
Q 1016 844 1297 651 
Q 1578 459 1975 459 
Q 2413 459 2698 684 
Q 2984 909 2984 1272 
Q 2984 1650 2703 1889 
Q 2422 2128 1903 2128 
L 1525 2128 
L 1525 2644 
L 1903 2644 
Q 2313 2644 2567 2861 
Q 2822 3078 2822 3438 
Q 2822 3784 2597 3993 
Q 2372 4203 1991 4203 
Q 1753 4203 1545 4117 
Q 1338 4031 1205 3872 
Q 1072 3713 1063 3484 
L 491 3484 
Q 503 3850 709 4128 
Q 916 4406 1255 4562 
Q 1594 4719 2003 4719 
Q 2438 4719 2752 4544 
Q 3066 4369 3234 4084 
Q 3403 3800 3403 3469 
Q 3403 3075 3195 2800 
Q 2988 2525 2631 2419 
L 2631 2381 
Q 3078 2309 3325 2007 
Q 3572 1706 3572 1266 
Q 3572 884 3365 584 
Q 3159 284 2800 110 
Q 2441 -63 1984 -63 
z
" transform="scale(0.015625)"/>
      <path id="Inter-Regular-53d" d="M 2019 -63 
Q 1241 -63 811 562 
Q 381 1188 381 2325 
Q 381 3456 814 4087 
Q 1247 4719 2019 4719 
Q 2794 4719 3225 4087 
Q 3656 3456 3656 2325 
Q 3656 1188 3228 562 
Q 2800 -63 2019 -63 
z
M 2019 456 
Q 2531 456 2807 948 
Q 3084 1441 3084 2325 
Q 3084 3216 2807 3709 
Q 2531 4203 2019 4203 
Q 1509 4203 1231 3708 
Q 953 3213 953 2325 
Q 953 1441 1231 948 
Q 1509 456 2019 456 
z
" transform="scale(0.015625)"/>
      <path id="Inter-Regular-2d7" d="M 494 0 
L 494 4656 
L 1056 4656 
L 1056 1953 
L 1125 1953 
L 2619 3494 
L 3316 3494 
L 1853 1994 
L 3425 0 
L 2703 0 
L 1425 1634 
L 1056 1288 
L 1056 0 
L 494 0 
z
" transform="scale(0.015625)"/>
     </defs>
     <use xlink:href="#Inter-Regular-10a"/>
     <use xlink:href="#Inter-Regular-316" transform="translate(57.078125 0)"/>
     <use xlink:href="#Inter-Regular-354" transform="translate(117.046875 0)"/>
     <use xlink:href="#Inter-Regular-292" transform="translate(153.03125 0)"/>
     <use xlink:href="#Inter-Regular-266" transform="translate(214.359375 0)"/>
     <use xlink:href="#Inter-Regular-6f1" transform="translate(272.65625 0)"/>
     <use xlink:href="#Inter-Regular-5e5" transform="translate(300.78125 0)"/>
     <use xlink:href="#Inter-Regular-6f1" transform="translate(329.59375 0)"/>
     <use xlink:href="#Inter-Regular-124" transform="translate(357.71875 0)"/>
     <use xlink:href="#Inter-Regular-1fb" transform="translate(448.046875 0)"/>
     <use xlink:href="#Inter-Regular-305" transform="translate(504.203125 0)"/>
     <use xlink:href="#Inter-Regular-393" transform="translate(563.28125 0)"/>
     <use xlink:href="#Inter-Regular-266" transform="translate(622.40625 0)"/>
     <use xlink:href="#Inter-Regular-2e0" transform="translate(680.703125 0)"/>
     <use xlink:href="#Inter-Regular-6f1" transform="translate(704.921875 0)"/>
     <use xlink:href="#Inter-Regular-5e5" transform="translate(733.046875 0)"/>
     <use xlink:href="#Inter-Regular-6f1" transform="translate(761.859375 0)"/>
     <use xlink:href="#Inter-Regular-305" transform="translate(789.984375 0)"/>
     <use xlink:href="#Inter-Regular-2b1" transform="translate(849.0625 0)"/>
     <use xlink:href="#Inter-Regular-306" transform="translate(873.28125 0)"/>
     <use xlink:href="#Inter-Regular-316" transform="translate(932.359375 0)"/>
     <use xlink:href="#Inter-Regular-6f1" transform="translate(992.328125 0)"/>
     <use xlink:href="#Inter-Regular-255" transform="translate(1020.453125 0)"/>
     <use xlink:href="#Inter-Regular-266" transform="translate(1081.6875 0)"/>
     <use xlink:href="#Inter-Regular-6f1" transform="translate(1139.984375 0)"/>
     <use xlink:href="#Inter-Regular-541" transform="translate(1168.109375 0)"/>
     <use xlink:href="#Inter-Regular-53d" transform="translate(1229.875 0)"/>
     <use xlink:href="#Inter-Regular-6f1" transform="translate(1292.96875 0)"/>
     <use xlink:href="#Inter-Regular-2d7" transform="translate(1321.09375 0)"/>
     <use xlink:href="#Inter-Regular-2fe" transform="translate(1375.984375 0)"/>
     <use xlink:href="#Inter-Regular-6f1" transform="translate(1463.578125 0)"/>
     <use xlink:href="#Inter-Regular-5e5" transform="translate(1491.703125 0)"/>
    </g>
    <!-- trabajo no registrado  (decilo: suma) -->
    <g style="fill: #52514e" transform="translate(350.6832 204.240377) scale(0.069 -0.069)">
     <defs>
      <path id="Inter-Regular-5e1" d="M 922 -41 
Q 747 -41 623 82 
Q 500 206 500 381 
Q 500 556 623 679 
Q 747 803 922 803 
Q 1097 803 1220 679 
Q 1344 556 1344 381 
Q 1344 206 1220 82 
Q 1097 -41 922 -41 
z
M 922 2487 
Q 747 2487 623 2610 
Q 500 2734 500 2909 
Q 500 3084 623 3207 
Q 747 3331 922 3331 
Q 1097 3331 1220 3207 
Q 1344 3084 1344 2909 
Q 1344 2734 1220 2610 
Q 1097 2487 922 2487 
z
" transform="scale(0.015625)"/>
     </defs>
     <use xlink:href="#Inter-Regular-379"/>
     <use xlink:href="#Inter-Regular-354" transform="translate(32.71875 0)"/>
     <use xlink:href="#Inter-Regular-1fb" transform="translate(70.359375 0)"/>
     <use xlink:href="#Inter-Regular-242" transform="translate(126.515625 0)"/>
     <use xlink:href="#Inter-Regular-1fb" transform="translate(188.734375 0)"/>
     <use xlink:href="#Inter-Regular-2cf" transform="translate(244.890625 0)"/>
     <use xlink:href="#Inter-Regular-316" transform="translate(269.109375 0)"/>
     <use xlink:href="#Inter-Regular-6f1" transform="translate(329.078125 0)"/>
     <use xlink:href="#Inter-Regular-305" transform="translate(357.203125 0)"/>
     <use xlink:href="#Inter-Regular-316" transform="translate(416.28125 0)"/>
     <use xlink:href="#Inter-Regular-6f1" transform="translate(476.25 0)"/>
     <use xlink:href="#Inter-Regular-354" transform="translate(504.375 0)"/>
     <use xlink:href="#Inter-Regular-266" transform="translate(540.359375 0)"/>
     <use xlink:href="#Inter-Regular-292" transform="translate(598.65625 0)"/>
     <use xlink:href="#Inter-Regular-2b1" transform="translate(659.984375 0)"/>
     <use xlink:href="#Inter-Regular-367" transform="translate(684.203125 0)"/>
     <use xlink:href="#Inter-Regular-379" transform="translate(736.984375 0)"/>
     <use xlink:href="#Inter-Regular-354" transform="translate(769.703125 0)"/>
     <use xlink:href="#Inter-Regular-1fb" transform="translate(807.34375 0)"/>
     <use xlink:href="#Inter-Regular-255" transform="translate(863.5 0)"/>
     <use xlink:href="#Inter-Regular-316" transform="translate(924.734375 0)"/>
     <use xlink:href="#Inter-Regular-6f1" transform="translate(984.703125 0)"/>
     <use xlink:href="#Inter-Regular-6f1" transform="translate(1012.828125 0)"/>
     <use xlink:href="#Inter-Regular-59d" transform="translate(1040.953125 0)"/>
     <use xlink:href="#Inter-Regular-255" transform="translate(1076.296875 0)"/>
     <use xlink:href="#Inter-Regular-266" transform="translate(1137.53125 0)"/>
     <use xlink:href="#Inter-Regular-24a" transform="translate(1195.828125 0)"/>
     <use xlink:href="#Inter-Regular-2b1" transform="translate(1252.953125 0)"/>
     <use xlink:href="#Inter-Regular-2e0" transform="translate(1277.171875 0)"/>
     <use xlink:href="#Inter-Regular-316" transform="translate(1301.390625 0)"/>
     <use xlink:href="#Inter-Regular-5e1" transform="translate(1361.359375 0)"/>
     <use xlink:href="#Inter-Regular-6f1" transform="translate(1390.171875 0)"/>
     <use xlink:href="#Inter-Regular-367" transform="translate(1418.296875 0)"/>
     <use xlink:href="#Inter-Regular-393" transform="translate(1471.078125 0)"/>
     <use xlink:href="#Inter-Regular-2fe" transform="translate(1530.203125 0)"/>
     <use xlink:href="#Inter-Regular-1fb" transform="translate(1617.796875 0)"/>
     <use xlink:href="#Inter-Regular-59e" transform="translate(1673.953125 0)"/>
    </g>
   </g>
   <g id="text_9">
    <!-- Sí -->
    <g style="fill: #184f95" transform="translate(246.548297 32.39487) scale(0.082 -0.082)">
     <defs>
      <path id="Inter-Bold-18d" d="M 2128 -69 
Q 1288 -69 786 317 
Q 284 703 266 1444 
L 1194 1444 
Q 1219 1091 1476 914 
Q 1734 738 2119 738 
Q 2500 738 2733 902 
Q 2966 1066 2966 1331 
Q 2966 1572 2755 1700 
Q 2544 1828 2163 1922 
L 1650 2050 
Q 1059 2194 725 2501 
Q 391 2809 391 3316 
Q 391 3738 617 4053 
Q 844 4369 1239 4544 
Q 1634 4719 2141 4719 
Q 2656 4719 3040 4542 
Q 3425 4366 3640 4052 
Q 3856 3738 3863 3328 
L 2941 3328 
Q 2916 3609 2702 3762 
Q 2488 3916 2131 3916 
Q 1766 3916 1567 3764 
Q 1369 3613 1369 3378 
Q 1369 3119 1592 2991 
Q 1816 2863 2113 2791 
L 2534 2688 
Q 2925 2597 3240 2426 
Q 3556 2256 3740 1986 
Q 3925 1716 3925 1325 
Q 3925 691 3451 311 
Q 2978 -69 2128 -69 
z
" transform="scale(0.015625)"/>
      <path id="Inter-Bold-2bb" d="M 400 0 
L 400 3494 
L 1338 3494 
L 1338 0 
L 400 0 
z
M 528 3938 
L 963 4909 
L 1831 4909 
L 1184 3938 
L 528 3938 
z
" transform="scale(0.015625)"/>
     </defs>
     <use xlink:href="#Inter-Bold-18d"/>
     <use xlink:href="#Inter-Bold-2bb" transform="translate(65.484375 0)"/>
    </g>
   </g>
   <g id="text_10">
    <!-- No: describe un -->
    <g style="fill: #52514e" transform="translate(92.1168 140.163039) scale(0.074 -0.074)">
     <use xlink:href="#Inter-Regular-12c"/>
     <use xlink:href="#Inter-Regular-316" transform="translate(75.34375 0)"/>
     <use xlink:href="#Inter-Regular-5e1" transform="translate(135.3125 0)"/>
     <use xlink:href="#Inter-Regular-6f1" transform="translate(164.125 0)"/>
     <use xlink:href="#Inter-Regular-255" transform="translate(192.25 0)"/>
     <use xlink:href="#Inter-Regular-266" transform="translate(253.484375 0)"/>
     <use xlink:href="#Inter-Regular-367" transform="translate(311.78125 0)"/>
     <use xlink:href="#Inter-Regular-24a" transform="translate(364.5625 0)"/>
     <use xlink:href="#Inter-Regular-354" transform="translate(421.6875 0)"/>
     <use xlink:href="#Inter-Regular-2b1" transform="translate(460.3125 0)"/>
     <use xlink:href="#Inter-Regular-242" transform="translate(484.53125 0)"/>
     <use xlink:href="#Inter-Regular-266" transform="translate(545.765625 0)"/>
     <use xlink:href="#Inter-Regular-6f1" transform="translate(604.0625 0)"/>
     <use xlink:href="#Inter-Regular-393" transform="translate(632.1875 0)"/>
     <use xlink:href="#Inter-Regular-305" transform="translate(691.3125 0)"/>
    </g>
    <!-- logro o un estado -->
    <g style="fill: #52514e" transform="translate(92.1168 149.11675) scale(0.074 -0.074)">
     <use xlink:href="#Inter-Regular-2e0"/>
     <use xlink:href="#Inter-Regular-316" transform="translate(24.21875 0)"/>
     <use xlink:href="#Inter-Regular-292" transform="translate(84.1875 0)"/>
     <use xlink:href="#Inter-Regular-354" transform="translate(145.515625 0)"/>
     <use xlink:href="#Inter-Regular-316" transform="translate(181.5 0)"/>
     <use xlink:href="#Inter-Regular-6f1" transform="translate(241.46875 0)"/>
     <use xlink:href="#Inter-Regular-316" transform="translate(269.59375 0)"/>
     <use xlink:href="#Inter-Regular-6f1" transform="translate(329.5625 0)"/>
     <use xlink:href="#Inter-Regular-393" transform="translate(357.6875 0)"/>
     <use xlink:href="#Inter-Regular-305" transform="translate(416.8125 0)"/>
     <use xlink:href="#Inter-Regular-6f1" transform="translate(475.890625 0)"/>
     <use xlink:href="#Inter-Regular-266" transform="translate(504.015625 0)"/>
     <use xlink:href="#Inter-Regular-367" transform="translate(562.3125 0)"/>
     <use xlink:href="#Inter-Regular-379" transform="translate(615.09375 0)"/>
     <use xlink:href="#Inter-Regular-1fb" transform="translate(648.296875 0)"/>
     <use xlink:href="#Inter-Regular-255" transform="translate(704.453125 0)"/>
     <use xlink:href="#Inter-Regular-316" transform="translate(765.6875 0)"/>
    </g>
   </g>
   <g id="text_11">
    <!-- No -->
    <g style="fill: #a8431b" transform="translate(330.4224 151.056602) scale(0.078 -0.078)">
     <use xlink:href="#Inter-Bold-12c"/>
     <use xlink:href="#Inter-Bold-316" transform="translate(76.21875 0)"/>
    </g>
   </g>
   <g id="text_12">
    <!-- Sí -->
    <g style="fill: #a82b2a" transform="translate(326.329453 177.211355) scale(0.078 -0.078)">
     <use xlink:href="#Inter-Bold-18d"/>
     <use xlink:href="#Inter-Bold-2bb" transform="translate(65.484375 0)"/>
    </g>
   </g>
  </g>
 </g>
 <defs>
  <clipPath id="pcc19663674">
   <rect x="4.32" y="4.32" width="482.4" height="212.4"/>
  </clipPath>
 </defs>
</svg>
