<?xml version="1.0" encoding="utf-8" standalone="no"?>
<!DOCTYPE svg PUBLIC "-//W3C//DTD SVG 1.1//EN"
  "http://www.w3.org/Graphics/SVG/1.1/DTD/svg11.dtd">
<svg xmlns:xlink="http://www.w3.org/1999/xlink" width="379.2154pt" height="265.379539pt" viewBox="0 0 379.2154 265.379539" xmlns="http://www.w3.org/2000/svg" version="1.1">
 <metadata>
  <rdf:RDF xmlns:dc="http://purl.org/dc/elements/1.1/" xmlns:cc="http://creativecommons.org/ns#" xmlns:rdf="http://www.w3.org/1999/02/22-rdf-syntax-ns#">
   <cc:Work>
    <dc:type rdf:resource="http://purl.org/dc/dcmitype/StillImage"/>
    <dc:format>image/svg+xml</dc:format>
    <dc:creator>
     <cc:Agent>
      <dc:title>Matplotlib v3.11.2, https://matplotlib.org/</dc:title>
     </cc:Agent>
    </dc:creator>
   </cc:Work>
  </rdf:RDF>
 </metadata>
 <defs>
  <style type="text/css">*{stroke-linejoin: round; stroke-linecap: butt}</style>
 </defs>
 <g id="figure_1">
  <g id="patch_1">
   <path d="M 0 265.379539 
L 379.2154 265.379539 
L 379.2154 0 
L 0 0 
z
" style="fill: #ffffff"/>
  </g>
  <g id="axes_1">
   <g id="patch_2">
    <path d="M 20.8554 237.56491 
L 372.3954 237.56491 
L 372.3954 21.34891 
L 20.8554 21.34891 
z
" style="fill: #ffffff"/>
   </g>
   <g id="matplotlib.axis_1">
    <g id="text_1">
     <!-- $s$ -->
     <g style="fill: #1d1d1b" transform="translate(367.4604 251.736785) scale(0.105 -0.105)">
      <defs>
       <path id="Cmmi10-58" d="M 556 391 
Q 728 97 1247 97 
Q 1472 97 1675 173 
Q 1878 250 2011 403 
Q 2144 556 2144 775 
Q 2144 941 2025 1047 
Q 1906 1153 1734 1191 
L 1388 1259 
Q 1150 1319 997 1481 
Q 844 1644 844 1875 
Q 844 2159 998 2378 
Q 1153 2597 1406 2712 
Q 1659 2828 1931 2828 
Q 2222 2828 2451 2689 
Q 2681 2550 2681 2278 
Q 2681 2131 2598 2018 
Q 2516 1906 2369 1906 
Q 2284 1906 2223 1961 
Q 2163 2016 2163 2100 
Q 2163 2175 2205 2245 
Q 2247 2316 2317 2358 
Q 2388 2400 2463 2400 
Q 2406 2538 2251 2600 
Q 2097 2663 1919 2663 
Q 1756 2663 1593 2597 
Q 1431 2531 1332 2404 
Q 1234 2278 1234 2106 
Q 1234 1991 1315 1903 
Q 1397 1816 1516 1778 
L 1888 1703 
Q 2066 1666 2214 1570 
Q 2363 1475 2448 1329 
Q 2534 1184 2534 997 
Q 2534 759 2401 528 
Q 2269 297 2075 159 
Q 1734 -72 1241 -72 
Q 900 -72 615 84 
Q 331 241 331 550 
Q 331 725 432 854 
Q 534 984 709 984 
Q 813 984 883 921 
Q 953 859 953 756 
Q 953 609 843 500 
Q 734 391 588 391 
L 556 391 
z
" transform="scale(0.015625)"/>
      </defs>
      <use xlink:href="#Cmmi10-58" transform="translate(0 0.8125)"/>
     </g>
    </g>
   </g>
   <g id="matplotlib.axis_2">
    <g id="text_2">
     <!-- $c^*$ -->
     <g style="fill: #1d1d1b" transform="translate(4.32 14.491875) scale(0.105 -0.105)">
      <defs>
       <path id="Cmmi10-7f" d="M 750 763 
Q 750 484 892 290 
Q 1034 97 1300 97 
Q 1681 97 2032 272 
Q 2384 447 2606 756 
Q 2625 775 2656 775 
Q 2688 775 2720 739 
Q 2753 703 2753 672 
Q 2753 647 2741 634 
Q 2506 306 2109 117 
Q 1713 -72 1288 -72 
Q 981 -72 747 73 
Q 513 219 384 462 
Q 256 706 256 1013 
Q 256 1444 497 1869 
Q 738 2294 1138 2561 
Q 1538 2828 1978 2828 
Q 2266 2828 2495 2689 
Q 2725 2550 2725 2278 
Q 2725 2103 2623 1979 
Q 2522 1856 2350 1856 
Q 2247 1856 2176 1920 
Q 2106 1984 2106 2088 
Q 2106 2238 2215 2344 
Q 2325 2450 2472 2450 
L 2484 2450 
Q 2409 2559 2267 2611 
Q 2125 2663 1972 2663 
Q 1597 2663 1315 2342 
Q 1034 2022 892 1576 
Q 750 1131 750 763 
z
" transform="scale(0.015625)"/>
       <path id="Cmsy10-9" d="M 603 813 
Q 531 813 473 873 
Q 416 934 416 1006 
Q 416 1116 506 1159 
L 1428 1600 
L 506 2034 
Q 416 2072 416 2188 
Q 416 2259 473 2320 
Q 531 2381 603 2381 
Q 650 2381 691 2350 
L 1509 1753 
L 1416 2797 
Q 1416 2875 1469 2925 
Q 1522 2975 1600 2975 
Q 1675 2975 1726 2928 
Q 1778 2881 1778 2809 
L 1778 2797 
L 1684 1753 
L 2503 2350 
Q 2544 2381 2591 2381 
Q 2669 2381 2723 2320 
Q 2778 2259 2778 2188 
Q 2778 2072 2688 2034 
L 1766 1600 
L 2688 1159 
Q 2778 1116 2778 1006 
Q 2778 934 2723 873 
Q 2669 813 2591 813 
Q 2544 813 2503 844 
L 1684 1441 
L 1778 403 
L 1778 384 
Q 1778 313 1723 266 
Q 1669 219 1600 219 
Q 1525 219 1470 270 
Q 1416 322 1416 397 
L 1509 1441 
L 691 844 
Q 650 813 603 813 
z
" transform="scale(0.015625)"/>
      </defs>
      <use xlink:href="#Cmmi10-7f" transform="translate(0 0.171703)"/>
      <use xlink:href="#Cmsy10-9" transform="translate(68.473113 41.460938) scale(0.7)"/>
     </g>
    </g>
   </g>
   <g id="line2d_1">
    <path d="M 24.2034 211.460783 
L 25.780904 203.959123 
L 27.358408 197.314099 
L 29.724663 188.419619 
L 32.090919 180.444959 
L 34.457174 173.157612 
L 37.612182 164.2749 
L 40.767189 156.157959 
L 43.922197 148.670834 
L 47.077205 141.719384 
L 50.232212 135.234823 
L 54.175971 127.707117 
L 58.119731 120.749676 
L 62.06349 114.302505 
L 66.00725 108.318243 
L 69.951009 102.758593 
L 73.894768 97.591964 
L 77.838528 92.791868 
L 81.782287 88.335776 
L 85.726047 84.2043 
L 89.669806 80.380578 
L 93.613565 76.849809 
L 97.557325 73.598897 
L 101.501084 70.616173 
L 105.444844 67.891169 
L 109.388603 65.414442 
L 113.332362 63.17743 
L 117.276122 61.17233 
L 121.219881 59.392002 
L 125.163641 57.829887 
L 129.1074 56.479937 
L 133.051159 55.336554 
L 136.994919 54.394546 
L 140.938678 53.649077 
L 144.882438 53.095635 
L 149.614949 52.679056 
L 154.34746 52.52613 
L 159.079971 52.630542 
L 163.812483 52.986409 
L 168.544994 53.588235 
L 173.277505 54.430876 
L 178.010017 55.509503 
L 182.742528 56.819575 
L 187.475039 58.356811 
L 192.20755 60.117168 
L 196.940062 62.096821 
L 201.672573 64.292147 
L 207.193836 67.121366 
L 212.715099 70.234288 
L 218.236362 73.626027 
L 223.757626 77.291958 
L 229.278889 81.227698 
L 234.800152 85.429083 
L 240.321415 89.892155 
L 245.842678 94.613144 
L 252.152693 100.319772 
L 258.462708 106.35347 
L 264.772723 112.709384 
L 271.082738 119.382893 
L 277.392753 126.369593 
L 283.702768 133.66528 
L 290.801535 142.237272 
L 297.900302 151.189791 
L 304.999069 160.517635 
L 312.097836 170.215843 
L 319.196603 180.279672 
L 326.29537 190.704584 
L 334.182889 202.706032 
L 338.9154 210.115919 
L 338.9154 210.115919 
" clip-path="url(#p6d1c49bb0d)" style="fill: none; stroke: #2a78d6; stroke-width: 2; stroke-linecap: round"/>
   </g>
   <g id="line2d_2">
    <defs>
     <path id="mf43ad6e71c" d="M 2.5 0 
L -2.5 -2.5 
L -2.5 2.5 
z
" style="stroke: #52514e; stroke-linejoin: miter"/>
    </defs>
    <g>
     <use xlink:href="#mf43ad6e71c" x="372.3954" y="237.56491" style="fill: #52514e; stroke: #52514e; stroke-linejoin: miter"/>
    </g>
   </g>
   <g id="line2d_3">
    <defs>
     <path id="m2ae790c3f3" d="M 0 -2.5 
L -2.5 2.5 
L 2.5 2.5 
z
" style="stroke: #52514e; stroke-linejoin: miter"/>
    </defs>
    <g>
     <use xlink:href="#m2ae790c3f3" x="20.8554" y="21.34891" style="fill: #52514e; stroke: #52514e; stroke-linejoin: miter"/>
    </g>
   </g>
   <g id="line2d_4">
    <path d="M 154.7754 237.56491 
L 154.7754 52.52508 
" clip-path="url(#p6d1c49bb0d)" style="fill: none; stroke-dasharray: 2.7,2.7; stroke-dashoffset: 0; stroke: #7a7974; stroke-width: 0.9"/>
   </g>
   <g id="patch_3">
    <path d="M 20.8554 237.56491 
L 20.8554 21.34891 
" style="fill: none; stroke: #52514e; stroke-width: 0.9; stroke-linejoin: miter; stroke-linecap: square"/>
   </g>
   <g id="patch_4">
    <path d="M 20.8554 237.56491 
L 372.3954 237.56491 
" style="fill: none; stroke: #52514e; stroke-width: 0.9; stroke-linejoin: miter; stroke-linecap: square"/>
   </g>
   <g id="text_3">
    <!-- $c^*(s)=k^{*\,0,4}-0{,}08\,k^*$ -->
    <g style="fill: #2a78d6" transform="translate(241.8234 55.896748) scale(0.095 -0.095)">
     <defs>
      <path id="Cmr10-77" d="M 1984 -1588 
Q 1628 -1306 1370 -942 
Q 1113 -578 948 -165 
Q 784 247 703 697 
Q 622 1147 622 1600 
Q 622 2059 703 2509 
Q 784 2959 951 3375 
Q 1119 3791 1378 4153 
Q 1638 4516 1984 4788 
Q 1984 4800 2016 4800 
L 2075 4800 
Q 2094 4800 2109 4783 
Q 2125 4766 2125 4744 
Q 2125 4716 2113 4703 
Q 1800 4397 1592 4047 
Q 1384 3697 1257 3301 
Q 1131 2906 1075 2482 
Q 1019 2059 1019 1600 
Q 1019 -434 2106 -1491 
Q 2125 -1509 2125 -1544 
Q 2125 -1559 2108 -1579 
Q 2091 -1600 2075 -1600 
L 2016 -1600 
Q 1984 -1600 1984 -1588 
z
" transform="scale(0.015625)"/>
      <path id="Cmr10-44" d="M 416 -1600 
Q 359 -1600 359 -1544 
Q 359 -1516 372 -1503 
Q 1466 -434 1466 1600 
Q 1466 3634 384 4691 
Q 359 4706 359 4744 
Q 359 4766 376 4783 
Q 394 4800 416 4800 
L 475 4800 
Q 494 4800 506 4788 
Q 966 4425 1272 3906 
Q 1578 3388 1720 2800 
Q 1863 2213 1863 1600 
Q 1863 1147 1786 708 
Q 1709 269 1542 -157 
Q 1375 -584 1119 -945 
Q 863 -1306 506 -1588 
Q 494 -1600 475 -1600 
L 416 -1600 
z
" transform="scale(0.015625)"/>
      <path id="Cmr10-29" d="M 481 850 
Q 428 850 393 890 
Q 359 931 359 978 
Q 359 1031 393 1068 
Q 428 1106 481 1106 
L 4500 1106 
Q 4547 1106 4581 1068 
Q 4616 1031 4616 978 
Q 4616 931 4581 890 
Q 4547 850 4500 850 
L 481 850 
z
M 481 2094 
Q 428 2094 393 2131 
Q 359 2169 359 2222 
Q 359 2269 393 2309 
Q 428 2350 481 2350 
L 4500 2350 
Q 4547 2350 4581 2309 
Q 4616 2269 4616 2222 
Q 4616 2169 4581 2131 
Q 4547 2094 4500 2094 
L 481 2094 
z
" transform="scale(0.015625)"/>
      <path id="Cmmi10-3e" d="M 341 116 
Q 341 153 347 172 
L 1275 3872 
Q 1300 3981 1306 4044 
Q 1306 4147 891 4147 
Q 825 4147 825 4231 
Q 828 4247 839 4287 
Q 850 4328 867 4350 
Q 884 4372 916 4372 
L 1778 4441 
L 1797 4441 
Q 1797 4434 1819 4423 
Q 1841 4413 1844 4409 
Q 1856 4378 1856 4359 
L 1184 1684 
Q 1416 1781 1767 2145 
Q 2119 2509 2317 2668 
Q 2516 2828 2816 2828 
Q 2994 2828 3119 2706 
Q 3244 2584 3244 2406 
Q 3244 2294 3197 2198 
Q 3150 2103 3065 2043 
Q 2981 1984 2869 1984 
Q 2766 1984 2695 2048 
Q 2625 2113 2625 2216 
Q 2625 2369 2733 2473 
Q 2841 2578 2994 2578 
Q 2931 2663 2803 2663 
Q 2613 2663 2436 2553 
Q 2259 2444 2054 2239 
Q 1850 2034 1681 1864 
Q 1513 1694 1369 1606 
Q 1747 1563 2025 1408 
Q 2303 1253 2303 934 
Q 2303 869 2278 769 
Q 2222 528 2222 384 
Q 2222 97 2419 97 
Q 2650 97 2770 350 
Q 2891 603 2969 941 
Q 2981 978 3022 978 
L 3097 978 
Q 3122 978 3139 962 
Q 3156 947 3156 922 
Q 3156 916 3150 903 
Q 2909 -72 2406 -72 
Q 2225 -72 2086 12 
Q 1947 97 1872 242 
Q 1797 388 1797 569 
Q 1797 672 1825 781 
Q 1844 856 1844 922 
Q 1844 1169 1625 1297 
Q 1406 1425 1125 1453 
L 800 147 
Q 775 50 703 -11 
Q 631 -72 538 -72 
Q 456 -72 398 -17 
Q 341 38 341 116 
z
" transform="scale(0.015625)"/>
      <path id="Cmr10-28" d="M 1600 -141 
Q 816 -141 533 504 
Q 250 1150 250 2041 
Q 250 2597 351 3087 
Q 453 3578 754 3920 
Q 1056 4263 1600 4263 
Q 2022 4263 2290 4056 
Q 2559 3850 2700 3523 
Q 2841 3197 2892 2823 
Q 2944 2450 2944 2041 
Q 2944 1491 2842 1011 
Q 2741 531 2444 195 
Q 2147 -141 1600 -141 
z
M 1600 25 
Q 1956 25 2131 390 
Q 2306 756 2347 1200 
Q 2388 1644 2388 2144 
Q 2388 2625 2347 3031 
Q 2306 3438 2132 3767 
Q 1959 4097 1600 4097 
Q 1238 4097 1063 3765 
Q 888 3434 847 3029 
Q 806 2625 806 2144 
Q 806 1788 823 1472 
Q 841 1156 916 820 
Q 991 484 1158 254 
Q 1325 25 1600 25 
z
" transform="scale(0.015625)"/>
      <path id="Cmmi10-2c" d="M 634 -1153 
Q 634 -1125 659 -1100 
Q 891 -878 1019 -587 
Q 1147 -297 1147 25 
L 1147 103 
Q 1044 0 891 0 
Q 744 0 641 103 
Q 538 206 538 353 
Q 538 503 641 603 
Q 744 703 891 703 
Q 1119 703 1216 492 
Q 1313 281 1313 25 
Q 1313 -331 1170 -651 
Q 1028 -972 769 -1228 
Q 744 -1241 728 -1241 
Q 697 -1241 665 -1212 
Q 634 -1184 634 -1153 
z
" transform="scale(0.015625)"/>
      <path id="Cmr10-3b" d="M 178 1056 
L 178 1281 
L 2156 4231 
Q 2178 4263 2222 4263 
L 2316 4263 
Q 2388 4263 2388 4191 
L 2388 1281 
L 3016 1281 
L 3016 1056 
L 2388 1056 
L 2388 428 
Q 2388 297 2575 261 
Q 2763 225 3009 225 
L 3009 0 
L 1247 0 
L 1247 225 
Q 1494 225 1681 261 
Q 1869 297 1869 428 
L 1869 1056 
L 178 1056 
z
M 391 1281 
L 1906 1281 
L 1906 3547 
L 391 1281 
z
" transform="scale(0.015625)"/>
      <path id="Cmsy10-11" d="M 653 1472 
Q 600 1472 565 1512 
Q 531 1553 531 1600 
Q 531 1647 565 1687 
Q 600 1728 653 1728 
L 4325 1728 
Q 4375 1728 4408 1687 
Q 4441 1647 4441 1600 
Q 4441 1553 4408 1512 
Q 4375 1472 4325 1472 
L 653 1472 
z
" transform="scale(0.015625)"/>
      <path id="Cmr10-4d" d="M 269 972 
Q 269 1356 522 1651 
Q 775 1947 1172 2144 
L 934 2297 
Q 716 2441 578 2680 
Q 441 2919 441 3181 
Q 441 3488 602 3734 
Q 763 3981 1030 4122 
Q 1297 4263 1600 4263 
Q 1884 4263 2148 4147 
Q 2413 4031 2583 3815 
Q 2753 3600 2753 3303 
Q 2753 3088 2651 2903 
Q 2550 2719 2373 2572 
Q 2197 2425 1997 2322 
L 2363 2088 
Q 2616 1922 2770 1653 
Q 2925 1384 2925 1088 
Q 2925 741 2739 456 
Q 2553 172 2247 15 
Q 1941 -141 1600 -141 
Q 1269 -141 961 -6 
Q 653 128 461 383 
Q 269 638 269 972 
z
M 616 972 
Q 616 719 755 509 
Q 894 300 1122 181 
Q 1350 63 1600 63 
Q 1972 63 2275 280 
Q 2578 497 2578 856 
Q 2578 978 2529 1098 
Q 2481 1219 2395 1317 
Q 2309 1416 2203 1478 
L 1344 2034 
Q 1144 1928 976 1765 
Q 809 1603 712 1400 
Q 616 1197 616 972 
z
M 1056 2925 
L 1831 2425 
Q 2100 2581 2272 2803 
Q 2444 3025 2444 3303 
Q 2444 3519 2323 3698 
Q 2203 3878 2009 3978 
Q 1816 4078 1594 4078 
Q 1400 4078 1203 4003 
Q 1006 3928 878 3779 
Q 750 3631 750 3431 
Q 750 3131 1056 2925 
z
" transform="scale(0.015625)"/>
     </defs>
     <use xlink:href="#Cmmi10-7f" transform="translate(0 0.084203)"/>
     <use xlink:href="#Cmsy10-9" transform="translate(68.473113 41.373437) scale(0.7)"/>
     <use xlink:href="#Cmr10-77" transform="translate(123.193568 0.084203)"/>
     <use xlink:href="#Cmmi10-58" transform="translate(162.011927 0.084203)"/>
     <use xlink:href="#Cmr10-44" transform="translate(208.789271 0.084203)"/>
     <use xlink:href="#Cmr10-29" transform="translate(267.607688 0.084203)"/>
     <use xlink:href="#Cmmi10-3e" transform="translate(365.293292 0.084203)"/>
     <use xlink:href="#Cmsy10-9" transform="translate(433.848083 41.373437) scale(0.7)"/>
     <use xlink:href="#Cmr10-28" transform="translate(480.515017 41.373437) scale(0.7)"/>
     <use xlink:href="#Cmmi10-2c" transform="translate(515.515017 41.373437) scale(0.7)"/>
     <use xlink:href="#Cmr10-3b" transform="translate(548.894939 41.373437) scale(0.7)"/>
     <use xlink:href="#Cmsy10-11" transform="translate(609.615412 0.084203)"/>
     <use xlink:href="#Cmr10-28" transform="translate(707.301016 0.084203)"/>
     <use xlink:href="#Cmmi10-2c" transform="translate(757.301016 0.084203)"/>
     <use xlink:href="#Cmr10-28" transform="translate(784.986563 0.084203)"/>
     <use xlink:href="#Cmr10-4d" transform="translate(834.986563 0.084203)"/>
     <use xlink:href="#Cmmi10-3e" transform="translate(901.653611 0.084203)"/>
     <use xlink:href="#Cmsy10-9" transform="translate(984.208442 41.373437) scale(0.7)"/>
    </g>
   </g>
   <g id="text_4">
    <!-- $s_{oro}{=}\alpha{=}0{,}40$ -->
    <g style="fill: #1d1d1b" transform="translate(124.8979 258.768035) scale(0.095 -0.095)">
     <defs>
      <path id="Cmmi10-4c" d="M 1288 -72 
Q 984 -72 748 72 
Q 513 216 384 459 
Q 256 703 256 1013 
Q 256 1447 498 1872 
Q 741 2297 1142 2562 
Q 1544 2828 1984 2828 
Q 2222 2828 2408 2747 
Q 2594 2666 2731 2519 
Q 2869 2372 2942 2175 
Q 3016 1978 3016 1747 
Q 3016 1413 2875 1089 
Q 2734 766 2489 502 
Q 2244 238 1928 83 
Q 1613 -72 1288 -72 
z
M 1300 97 
Q 1584 97 1820 290 
Q 2056 484 2207 779 
Q 2359 1075 2440 1403 
Q 2522 1731 2522 1997 
Q 2522 2275 2383 2469 
Q 2244 2663 1972 2663 
Q 1597 2663 1315 2342 
Q 1034 2022 892 1576 
Q 750 1131 750 763 
Q 750 484 892 290 
Q 1034 97 1300 97 
z
" transform="scale(0.015625)"/>
      <path id="Cmmi10-84" d="M 494 109 
Q 494 147 500 166 
L 978 2075 
Q 1025 2253 1025 2388 
Q 1025 2663 838 2663 
Q 638 2663 541 2423 
Q 444 2184 353 1819 
Q 353 1800 334 1789 
Q 316 1778 300 1778 
L 225 1778 
Q 203 1778 187 1801 
Q 172 1825 172 1844 
Q 241 2122 305 2315 
Q 369 2509 505 2668 
Q 641 2828 844 2828 
Q 1066 2828 1233 2700 
Q 1400 2572 1441 2363 
Q 1603 2575 1811 2701 
Q 2019 2828 2266 2828 
Q 2469 2828 2623 2709 
Q 2778 2591 2778 2388 
Q 2778 2225 2676 2104 
Q 2575 1984 2406 1984 
Q 2303 1984 2233 2048 
Q 2163 2113 2163 2216 
Q 2163 2356 2266 2467 
Q 2369 2578 2503 2578 
Q 2400 2663 2253 2663 
Q 1978 2663 1775 2467 
Q 1572 2272 1409 1972 
L 953 141 
Q 931 53 854 -9 
Q 778 -72 684 -72 
Q 606 -72 550 -22 
Q 494 28 494 109 
z
" transform="scale(0.015625)"/>
      <path id="Cmmi10-d" d="M 1288 -72 
Q 984 -72 748 72 
Q 513 216 384 459 
Q 256 703 256 1013 
Q 256 1447 498 1872 
Q 741 2297 1142 2562 
Q 1544 2828 1984 2828 
Q 2309 2828 2556 2658 
Q 2803 2488 2931 2205 
Q 3059 1922 3059 1600 
L 3066 1172 
Q 3284 1475 3436 1801 
Q 3588 2128 3669 2478 
Q 3681 2516 3719 2516 
L 3794 2516 
Q 3853 2516 3853 2456 
Q 3853 2450 3847 2438 
Q 3772 2144 3659 1873 
Q 3547 1603 3395 1350 
Q 3244 1097 3066 891 
Q 3066 97 3250 97 
Q 3369 97 3445 167 
Q 3522 238 3580 341 
Q 3638 444 3653 447 
L 3731 447 
Q 3781 447 3781 384 
Q 3781 225 3598 76 
Q 3416 -72 3238 -72 
Q 3006 -72 2853 78 
Q 2700 228 2644 469 
Q 2344 213 1994 70 
Q 1644 -72 1288 -72 
z
M 1300 97 
Q 1984 97 2613 659 
Q 2609 697 2603 751 
Q 2597 806 2597 813 
L 2597 1503 
Q 2597 2663 1972 2663 
Q 1597 2663 1315 2342 
Q 1034 2022 892 1576 
Q 750 1131 750 763 
Q 750 484 892 290 
Q 1034 97 1300 97 
z
" transform="scale(0.015625)"/>
     </defs>
     <use xlink:href="#Cmmi10-58" transform="translate(0 0.390625)"/>
     <use xlink:href="#Cmmi10-4c" transform="translate(46.777344 -14.609337) scale(0.7)"/>
     <use xlink:href="#Cmmi10-84" transform="translate(80.649414 -14.609337) scale(0.7)"/>
     <use xlink:href="#Cmmi10-4c" transform="translate(112.231445 -14.609337) scale(0.7)"/>
     <use xlink:href="#Cmr10-29" transform="translate(171.823988 0.390625)"/>
     <use xlink:href="#Cmmi10-d" transform="translate(269.509592 0.390625)"/>
     <use xlink:href="#Cmr10-29" transform="translate(353.425665 0.390625)"/>
     <use xlink:href="#Cmr10-28" transform="translate(451.111269 0.390625)"/>
     <use xlink:href="#Cmmi10-2c" transform="translate(501.111269 0.390625)"/>
     <use xlink:href="#Cmr10-3b" transform="translate(528.796816 0.390625)"/>
     <use xlink:href="#Cmr10-28" transform="translate(578.796816 0.390625)"/>
    </g>
   </g>
   <g id="text_5">
    <!-- $c_{oro}{=}1{,}75$ -->
    <g style="fill: #1d1d1b" transform="translate(162.7754 46.52508) scale(0.09 -0.09)">
     <defs>
      <path id="Cmr10-64" d="M 594 0 
L 594 225 
Q 1394 225 1394 428 
L 1394 3788 
Q 1063 3628 556 3628 
L 556 3853 
Q 1341 3853 1741 4263 
L 1831 4263 
Q 1853 4263 1873 4245 
Q 1894 4228 1894 4206 
L 1894 428 
Q 1894 225 2694 225 
L 2694 0 
L 594 0 
z
" transform="scale(0.015625)"/>
      <path id="Cmr10-7f" d="M 1113 166 
Q 1113 522 1175 862 
Q 1238 1203 1358 1536 
Q 1478 1869 1648 2189 
Q 1819 2509 2022 2791 
L 2606 3603 
L 1875 3603 
Q 738 3603 703 3572 
Q 619 3469 544 2981 
L 359 2981 
L 569 4325 
L 756 4325 
L 756 4306 
Q 756 4191 1147 4156 
Q 1538 4122 1913 4122 
L 3103 4122 
L 3103 3956 
Q 3103 3950 3101 3947 
Q 3100 3944 3097 3938 
L 2216 2700 
Q 1891 2219 1809 1631 
Q 1728 1044 1728 166 
Q 1728 41 1637 -50 
Q 1547 -141 1422 -141 
Q 1294 -141 1203 -50 
Q 1113 41 1113 166 
z
" transform="scale(0.015625)"/>
      <path id="Cmr10-78" d="M 556 728 
Q 622 541 758 387 
Q 894 234 1080 148 
Q 1266 63 1466 63 
Q 1928 63 2103 422 
Q 2278 781 2278 1294 
Q 2278 1516 2270 1667 
Q 2263 1819 2228 1959 
Q 2169 2184 2020 2353 
Q 1872 2522 1656 2522 
Q 1441 2522 1286 2456 
Q 1131 2391 1034 2303 
Q 938 2216 863 2119 
Q 788 2022 769 2016 
L 697 2016 
Q 681 2016 657 2036 
Q 634 2056 634 2075 
L 634 4213 
Q 634 4228 654 4245 
Q 675 4263 697 4263 
L 716 4263 
Q 1147 4056 1631 4056 
Q 2106 4056 2547 4263 
L 2566 4263 
Q 2588 4263 2606 4247 
Q 2625 4231 2625 4213 
L 2625 4153 
Q 2625 4122 2613 4122 
Q 2394 3831 2064 3668 
Q 1734 3506 1381 3506 
Q 1125 3506 856 3578 
L 856 2369 
Q 1069 2541 1236 2614 
Q 1403 2688 1663 2688 
Q 2016 2688 2295 2484 
Q 2575 2281 2725 1954 
Q 2875 1628 2875 1288 
Q 2875 903 2686 575 
Q 2497 247 2172 53 
Q 1847 -141 1466 -141 
Q 1150 -141 886 21 
Q 622 184 470 459 
Q 319 734 319 1044 
Q 319 1188 412 1278 
Q 506 1369 647 1369 
Q 788 1369 883 1276 
Q 978 1184 978 1044 
Q 978 906 883 811 
Q 788 716 647 716 
Q 625 716 597 720 
Q 569 725 556 728 
z
" transform="scale(0.015625)"/>
     </defs>
     <use xlink:href="#Cmmi10-7f" transform="translate(0 0.421875)"/>
     <use xlink:href="#Cmmi10-4c" transform="translate(43.212891 -14.578087) scale(0.7)"/>
     <use xlink:href="#Cmmi10-84" transform="translate(77.084961 -14.578087) scale(0.7)"/>
     <use xlink:href="#Cmmi10-4c" transform="translate(108.666992 -14.578087) scale(0.7)"/>
     <use xlink:href="#Cmr10-29" transform="translate(168.259535 0.421875)"/>
     <use xlink:href="#Cmr10-64" transform="translate(265.945139 0.421875)"/>
     <use xlink:href="#Cmmi10-2c" transform="translate(315.945139 0.421875)"/>
     <use xlink:href="#Cmr10-7f" transform="translate(343.630686 0.421875)"/>
     <use xlink:href="#Cmr10-78" transform="translate(393.630686 0.421875)"/>
    </g>
   </g>
   <g id="text_6">
    <!-- $c^*_{E8}{=}1{,}60$ -->
    <g style="fill: #1d1d1b" transform="translate(112.5554 84.483739) scale(0.09 -0.09)">
     <defs>
      <path id="Cmmi10-6f" d="M 300 0 
Q 238 0 238 84 
Q 241 100 250 139 
Q 259 178 276 201 
Q 294 225 319 225 
Q 709 225 863 269 
Q 947 297 984 441 
L 1863 3956 
Q 1875 4019 1875 4044 
Q 1875 4113 1797 4122 
Q 1678 4147 1338 4147 
Q 1275 4147 1275 4231 
Q 1278 4247 1287 4286 
Q 1297 4325 1314 4348 
Q 1331 4372 1356 4372 
L 4825 4372 
Q 4891 4372 4891 4288 
L 4738 2963 
Q 4738 2947 4714 2926 
Q 4691 2906 4672 2906 
L 4616 2906 
Q 4550 2906 4550 2988 
Q 4588 3300 4588 3450 
Q 4588 3706 4500 3848 
Q 4413 3991 4267 4053 
Q 4122 4116 3945 4131 
Q 3769 4147 3481 4147 
L 2753 4147 
Q 2578 4147 2522 4117 
Q 2466 4088 2419 3928 
L 2034 2381 
L 2534 2381 
Q 2859 2381 3025 2426 
Q 3191 2472 3287 2615 
Q 3384 2759 3463 3072 
Q 3469 3094 3486 3111 
Q 3503 3128 3525 3128 
L 3584 3128 
Q 3647 3128 3647 3047 
L 3250 1466 
Q 3238 1409 3188 1409 
L 3128 1409 
Q 3066 1409 3066 1491 
Q 3128 1747 3128 1869 
Q 3128 2056 2959 2106 
Q 2791 2156 2509 2156 
L 1978 2156 
L 1544 416 
Q 1516 338 1516 275 
Q 1516 225 1734 225 
L 2509 225 
Q 2972 225 3259 297 
Q 3547 369 3736 526 
Q 3925 684 4062 928 
Q 4200 1172 4397 1638 
Q 4409 1678 4453 1678 
L 4513 1678 
Q 4538 1678 4556 1656 
Q 4575 1634 4575 1606 
Q 4575 1594 4569 1581 
L 3909 38 
Q 3897 0 3859 0 
L 300 0 
z
" transform="scale(0.015625)"/>
      <path id="Cmr10-45" d="M 1600 -141 
Q 1203 -141 937 70 
Q 672 281 526 617 
Q 381 953 325 1322 
Q 269 1691 269 2069 
Q 269 2575 466 3084 
Q 663 3594 1045 3928 
Q 1428 4263 1953 4263 
Q 2172 4263 2361 4180 
Q 2550 4097 2658 3936 
Q 2766 3775 2766 3547 
Q 2766 3416 2677 3327 
Q 2588 3238 2456 3238 
Q 2331 3238 2240 3328 
Q 2150 3419 2150 3547 
Q 2150 3672 2240 3762 
Q 2331 3853 2456 3853 
L 2491 3853 
Q 2409 3969 2261 4023 
Q 2113 4078 1953 4078 
Q 1759 4078 1595 3993 
Q 1431 3909 1300 3765 
Q 1169 3622 1081 3448 
Q 994 3275 945 3053 
Q 897 2831 884 2637 
Q 872 2444 872 2150 
Q 984 2413 1190 2580 
Q 1397 2747 1656 2747 
Q 1941 2747 2175 2631 
Q 2409 2516 2578 2311 
Q 2747 2106 2836 1843 
Q 2925 1581 2925 1313 
Q 2925 938 2758 598 
Q 2591 259 2287 59 
Q 1984 -141 1600 -141 
z
M 1600 63 
Q 1847 63 1997 175 
Q 2147 288 2217 473 
Q 2288 659 2305 848 
Q 2322 1038 2322 1313 
Q 2322 1675 2287 1931 
Q 2253 2188 2100 2383 
Q 1947 2578 1631 2578 
Q 1372 2578 1205 2403 
Q 1038 2228 961 1961 
Q 884 1694 884 1447 
Q 884 1363 891 1319 
Q 891 1309 889 1303 
Q 888 1297 884 1288 
Q 884 1013 940 731 
Q 997 450 1156 256 
Q 1316 63 1600 63 
z
" transform="scale(0.015625)"/>
     </defs>
     <use xlink:href="#Cmmi10-7f" transform="translate(0 0.171703)"/>
     <use xlink:href="#Cmsy10-9" transform="translate(68.473113 41.460938) scale(0.7)"/>
     <use xlink:href="#Cmmi10-6f" transform="translate(43.212891 -31.357812) scale(0.7)"/>
     <use xlink:href="#Cmr10-4d" transform="translate(94.858398 -31.357812) scale(0.7)"/>
     <use xlink:href="#Cmr10-29" transform="translate(155.578871 0.171703)"/>
     <use xlink:href="#Cmr10-64" transform="translate(253.264475 0.171703)"/>
     <use xlink:href="#Cmmi10-2c" transform="translate(303.264475 0.171703)"/>
     <use xlink:href="#Cmr10-45" transform="translate(330.950022 0.171703)"/>
     <use xlink:href="#Cmr10-28" transform="translate(380.950022 0.171703)"/>
    </g>
   </g>
   <g id="line2d_5">
    <defs>
     <path id="m4d0c337b19" d="M 0 3.25 
C 0.86191 3.25 1.688635 2.907559 2.298097 2.298097 
C 2.907559 1.688635 3.25 0.86191 3.25 0 
C 3.25 -0.86191 2.907559 -1.688635 2.298097 -2.298097 
C 1.688635 -2.907559 0.86191 -3.25 0 -3.25 
C -0.86191 -3.25 -1.688635 -2.907559 -2.298097 -2.298097 
C -2.907559 -1.688635 -3.25 -0.86191 -3.25 0 
C -3.25 0.86191 -2.907559 1.688635 -2.298097 2.298097 
C -1.688635 2.907559 -0.86191 3.25 0 3.25 
z
" style="stroke: #ffffff; stroke-width: 1.6"/>
    </defs>
    <g clip-path="url(#p6d1c49bb0d)">
     <use xlink:href="#m4d0c337b19" x="154.7754" y="52.52508" style="fill: #2a78d6; stroke: #ffffff; stroke-width: 1.6"/>
    </g>
   </g>
   <g id="line2d_6">
    <defs>
     <path id="m465345a01f" d="M 0 3.25 
C 0.86191 3.25 1.688635 2.907559 2.298097 2.298097 
C 2.907559 1.688635 3.25 0.86191 3.25 0 
C 3.25 -0.86191 2.907559 -1.688635 2.298097 -2.298097 
C 1.688635 -2.907559 0.86191 -3.25 0 -3.25 
C -0.86191 -3.25 -1.688635 -2.907559 -2.298097 -2.298097 
C -2.907559 -1.688635 -3.25 -0.86191 -3.25 0 
C -3.25 0.86191 -2.907559 1.688635 -2.298097 2.298097 
C -1.688635 2.907559 -0.86191 3.25 0 3.25 
z
" style="stroke: #ffffff; stroke-width: 1.6"/>
    </defs>
    <g clip-path="url(#p6d1c49bb0d)">
     <use xlink:href="#m465345a01f" x="104.5554" y="68.483739" style="fill: #eb6834; stroke: #ffffff; stroke-width: 1.6"/>
    </g>
   </g>
  </g>
 </g>
 <defs>
  <clipPath id="p6d1c49bb0d">
   <rect x="20.8554" y="21.34891" width="351.54" height="216.216"/>
  </clipPath>
 </defs>
</svg>
