<?xml version="1.0" encoding="utf-8" standalone="no"?>
<!DOCTYPE svg PUBLIC "-//W3C//DTD SVG 1.1//EN"
  "http://www.w3.org/Graphics/SVG/1.1/DTD/svg11.dtd">
<svg xmlns:xlink="http://www.w3.org/1999/xlink" width="465.742439pt" height="217.629379pt" viewBox="0 0 465.742439 217.629379" xmlns="http://www.w3.org/2000/svg" version="1.1">
 <metadata>
  <rdf:RDF xmlns:dc="http://purl.org/dc/elements/1.1/" xmlns:cc="http://creativecommons.org/ns#" xmlns:rdf="http://www.w3.org/1999/02/22-rdf-syntax-ns#">
   <cc:Work>
    <dc:type rdf:resource="http://purl.org/dc/dcmitype/StillImage"/>
    <dc:format>image/svg+xml</dc:format>
    <dc:creator>
     <cc:Agent>
      <dc:title>Matplotlib v3.11.2, https://matplotlib.org/</dc:title>
     </cc:Agent>
    </dc:creator>
   </cc:Work>
  </rdf:RDF>
 </metadata>
 <defs>
  <style type="text/css">*{stroke-linejoin: round; stroke-linecap: butt}</style>
 </defs>
 <g id="figure_1">
  <g id="patch_1">
   <path d="M 0 217.629379 
L 465.742439 217.629379 
L 465.742439 0 
L 0 0 
z
" style="fill: #ffffff"/>
  </g>
  <g id="axes_1">
   <g id="patch_2">
    <path d="M 54.97322 189.81475 
L 206.295254 189.81475 
L 206.295254 29.03875 
L 54.97322 29.03875 
z
" style="fill: #ffffff"/>
   </g>
   <g id="matplotlib.axis_1">
    <g id="text_1">
     <!-- $k$ -->
     <g style="fill: #1d1d1b" transform="translate(200.730254 203.986625) scale(0.105 -0.105)">
      <defs>
       <path id="Cmmi10-3e" d="M 341 116 
Q 341 153 347 172 
L 1275 3872 
Q 1300 3981 1306 4044 
Q 1306 4147 891 4147 
Q 825 4147 825 4231 
Q 828 4247 839 4287 
Q 850 4328 867 4350 
Q 884 4372 916 4372 
L 1778 4441 
L 1797 4441 
Q 1797 4434 1819 4423 
Q 1841 4413 1844 4409 
Q 1856 4378 1856 4359 
L 1184 1684 
Q 1416 1781 1767 2145 
Q 2119 2509 2317 2668 
Q 2516 2828 2816 2828 
Q 2994 2828 3119 2706 
Q 3244 2584 3244 2406 
Q 3244 2294 3197 2198 
Q 3150 2103 3065 2043 
Q 2981 1984 2869 1984 
Q 2766 1984 2695 2048 
Q 2625 2113 2625 2216 
Q 2625 2369 2733 2473 
Q 2841 2578 2994 2578 
Q 2931 2663 2803 2663 
Q 2613 2663 2436 2553 
Q 2259 2444 2054 2239 
Q 1850 2034 1681 1864 
Q 1513 1694 1369 1606 
Q 1747 1563 2025 1408 
Q 2303 1253 2303 934 
Q 2303 869 2278 769 
Q 2222 528 2222 384 
Q 2222 97 2419 97 
Q 2650 97 2770 350 
Q 2891 603 2969 941 
Q 2981 978 3022 978 
L 3097 978 
Q 3122 978 3139 962 
Q 3156 947 3156 922 
Q 3156 916 3150 903 
Q 2909 -72 2406 -72 
Q 2225 -72 2086 12 
Q 1947 97 1872 242 
Q 1797 388 1797 569 
Q 1797 672 1825 781 
Q 1844 856 1844 922 
Q 1844 1169 1625 1297 
Q 1406 1425 1125 1453 
L 800 147 
Q 775 50 703 -11 
Q 631 -72 538 -72 
Q 456 -72 398 -17 
Q 341 38 341 116 
z
" transform="scale(0.015625)"/>
      </defs>
      <use xlink:href="#Cmmi10-3e" transform="translate(0 0.609375)"/>
     </g>
    </g>
   </g>
   <g id="matplotlib.axis_2">
    <g id="text_2">
     <!-- $i,\ (n+\delta)k$ -->
     <g style="fill: #1d1d1b" transform="translate(4.32 23.19823) scale(0.105 -0.105)">
      <defs>
       <path id="Cmmi10-37" d="M 500 459 
Q 500 578 550 709 
L 1069 2088 
Q 1153 2322 1153 2472 
Q 1153 2663 1013 2663 
Q 759 2663 595 2402 
Q 431 2141 353 1819 
Q 341 1778 300 1778 
L 225 1778 
Q 172 1778 172 1838 
L 172 1856 
Q 275 2238 487 2533 
Q 700 2828 1025 2828 
Q 1253 2828 1411 2678 
Q 1569 2528 1569 2297 
Q 1569 2178 1516 2047 
L 997 672 
Q 909 459 909 288 
Q 909 97 1056 97 
Q 1306 97 1473 364 
Q 1641 631 1709 941 
Q 1722 978 1759 978 
L 1838 978 
Q 1863 978 1878 961 
Q 1894 944 1894 922 
Q 1894 916 1888 903 
Q 1800 541 1583 234 
Q 1366 -72 1044 -72 
Q 819 -72 659 83 
Q 500 238 500 459 
z
M 1222 3878 
Q 1222 4013 1334 4122 
Q 1447 4231 1581 4231 
Q 1691 4231 1761 4164 
Q 1831 4097 1831 3994 
Q 1831 3850 1717 3742 
Q 1603 3634 1466 3634 
Q 1363 3634 1292 3704 
Q 1222 3775 1222 3878 
z
" transform="scale(0.015625)"/>
       <path id="Cmmi10-2c" d="M 634 -1153 
Q 634 -1125 659 -1100 
Q 891 -878 1019 -587 
Q 1147 -297 1147 25 
L 1147 103 
Q 1044 0 891 0 
Q 744 0 641 103 
Q 538 206 538 353 
Q 538 503 641 603 
Q 744 703 891 703 
Q 1119 703 1216 492 
Q 1313 281 1313 25 
Q 1313 -331 1170 -651 
Q 1028 -972 769 -1228 
Q 744 -1241 728 -1241 
Q 697 -1241 665 -1212 
Q 634 -1184 634 -1153 
z
" transform="scale(0.015625)"/>
       <path id="Cmr10-77" d="M 1984 -1588 
Q 1628 -1306 1370 -942 
Q 1113 -578 948 -165 
Q 784 247 703 697 
Q 622 1147 622 1600 
Q 622 2059 703 2509 
Q 784 2959 951 3375 
Q 1119 3791 1378 4153 
Q 1638 4516 1984 4788 
Q 1984 4800 2016 4800 
L 2075 4800 
Q 2094 4800 2109 4783 
Q 2125 4766 2125 4744 
Q 2125 4716 2113 4703 
Q 1800 4397 1592 4047 
Q 1384 3697 1257 3301 
Q 1131 2906 1075 2482 
Q 1019 2059 1019 1600 
Q 1019 -434 2106 -1491 
Q 2125 -1509 2125 -1544 
Q 2125 -1559 2108 -1579 
Q 2091 -1600 2075 -1600 
L 2016 -1600 
Q 1984 -1600 1984 -1588 
z
" transform="scale(0.015625)"/>
       <path id="Cmmi10-7a" d="M 494 109 
Q 494 147 500 166 
L 978 2075 
Q 1025 2253 1025 2388 
Q 1025 2663 838 2663 
Q 638 2663 541 2423 
Q 444 2184 353 1819 
Q 353 1800 334 1789 
Q 316 1778 300 1778 
L 225 1778 
Q 203 1778 187 1801 
Q 172 1825 172 1844 
Q 241 2122 305 2315 
Q 369 2509 505 2668 
Q 641 2828 844 2828 
Q 1084 2828 1268 2676 
Q 1453 2525 1453 2291 
Q 1644 2541 1900 2684 
Q 2156 2828 2444 2828 
Q 2672 2828 2837 2750 
Q 3003 2672 3095 2514 
Q 3188 2356 3188 2138 
Q 3188 1875 3070 1503 
Q 2953 1131 2778 672 
Q 2688 463 2688 288 
Q 2688 97 2834 97 
Q 3084 97 3251 365 
Q 3419 634 3488 941 
Q 3500 978 3541 978 
L 3616 978 
Q 3641 978 3658 962 
Q 3675 947 3675 922 
Q 3675 916 3669 903 
Q 3581 541 3364 234 
Q 3147 -72 2822 -72 
Q 2597 -72 2437 83 
Q 2278 238 2278 459 
Q 2278 578 2328 709 
Q 2409 919 2514 1209 
Q 2619 1500 2686 1765 
Q 2753 2031 2753 2234 
Q 2753 2413 2679 2538 
Q 2606 2663 2431 2663 
Q 2197 2663 2000 2559 
Q 1803 2456 1656 2286 
Q 1509 2116 1388 1881 
L 953 141 
Q 931 53 854 -9 
Q 778 -72 684 -72 
Q 606 -72 550 -22 
Q 494 28 494 109 
z
" transform="scale(0.015625)"/>
       <path id="Cmr10-4c" d="M 481 1472 
Q 428 1472 393 1512 
Q 359 1553 359 1600 
Q 359 1647 393 1687 
Q 428 1728 481 1728 
L 2363 1728 
L 2363 3616 
Q 2363 3666 2400 3698 
Q 2438 3731 2491 3731 
Q 2538 3731 2578 3698 
Q 2619 3666 2619 3616 
L 2619 1728 
L 4500 1728 
Q 4547 1728 4581 1687 
Q 4616 1647 4616 1600 
Q 4616 1553 4581 1512 
Q 4547 1472 4500 1472 
L 2619 1472 
L 2619 -416 
Q 2619 -466 2578 -498 
Q 2538 -531 2491 -531 
Q 2438 -531 2400 -498 
Q 2363 -466 2363 -416 
L 2363 1472 
L 481 1472 
z
" transform="scale(0.015625)"/>
       <path id="Cmmi10-26" d="M 1281 -97 
Q 1059 -97 868 -14 
Q 678 69 536 225 
Q 394 381 325 573 
Q 256 766 256 991 
Q 256 1391 445 1767 
Q 634 2144 961 2419 
Q 1288 2694 1672 2791 
Q 1484 3138 1386 3389 
Q 1288 3641 1288 3903 
Q 1288 4097 1378 4245 
Q 1469 4394 1628 4478 
Q 1788 4563 1984 4563 
Q 2175 4563 2741 4434 
Q 2888 4400 2888 4263 
Q 2888 4156 2809 4068 
Q 2731 3981 2625 3981 
Q 2547 3981 2484 4017 
Q 2422 4053 2287 4143 
Q 2153 4234 2047 4282 
Q 1941 4331 1825 4331 
Q 1694 4331 1589 4251 
Q 1484 4172 1484 4044 
Q 1484 3841 1664 3577 
Q 1844 3313 2175 2900 
Q 2553 2419 2553 1838 
Q 2553 1550 2470 1215 
Q 2388 881 2230 584 
Q 2072 288 1826 95 
Q 1581 -97 1281 -97 
z
M 1294 78 
Q 1544 78 1723 337 
Q 1903 597 1995 955 
Q 2088 1313 2088 1556 
Q 2088 2034 1753 2631 
Q 1416 2538 1172 2238 
Q 928 1938 803 1547 
Q 678 1156 678 806 
Q 678 500 837 289 
Q 997 78 1294 78 
z
" transform="scale(0.015625)"/>
       <path id="Cmr10-44" d="M 416 -1600 
Q 359 -1600 359 -1544 
Q 359 -1516 372 -1503 
Q 1466 -434 1466 1600 
Q 1466 3634 384 4691 
Q 359 4706 359 4744 
Q 359 4766 376 4783 
Q 394 4800 416 4800 
L 475 4800 
Q 494 4800 506 4788 
Q 966 4425 1272 3906 
Q 1578 3388 1720 2800 
Q 1863 2213 1863 1600 
Q 1863 1147 1786 708 
Q 1709 269 1542 -157 
Q 1375 -584 1119 -945 
Q 863 -1306 506 -1588 
Q 494 -1600 475 -1600 
L 416 -1600 
z
" transform="scale(0.015625)"/>
      </defs>
      <use xlink:href="#Cmmi10-37"/>
      <use xlink:href="#Cmmi10-2c" transform="translate(34.423828 0)"/>
      <use xlink:href="#Cmr10-77" transform="translate(115.442528 0)"/>
      <use xlink:href="#Cmmi10-7a" transform="translate(154.260887 0)"/>
      <use xlink:href="#Cmr10-4c" transform="translate(234.27071 0)"/>
      <use xlink:href="#Cmmi10-26" transform="translate(331.956314 0)"/>
      <use xlink:href="#Cmr10-44" transform="translate(376.34108 0)"/>
      <use xlink:href="#Cmmi10-3e" transform="translate(415.159439 0)"/>
     </g>
    </g>
   </g>
   <g id="line2d_1">
    <defs>
     <path id="mac150c5197" d="M 2.5 0 
L -2.5 -2.5 
L -2.5 2.5 
z
" style="stroke: #52514e; stroke-linejoin: miter"/>
    </defs>
    <g>
     <use xlink:href="#mac150c5197" x="206.295254" y="189.81475" style="fill: #52514e; stroke: #52514e; stroke-linejoin: miter"/>
    </g>
   </g>
   <g id="line2d_2">
    <defs>
     <path id="mb68a15108c" d="M 0 -2.5 
L -2.5 2.5 
L 2.5 2.5 
z
" style="stroke: #52514e; stroke-linejoin: miter"/>
    </defs>
    <g>
     <use xlink:href="#mb68a15108c" x="54.97322" y="29.03875" style="fill: #52514e; stroke: #52514e; stroke-linejoin: miter"/>
    </g>
   </g>
   <g id="line2d_3">
    <path d="M 54.97322 189.81475 
L 55.713227 188.234654 
L 57.193239 185.867593 
L 59.413258 182.781715 
L 62.373283 179.049683 
L 66.443318 174.304226 
L 71.253358 169.047979 
L 77.173409 162.92308 
L 84.203468 155.994176 
L 91.973534 148.653199 
L 100.85361 140.571905 
L 110.843694 131.786538 
L 121.943789 122.327166 
L 134.153892 112.219248 
L 147.474005 101.484714 
L 161.904128 90.142728 
L 177.444259 78.210244 
L 194.464404 65.427407 
L 202.604473 59.407277 
L 202.604473 59.407277 
" clip-path="url(#p570bb23756)" style="fill: none; stroke: #eb6834; stroke-width: 2; stroke-linecap: round"/>
   </g>
   <g id="line2d_4">
    <path d="M 54.97322 189.81475 
L 202.604473 41.731592 
L 202.604473 41.731592 
" clip-path="url(#p570bb23756)" style="fill: none; stroke: #1baf7a; stroke-width: 2; stroke-linecap: round"/>
   </g>
   <g id="line2d_5">
    <path d="M 123.831978 189.81475 
L 123.831978 120.745213 
" clip-path="url(#p570bb23756)" style="fill: none; stroke-dasharray: 2.7,2.7; stroke-dashoffset: 0; stroke: #7a7974; stroke-width: 0.9"/>
   </g>
   <g id="patch_3">
    <path d="M 54.97322 189.81475 
L 54.97322 29.03875 
" style="fill: none; stroke: #52514e; stroke-width: 0.9; stroke-linejoin: miter; stroke-linecap: square"/>
   </g>
   <g id="patch_4">
    <path d="M 54.97322 189.81475 
L 206.295254 189.81475 
" style="fill: none; stroke: #52514e; stroke-width: 0.9; stroke-linejoin: miter; stroke-linecap: square"/>
   </g>
   <g id="text_3">
    <!-- FA $= 0{,}285\,k^{5/6}$ -->
    <g style="fill: #eb6834" transform="translate(149.551972 121.820047) scale(0.095 -0.095)">
     <defs>
      <path id="Inter-Bold-89" d="M 422 0 
L 422 4656 
L 3484 4656 
L 3484 3866 
L 1375 3866 
L 1375 2566 
L 3278 2566 
L 3278 1788 
L 1375 1788 
L 1375 0 
L 422 0 
z
" transform="scale(0.015625)"/>
      <path id="Inter-Bold-2" d="M 153 0 
L 1744 4656 
L 2994 4656 
L 4625 0 
L 3566 0 
L 3206 1081 
L 1553 1081 
L 1206 0 
L 153 0 
z
M 1791 1828 
L 2959 1828 
L 2819 2247 
Q 2706 2603 2593 3018 
Q 2481 3434 2359 3909 
Q 2244 3428 2137 3012 
Q 2031 2597 1925 2247 
L 1791 1828 
z
" transform="scale(0.015625)"/>
      <path id="Inter-Bold-6f1" transform="scale(0.015625)"/>
      <path id="Cmr10-29" d="M 481 850 
Q 428 850 393 890 
Q 359 931 359 978 
Q 359 1031 393 1068 
Q 428 1106 481 1106 
L 4500 1106 
Q 4547 1106 4581 1068 
Q 4616 1031 4616 978 
Q 4616 931 4581 890 
Q 4547 850 4500 850 
L 481 850 
z
M 481 2094 
Q 428 2094 393 2131 
Q 359 2169 359 2222 
Q 359 2269 393 2309 
Q 428 2350 481 2350 
L 4500 2350 
Q 4547 2350 4581 2309 
Q 4616 2269 4616 2222 
Q 4616 2169 4581 2131 
Q 4547 2094 4500 2094 
L 481 2094 
z
" transform="scale(0.015625)"/>
      <path id="Cmr10-28" d="M 1600 -141 
Q 816 -141 533 504 
Q 250 1150 250 2041 
Q 250 2597 351 3087 
Q 453 3578 754 3920 
Q 1056 4263 1600 4263 
Q 2022 4263 2290 4056 
Q 2559 3850 2700 3523 
Q 2841 3197 2892 2823 
Q 2944 2450 2944 2041 
Q 2944 1491 2842 1011 
Q 2741 531 2444 195 
Q 2147 -141 1600 -141 
z
M 1600 25 
Q 1956 25 2131 390 
Q 2306 756 2347 1200 
Q 2388 1644 2388 2144 
Q 2388 2625 2347 3031 
Q 2306 3438 2132 3767 
Q 1959 4097 1600 4097 
Q 1238 4097 1063 3765 
Q 888 3434 847 3029 
Q 806 2625 806 2144 
Q 806 1788 823 1472 
Q 841 1156 916 820 
Q 991 484 1158 254 
Q 1325 25 1600 25 
z
" transform="scale(0.015625)"/>
      <path id="Cmr10-31" d="M 319 0 
L 319 172 
Q 319 188 331 206 
L 1325 1306 
Q 1550 1550 1690 1715 
Q 1831 1881 1968 2097 
Q 2106 2313 2186 2536 
Q 2266 2759 2266 3009 
Q 2266 3272 2169 3511 
Q 2072 3750 1880 3894 
Q 1688 4038 1416 4038 
Q 1138 4038 916 3870 
Q 694 3703 603 3438 
Q 628 3444 672 3444 
Q 816 3444 917 3347 
Q 1019 3250 1019 3097 
Q 1019 2950 917 2848 
Q 816 2747 672 2747 
Q 522 2747 420 2851 
Q 319 2956 319 3097 
Q 319 3338 409 3548 
Q 500 3759 670 3923 
Q 841 4088 1055 4175 
Q 1269 4263 1509 4263 
Q 1875 4263 2190 4108 
Q 2506 3953 2690 3670 
Q 2875 3388 2875 3009 
Q 2875 2731 2753 2481 
Q 2631 2231 2440 2026 
Q 2250 1822 1953 1562 
Q 1656 1303 1563 1216 
L 838 519 
L 1453 519 
Q 1906 519 2211 526 
Q 2516 534 2534 550 
Q 2609 631 2688 1141 
L 2875 1141 
L 2694 0 
L 319 0 
z
" transform="scale(0.015625)"/>
      <path id="Cmr10-4d" d="M 269 972 
Q 269 1356 522 1651 
Q 775 1947 1172 2144 
L 934 2297 
Q 716 2441 578 2680 
Q 441 2919 441 3181 
Q 441 3488 602 3734 
Q 763 3981 1030 4122 
Q 1297 4263 1600 4263 
Q 1884 4263 2148 4147 
Q 2413 4031 2583 3815 
Q 2753 3600 2753 3303 
Q 2753 3088 2651 2903 
Q 2550 2719 2373 2572 
Q 2197 2425 1997 2322 
L 2363 2088 
Q 2616 1922 2770 1653 
Q 2925 1384 2925 1088 
Q 2925 741 2739 456 
Q 2553 172 2247 15 
Q 1941 -141 1600 -141 
Q 1269 -141 961 -6 
Q 653 128 461 383 
Q 269 638 269 972 
z
M 616 972 
Q 616 719 755 509 
Q 894 300 1122 181 
Q 1350 63 1600 63 
Q 1972 63 2275 280 
Q 2578 497 2578 856 
Q 2578 978 2529 1098 
Q 2481 1219 2395 1317 
Q 2309 1416 2203 1478 
L 1344 2034 
Q 1144 1928 976 1765 
Q 809 1603 712 1400 
Q 616 1197 616 972 
z
M 1056 2925 
L 1831 2425 
Q 2100 2581 2272 2803 
Q 2444 3025 2444 3303 
Q 2444 3519 2323 3698 
Q 2203 3878 2009 3978 
Q 1816 4078 1594 4078 
Q 1400 4078 1203 4003 
Q 1006 3928 878 3779 
Q 750 3631 750 3431 
Q 750 3131 1056 2925 
z
" transform="scale(0.015625)"/>
      <path id="Cmr10-78" d="M 556 728 
Q 622 541 758 387 
Q 894 234 1080 148 
Q 1266 63 1466 63 
Q 1928 63 2103 422 
Q 2278 781 2278 1294 
Q 2278 1516 2270 1667 
Q 2263 1819 2228 1959 
Q 2169 2184 2020 2353 
Q 1872 2522 1656 2522 
Q 1441 2522 1286 2456 
Q 1131 2391 1034 2303 
Q 938 2216 863 2119 
Q 788 2022 769 2016 
L 697 2016 
Q 681 2016 657 2036 
Q 634 2056 634 2075 
L 634 4213 
Q 634 4228 654 4245 
Q 675 4263 697 4263 
L 716 4263 
Q 1147 4056 1631 4056 
Q 2106 4056 2547 4263 
L 2566 4263 
Q 2588 4263 2606 4247 
Q 2625 4231 2625 4213 
L 2625 4153 
Q 2625 4122 2613 4122 
Q 2394 3831 2064 3668 
Q 1734 3506 1381 3506 
Q 1125 3506 856 3578 
L 856 2369 
Q 1069 2541 1236 2614 
Q 1403 2688 1663 2688 
Q 2016 2688 2295 2484 
Q 2575 2281 2725 1954 
Q 2875 1628 2875 1288 
Q 2875 903 2686 575 
Q 2497 247 2172 53 
Q 1847 -141 1466 -141 
Q 1150 -141 886 21 
Q 622 184 470 459 
Q 319 734 319 1044 
Q 319 1188 412 1278 
Q 506 1369 647 1369 
Q 788 1369 883 1276 
Q 978 1184 978 1044 
Q 978 906 883 811 
Q 788 716 647 716 
Q 625 716 597 720 
Q 569 725 556 728 
z
" transform="scale(0.015625)"/>
      <path id="Cmmi10-62" d="M 359 -1472 
Q 359 -1453 366 -1447 
L 2591 4722 
Q 2603 4759 2634 4779 
Q 2666 4800 2706 4800 
Q 2763 4800 2798 4765 
Q 2834 4731 2834 4672 
L 2834 4647 
L 609 -1522 
Q 572 -1600 488 -1600 
Q 434 -1600 396 -1562 
Q 359 -1525 359 -1472 
z
" transform="scale(0.015625)"/>
      <path id="Cmr10-45" d="M 1600 -141 
Q 1203 -141 937 70 
Q 672 281 526 617 
Q 381 953 325 1322 
Q 269 1691 269 2069 
Q 269 2575 466 3084 
Q 663 3594 1045 3928 
Q 1428 4263 1953 4263 
Q 2172 4263 2361 4180 
Q 2550 4097 2658 3936 
Q 2766 3775 2766 3547 
Q 2766 3416 2677 3327 
Q 2588 3238 2456 3238 
Q 2331 3238 2240 3328 
Q 2150 3419 2150 3547 
Q 2150 3672 2240 3762 
Q 2331 3853 2456 3853 
L 2491 3853 
Q 2409 3969 2261 4023 
Q 2113 4078 1953 4078 
Q 1759 4078 1595 3993 
Q 1431 3909 1300 3765 
Q 1169 3622 1081 3448 
Q 994 3275 945 3053 
Q 897 2831 884 2637 
Q 872 2444 872 2150 
Q 984 2413 1190 2580 
Q 1397 2747 1656 2747 
Q 1941 2747 2175 2631 
Q 2409 2516 2578 2311 
Q 2747 2106 2836 1843 
Q 2925 1581 2925 1313 
Q 2925 938 2758 598 
Q 2591 259 2287 59 
Q 1984 -141 1600 -141 
z
M 1600 63 
Q 1847 63 1997 175 
Q 2147 288 2217 473 
Q 2288 659 2305 848 
Q 2322 1038 2322 1313 
Q 2322 1675 2287 1931 
Q 2253 2188 2100 2383 
Q 1947 2578 1631 2578 
Q 1372 2578 1205 2403 
Q 1038 2228 961 1961 
Q 884 1694 884 1447 
Q 884 1363 891 1319 
Q 891 1309 889 1303 
Q 888 1297 884 1288 
Q 884 1013 940 731 
Q 997 450 1156 256 
Q 1316 63 1600 63 
z
" transform="scale(0.015625)"/>
     </defs>
     <use xlink:href="#Inter-Bold-89" transform="translate(0 0.210766)"/>
     <use xlink:href="#Inter-Bold-2" transform="translate(58.691406 0.210766)"/>
     <use xlink:href="#Inter-Bold-6f1" transform="translate(133.349609 0.210766)"/>
     <use xlink:href="#Cmr10-29" transform="translate(177.031307 0.210766)"/>
     <use xlink:href="#Cmr10-28" transform="translate(274.716911 0.210766)"/>
     <use xlink:href="#Cmmi10-2c" transform="translate(324.716911 0.210766)"/>
     <use xlink:href="#Cmr10-31" transform="translate(352.402458 0.210766)"/>
     <use xlink:href="#Cmr10-4d" transform="translate(402.402458 0.210766)"/>
     <use xlink:href="#Cmr10-78" transform="translate(452.402458 0.210766)"/>
     <use xlink:href="#Cmmi10-3e" transform="translate(519.069506 0.210766)"/>
     <use xlink:href="#Cmr10-78" transform="translate(587.624297 41.5) scale(0.7)"/>
     <use xlink:href="#Cmmi10-62" transform="translate(622.624297 41.5) scale(0.7)"/>
     <use xlink:href="#Cmr10-45" transform="translate(657.624297 41.5) scale(0.7)"/>
    </g>
   </g>
   <g id="text_4">
    <!-- FD $= 0{,}175\,k$ -->
    <g style="fill: #1baf7a" transform="translate(92.569316 81.567115) scale(0.095 -0.095)">
     <defs>
      <path id="Inter-Bold-54" d="M 2059 0 
L 422 0 
L 422 4656 
L 2075 4656 
Q 2775 4656 3279 4376 
Q 3784 4097 4056 3576 
Q 4328 3056 4328 2331 
Q 4328 1603 4056 1081 
Q 3784 559 3275 279 
Q 2766 0 2059 0 
z
M 1375 822 
L 2013 822 
Q 2684 822 3031 1184 
Q 3378 1547 3378 2331 
Q 3378 3113 3033 3473 
Q 2688 3834 2019 3834 
L 1375 3834 
L 1375 822 
z
" transform="scale(0.015625)"/>
      <path id="Cmr10-64" d="M 594 0 
L 594 225 
Q 1394 225 1394 428 
L 1394 3788 
Q 1063 3628 556 3628 
L 556 3853 
Q 1341 3853 1741 4263 
L 1831 4263 
Q 1853 4263 1873 4245 
Q 1894 4228 1894 4206 
L 1894 428 
Q 1894 225 2694 225 
L 2694 0 
L 594 0 
z
" transform="scale(0.015625)"/>
      <path id="Cmr10-7f" d="M 1113 166 
Q 1113 522 1175 862 
Q 1238 1203 1358 1536 
Q 1478 1869 1648 2189 
Q 1819 2509 2022 2791 
L 2606 3603 
L 1875 3603 
Q 738 3603 703 3572 
Q 619 3469 544 2981 
L 359 2981 
L 569 4325 
L 756 4325 
L 756 4306 
Q 756 4191 1147 4156 
Q 1538 4122 1913 4122 
L 3103 4122 
L 3103 3956 
Q 3103 3950 3101 3947 
Q 3100 3944 3097 3938 
L 2216 2700 
Q 1891 2219 1809 1631 
Q 1728 1044 1728 166 
Q 1728 41 1637 -50 
Q 1547 -141 1422 -141 
Q 1294 -141 1203 -50 
Q 1113 41 1113 166 
z
" transform="scale(0.015625)"/>
     </defs>
     <use xlink:href="#Inter-Bold-89" transform="translate(0 0.25)"/>
     <use xlink:href="#Inter-Bold-54" transform="translate(58.691406 0.25)"/>
     <use xlink:href="#Inter-Bold-6f1" transform="translate(130.908203 0.25)"/>
     <use xlink:href="#Cmr10-29" transform="translate(174.589901 0.25)"/>
     <use xlink:href="#Cmr10-28" transform="translate(272.275505 0.25)"/>
     <use xlink:href="#Cmmi10-2c" transform="translate(322.275505 0.25)"/>
     <use xlink:href="#Cmr10-64" transform="translate(349.961052 0.25)"/>
     <use xlink:href="#Cmr10-7f" transform="translate(399.961052 0.25)"/>
     <use xlink:href="#Cmr10-78" transform="translate(449.961052 0.25)"/>
     <use xlink:href="#Cmmi10-3e" transform="translate(516.6281 0.25)"/>
    </g>
   </g>
   <g id="text_5">
    <!-- $k^*=18{,}66$ -->
    <g style="fill: #1d1d1b" transform="translate(100.889478 211.017875) scale(0.095 -0.095)">
     <defs>
      <path id="Cmsy10-9" d="M 603 813 
Q 531 813 473 873 
Q 416 934 416 1006 
Q 416 1116 506 1159 
L 1428 1600 
L 506 2034 
Q 416 2072 416 2188 
Q 416 2259 473 2320 
Q 531 2381 603 2381 
Q 650 2381 691 2350 
L 1509 1753 
L 1416 2797 
Q 1416 2875 1469 2925 
Q 1522 2975 1600 2975 
Q 1675 2975 1726 2928 
Q 1778 2881 1778 2809 
L 1778 2797 
L 1684 1753 
L 2503 2350 
Q 2544 2381 2591 2381 
Q 2669 2381 2723 2320 
Q 2778 2259 2778 2188 
Q 2778 2072 2688 2034 
L 1766 1600 
L 2688 1159 
Q 2778 1116 2778 1006 
Q 2778 934 2723 873 
Q 2669 813 2591 813 
Q 2544 813 2503 844 
L 1684 1441 
L 1778 403 
L 1778 384 
Q 1778 313 1723 266 
Q 1669 219 1600 219 
Q 1525 219 1470 270 
Q 1416 322 1416 397 
L 1509 1441 
L 691 844 
Q 650 813 603 813 
z
" transform="scale(0.015625)"/>
     </defs>
     <use xlink:href="#Cmmi10-3e" transform="translate(0 0.171703)"/>
     <use xlink:href="#Cmsy10-9" transform="translate(82.554831 41.460938) scale(0.7)"/>
     <use xlink:href="#Cmr10-29" transform="translate(157.275344 0.171703)"/>
     <use xlink:href="#Cmr10-64" transform="translate(254.960948 0.171703)"/>
     <use xlink:href="#Cmr10-4d" transform="translate(304.960948 0.171703)"/>
     <use xlink:href="#Cmmi10-2c" transform="translate(354.960948 0.171703)"/>
     <use xlink:href="#Cmr10-45" transform="translate(382.646495 0.171703)"/>
     <use xlink:href="#Cmr10-45" transform="translate(432.646495 0.171703)"/>
    </g>
   </g>
   <g id="text_6">
    <!-- FUNCIONES (niveles): se cortan en $k^*$ -->
    <g transform="translate(54.97322 13.03875) scale(0.09 -0.09)">
     <defs>
      <path id="Inter-Bold-1a8" d="M 2344 -66 
Q 1763 -66 1331 146 
Q 900 359 661 742 
Q 422 1125 422 1634 
L 422 4656 
L 1375 4656 
L 1375 1713 
Q 1375 1306 1639 1042 
Q 1903 778 2344 778 
Q 2781 778 3045 1042 
Q 3309 1306 3309 1713 
L 3309 4656 
L 4266 4656 
L 4266 1634 
Q 4266 1125 4023 742 
Q 3781 359 3350 146 
Q 2919 -66 2344 -66 
z
" transform="scale(0.015625)"/>
      <path id="Inter-Bold-12c" d="M 422 0 
L 422 4656 
L 1484 4656 
L 2956 2300 
Q 3094 2072 3241 1798 
Q 3388 1525 3541 1159 
Q 3516 1503 3498 1848 
Q 3481 2194 3481 2422 
L 3481 4656 
L 4456 4656 
L 4456 0 
L 3391 0 
L 2053 2138 
Q 1925 2347 1815 2544 
Q 1706 2741 1592 2964 
Q 1478 3188 1334 3478 
Q 1359 3056 1378 2701 
Q 1397 2347 1397 2141 
L 1397 0 
L 422 0 
z
" transform="scale(0.015625)"/>
      <path id="Inter-Bold-49" d="M 2456 -63 
Q 1834 -63 1346 218 
Q 859 500 576 1034 
Q 294 1569 294 2325 
Q 294 3084 578 3620 
Q 863 4156 1353 4437 
Q 1844 4719 2456 4719 
Q 2984 4719 3412 4523 
Q 3841 4328 4116 3958 
Q 4391 3588 4459 3066 
L 3494 3066 
Q 3428 3444 3151 3658 
Q 2875 3872 2475 3872 
Q 1931 3872 1597 3469 
Q 1263 3066 1263 2325 
Q 1263 1569 1598 1176 
Q 1934 784 2472 784 
Q 2869 784 3148 998 
Q 3428 1213 3497 1594 
L 4463 1594 
Q 4409 1159 4156 782 
Q 3903 406 3473 171 
Q 3044 -63 2456 -63 
z
" transform="scale(0.015625)"/>
      <path id="Inter-Bold-c5" d="M 1375 4656 
L 1375 0 
L 422 0 
L 422 4656 
L 1375 4656 
z
" transform="scale(0.015625)"/>
      <path id="Inter-Bold-141" d="M 2466 -63 
Q 1850 -63 1358 218 
Q 866 500 580 1034 
Q 294 1569 294 2325 
Q 294 3084 580 3620 
Q 866 4156 1358 4437 
Q 1850 4719 2466 4719 
Q 3084 4719 3575 4437 
Q 4066 4156 4352 3620 
Q 4638 3084 4638 2325 
Q 4638 1566 4352 1033 
Q 4066 500 3575 218 
Q 3084 -63 2466 -63 
z
M 2466 784 
Q 3009 784 3339 1179 
Q 3669 1575 3669 2325 
Q 3669 3078 3339 3475 
Q 3009 3872 2466 3872 
Q 1925 3872 1594 3473 
Q 1263 3075 1263 2325 
Q 1263 1578 1594 1181 
Q 1925 784 2466 784 
z
" transform="scale(0.015625)"/>
      <path id="Inter-Bold-5f" d="M 422 0 
L 422 4656 
L 3538 4656 
L 3538 3866 
L 1375 3866 
L 1375 2741 
L 3375 2741 
L 3375 1963 
L 1375 1963 
L 1375 791 
L 3544 791 
L 3544 0 
L 422 0 
z
" transform="scale(0.015625)"/>
      <path id="Inter-Bold-18d" d="M 2128 -69 
Q 1288 -69 786 317 
Q 284 703 266 1444 
L 1194 1444 
Q 1219 1091 1476 914 
Q 1734 738 2119 738 
Q 2500 738 2733 902 
Q 2966 1066 2966 1331 
Q 2966 1572 2755 1700 
Q 2544 1828 2163 1922 
L 1650 2050 
Q 1059 2194 725 2501 
Q 391 2809 391 3316 
Q 391 3738 617 4053 
Q 844 4369 1239 4544 
Q 1634 4719 2141 4719 
Q 2656 4719 3040 4542 
Q 3425 4366 3640 4052 
Q 3856 3738 3863 3328 
L 2941 3328 
Q 2916 3609 2702 3762 
Q 2488 3916 2131 3916 
Q 1766 3916 1567 3764 
Q 1369 3613 1369 3378 
Q 1369 3119 1592 2991 
Q 1816 2863 2113 2791 
L 2534 2688 
Q 2925 2597 3240 2426 
Q 3556 2256 3740 1986 
Q 3925 1716 3925 1325 
Q 3925 691 3451 311 
Q 2978 -69 2128 -69 
z
" transform="scale(0.015625)"/>
      <path id="Inter-Bold-59d" d="M 528 1897 
Q 528 2413 631 2973 
Q 734 3534 917 4048 
Q 1100 4563 1334 4941 
L 2206 4941 
Q 1978 4456 1817 3931 
Q 1656 3406 1570 2886 
Q 1484 2366 1484 1897 
Q 1484 1488 1557 1073 
Q 1631 659 1790 185 
Q 1950 -288 2206 -872 
L 1334 -872 
Q 938 -216 733 489 
Q 528 1194 528 1897 
z
" transform="scale(0.015625)"/>
      <path id="Inter-Bold-305" d="M 1338 2022 
L 1338 0 
L 400 0 
L 400 3494 
L 1284 3494 
L 1297 2772 
Q 1444 3138 1712 3338 
Q 1981 3538 2384 3538 
Q 2928 3538 3256 3188 
Q 3584 2838 3584 2222 
L 3584 0 
L 2647 0 
L 2647 2059 
Q 2647 2384 2480 2568 
Q 2313 2753 2016 2753 
Q 1716 2753 1527 2561 
Q 1338 2369 1338 2022 
z
" transform="scale(0.015625)"/>
      <path id="Inter-Bold-2b1" d="M 400 0 
L 400 3494 
L 1338 3494 
L 1338 0 
L 400 0 
z
M 869 3950 
Q 656 3950 506 4090 
Q 356 4231 356 4431 
Q 356 4631 506 4772 
Q 656 4913 869 4913 
Q 1081 4913 1232 4772 
Q 1384 4631 1384 4431 
Q 1384 4231 1232 4090 
Q 1081 3950 869 3950 
z
" transform="scale(0.015625)"/>
      <path id="Inter-Bold-3d4" d="M 1384 0 
L 97 3494 
L 1094 3494 
L 1681 1681 
Q 1753 1447 1814 1209 
Q 1875 972 1931 728 
Q 1984 972 2042 1208 
Q 2100 1444 2175 1681 
L 2756 3494 
L 3741 3494 
L 2450 0 
L 1384 0 
z
" transform="scale(0.015625)"/>
      <path id="Inter-Bold-266" d="M 1978 -69 
Q 1444 -69 1056 150 
Q 669 369 461 772 
Q 253 1175 253 1728 
Q 253 2269 461 2675 
Q 669 3081 1045 3309 
Q 1422 3538 1931 3538 
Q 2388 3538 2759 3344 
Q 3131 3150 3351 2756 
Q 3572 2363 3572 1766 
L 3572 1503 
L 1181 1503 
Q 1197 1075 1419 856 
Q 1641 638 1994 638 
Q 2241 638 2417 742 
Q 2594 847 2669 1050 
L 3519 891 
Q 3391 456 2989 193 
Q 2588 -69 1978 -69 
z
M 1188 2091 
L 2669 2091 
Q 2634 2431 2450 2631 
Q 2266 2831 1941 2831 
Q 1603 2831 1409 2623 
Q 1216 2416 1188 2091 
z
" transform="scale(0.015625)"/>
      <path id="Inter-Bold-2e0" d="M 1338 4656 
L 1338 0 
L 400 0 
L 400 4656 
L 1338 4656 
z
" transform="scale(0.015625)"/>
      <path id="Inter-Bold-367" d="M 1788 -69 
Q 1156 -69 745 200 
Q 334 469 244 956 
L 1116 1106 
Q 1250 619 1816 619 
Q 2084 619 2239 720 
Q 2394 822 2394 978 
Q 2394 1244 1944 1338 
L 1341 1463 
Q 334 1669 334 2453 
Q 334 2956 737 3247 
Q 1141 3538 1803 3538 
Q 2425 3538 2794 3284 
Q 3163 3031 3259 2606 
L 2428 2459 
Q 2372 2638 2222 2752 
Q 2072 2866 1816 2866 
Q 1584 2866 1428 2767 
Q 1272 2669 1272 2513 
Q 1272 2381 1373 2289 
Q 1475 2197 1722 2147 
L 2350 2022 
Q 3350 1819 3350 1078 
Q 3350 734 3150 476 
Q 2950 219 2597 75 
Q 2244 -69 1788 -69 
z
" transform="scale(0.015625)"/>
      <path id="Inter-Bold-59e" d="M 209 -872 
Q 469 -278 626 195 
Q 784 669 856 1081 
Q 928 1494 928 1897 
Q 928 2366 842 2886 
Q 756 3406 595 3931 
Q 434 4456 209 4941 
L 1078 4941 
Q 1316 4563 1497 4048 
Q 1678 3534 1781 2973 
Q 1884 2413 1884 1897 
Q 1884 1191 1678 486 
Q 1472 -219 1078 -872 
L 209 -872 
z
" transform="scale(0.015625)"/>
      <path id="Inter-Bold-5e1" d="M 1069 -59 
Q 841 -59 684 95 
Q 528 250 528 478 
Q 528 706 684 861 
Q 841 1016 1069 1016 
Q 1297 1016 1453 861 
Q 1609 706 1609 478 
Q 1609 250 1453 95 
Q 1297 -59 1069 -59 
z
M 1069 2260 
Q 841 2260 684 2414 
Q 528 2569 528 2797 
Q 528 3025 684 3180 
Q 841 3335 1069 3335 
Q 1297 3335 1453 3180 
Q 1609 3025 1609 2797 
Q 1609 2569 1453 2414 
Q 1297 2260 1069 2260 
z
" transform="scale(0.015625)"/>
      <path id="Inter-Bold-24a" d="M 1963 -69 
Q 1434 -69 1051 157 
Q 669 384 461 789 
Q 253 1194 253 1731 
Q 253 2272 461 2678 
Q 669 3084 1051 3311 
Q 1434 3538 1963 3538 
Q 2584 3538 3000 3227 
Q 3416 2916 3516 2375 
L 2644 2213 
Q 2584 2484 2414 2642 
Q 2244 2800 1972 2800 
Q 1597 2800 1403 2504 
Q 1209 2209 1209 1734 
Q 1209 1266 1403 967 
Q 1597 669 1972 669 
Q 2244 669 2419 833 
Q 2594 997 2650 1278 
L 3522 1119 
Q 3422 566 3006 248 
Q 2591 -69 1963 -69 
z
" transform="scale(0.015625)"/>
      <path id="Inter-Bold-316" d="M 1963 -69 
Q 1438 -69 1053 157 
Q 669 384 461 789 
Q 253 1194 253 1731 
Q 253 2272 461 2678 
Q 669 3084 1053 3311 
Q 1438 3538 1963 3538 
Q 2488 3538 2872 3311 
Q 3256 3084 3464 2678 
Q 3672 2272 3672 1731 
Q 3672 1194 3464 789 
Q 3256 384 2872 157 
Q 2488 -69 1963 -69 
z
M 1963 669 
Q 2338 669 2528 972 
Q 2719 1275 2719 1734 
Q 2719 2197 2528 2498 
Q 2338 2800 1963 2800 
Q 1588 2800 1398 2498 
Q 1209 2197 1209 1734 
Q 1209 1275 1398 972 
Q 1588 669 1963 669 
z
" transform="scale(0.015625)"/>
      <path id="Inter-Bold-354" d="M 400 0 
L 400 3494 
L 1306 3494 
L 1306 2884 
L 1344 2884 
Q 1441 3206 1667 3373 
Q 1894 3541 2188 3541 
Q 2347 3541 2491 3509 
L 2491 2672 
Q 2428 2691 2308 2705 
Q 2188 2719 2084 2719 
Q 1759 2719 1548 2516 
Q 1338 2313 1338 1988 
L 1338 0 
L 400 0 
z
" transform="scale(0.015625)"/>
      <path id="Inter-Bold-379" d="M 2134 3494 
L 2134 2778 
L 1481 2778 
L 1481 1022 
Q 1481 697 1800 697 
Q 1853 697 1948 711 
Q 2044 725 2097 738 
L 2231 34 
Q 2075 -13 1920 -31 
Q 1766 -50 1625 -50 
Q 1100 -50 822 204 
Q 544 459 544 941 
L 544 2778 
L 63 2778 
L 63 3494 
L 544 3494 
L 544 4325 
L 1481 4325 
L 1481 3494 
L 2134 3494 
z
" transform="scale(0.015625)"/>
      <path id="Inter-Bold-1fb" d="M 1375 -69 
Q 875 -69 544 195 
Q 213 459 213 978 
Q 213 1369 400 1591 
Q 588 1813 888 1916 
Q 1188 2019 1531 2050 
Q 1981 2094 2179 2142 
Q 2378 2191 2378 2363 
L 2378 2378 
Q 2378 2600 2236 2722 
Q 2094 2844 1831 2844 
Q 1559 2844 1393 2726 
Q 1228 2609 1172 2441 
L 313 2584 
Q 447 3038 848 3288 
Q 1250 3538 1834 3538 
Q 2209 3538 2548 3419 
Q 2888 3300 3102 3039 
Q 3316 2778 3316 2353 
L 3316 0 
L 2428 0 
L 2428 484 
L 2397 484 
Q 2269 241 2016 86 
Q 1763 -69 1375 -69 
z
M 1641 591 
Q 1969 591 2176 781 
Q 2384 972 2384 1250 
L 2384 1628 
Q 2328 1588 2201 1558 
Q 2075 1528 1934 1504 
Q 1794 1481 1691 1469 
Q 1431 1431 1272 1322 
Q 1113 1213 1113 1003 
Q 1113 800 1261 695 
Q 1409 591 1641 591 
z
" transform="scale(0.015625)"/>
     </defs>
     <use xlink:href="#Inter-Bold-89" transform="translate(0 0.796875)"/>
     <use xlink:href="#Inter-Bold-1a8" transform="translate(58.691406 0.796875)"/>
     <use xlink:href="#Inter-Bold-12c" transform="translate(131.884766 0.796875)"/>
     <use xlink:href="#Inter-Bold-49" transform="translate(208.105469 0.796875)"/>
     <use xlink:href="#Inter-Bold-c5" transform="translate(282.080078 0.796875)"/>
     <use xlink:href="#Inter-Bold-141" transform="translate(310.15625 0.796875)"/>
     <use xlink:href="#Inter-Bold-12c" transform="translate(387.207031 0.796875)"/>
     <use xlink:href="#Inter-Bold-5f" transform="translate(463.427734 0.796875)"/>
     <use xlink:href="#Inter-Bold-18d" transform="translate(524.169922 0.796875)"/>
     <use xlink:href="#Inter-Bold-6f1" transform="translate(589.648438 0.796875)"/>
     <use xlink:href="#Inter-Bold-59d" transform="translate(613.330078 0.796875)"/>
     <use xlink:href="#Inter-Bold-305" transform="translate(651.025391 0.796875)"/>
     <use xlink:href="#Inter-Bold-2b1" transform="translate(713.28125 0.796875)"/>
     <use xlink:href="#Inter-Bold-3d4" transform="translate(740.380859 0.796875)"/>
     <use xlink:href="#Inter-Bold-266" transform="translate(800.341797 0.796875)"/>
     <use xlink:href="#Inter-Bold-2e0" transform="translate(859.912109 0.796875)"/>
     <use xlink:href="#Inter-Bold-266" transform="translate(887.011719 0.796875)"/>
     <use xlink:href="#Inter-Bold-367" transform="translate(946.582031 0.796875)"/>
     <use xlink:href="#Inter-Bold-59e" transform="translate(1002.587891 0.796875)"/>
     <use xlink:href="#Inter-Bold-5e1" transform="translate(1040.283203 0.796875)"/>
     <use xlink:href="#Inter-Bold-6f1" transform="translate(1073.681641 0.796875)"/>
     <use xlink:href="#Inter-Bold-367" transform="translate(1097.363281 0.796875)"/>
     <use xlink:href="#Inter-Bold-266" transform="translate(1153.369141 0.796875)"/>
     <use xlink:href="#Inter-Bold-6f1" transform="translate(1212.939453 0.796875)"/>
     <use xlink:href="#Inter-Bold-24a" transform="translate(1236.621094 0.796875)"/>
     <use xlink:href="#Inter-Bold-316" transform="translate(1295.458984 0.796875)"/>
     <use xlink:href="#Inter-Bold-354" transform="translate(1356.787109 0.796875)"/>
     <use xlink:href="#Inter-Bold-379" transform="translate(1397.509766 0.796875)"/>
     <use xlink:href="#Inter-Bold-1fb" transform="translate(1434.130859 0.796875)"/>
     <use xlink:href="#Inter-Bold-305" transform="translate(1492.1875 0.796875)"/>
     <use xlink:href="#Inter-Bold-6f1" transform="translate(1554.443359 0.796875)"/>
     <use xlink:href="#Inter-Bold-266" transform="translate(1578.125 0.796875)"/>
     <use xlink:href="#Inter-Bold-305" transform="translate(1637.695312 0.796875)"/>
     <use xlink:href="#Inter-Bold-6f1" transform="translate(1699.951172 0.796875)"/>
     <use xlink:href="#Cmmi10-3e" transform="translate(1723.632812 0.796875)"/>
     <use xlink:href="#Cmsy10-9" transform="translate(1806.187644 42.086109) scale(0.7)"/>
    </g>
   </g>
   <g id="line2d_6">
    <defs>
     <path id="m4bf3811fc7" d="M 0 3.25 
C 0.86191 3.25 1.688635 2.907559 2.298097 2.298097 
C 2.907559 1.688635 3.25 0.86191 3.25 0 
C 3.25 -0.86191 2.907559 -1.688635 2.298097 -2.298097 
C 1.688635 -2.907559 0.86191 -3.25 0 -3.25 
C -0.86191 -3.25 -1.688635 -2.907559 -2.298097 -2.298097 
C -2.907559 -1.688635 -3.25 -0.86191 -3.25 0 
C -3.25 0.86191 -2.907559 1.688635 -2.298097 2.298097 
C -1.688635 2.907559 -0.86191 3.25 0 3.25 
z
" style="stroke: #ffffff; stroke-width: 1.6"/>
    </defs>
    <g clip-path="url(#p570bb23756)">
     <use xlink:href="#m4bf3811fc7" x="123.831978" y="120.745213" style="fill: #1d1d1b; stroke: #ffffff; stroke-width: 1.6"/>
    </g>
   </g>
  </g>
  <g id="axes_2">
   <g id="patch_5">
    <path d="M 260.771186 189.81475 
L 412.09322 189.81475 
L 412.09322 29.03875 
L 260.771186 29.03875 
z
" style="fill: #ffffff"/>
   </g>
   <g id="matplotlib.axis_3">
    <g id="text_7">
     <!-- $k$ -->
     <g style="fill: #1d1d1b" transform="translate(406.52822 203.986625) scale(0.105 -0.105)">
      <use xlink:href="#Cmmi10-3e" transform="translate(0 0.609375)"/>
     </g>
    </g>
   </g>
   <g id="matplotlib.axis_4">
    <g id="text_8">
     <!-- $\gamma_k$ -->
     <g style="fill: #1d1d1b" transform="translate(249.387966 23.290515) scale(0.105 -0.105)">
      <defs>
       <path id="Cmmi10-18" d="M 1888 -1253 
Q 1888 -1109 1952 -834 
Q 2016 -559 2108 -248 
Q 2200 63 2266 263 
Q 2291 581 2291 744 
Q 2291 1156 2209 1511 
Q 2128 1866 1903 2105 
Q 1678 2344 1275 2344 
Q 1063 2344 852 2253 
Q 641 2163 489 2000 
Q 338 1838 281 1631 
Q 269 1594 231 1594 
L 153 1594 
Q 103 1594 103 1650 
L 103 1672 
Q 175 1959 358 2226 
Q 541 2494 805 2661 
Q 1069 2828 1363 2828 
Q 1663 2828 1881 2625 
Q 2100 2422 2231 2109 
Q 2363 1797 2420 1478 
Q 2478 1159 2478 878 
Q 2800 1753 3200 2534 
L 3297 2741 
Q 3316 2759 3341 2759 
L 3419 2759 
Q 3469 2759 3469 2700 
Q 3469 2688 3456 2663 
L 3359 2463 
Q 3081 1909 2848 1340 
Q 2616 772 2450 244 
Q 2425 28 2354 -347 
Q 2284 -722 2184 -1045 
Q 2084 -1369 1984 -1381 
Q 1888 -1381 1888 -1253 
z
" transform="scale(0.015625)"/>
      </defs>
      <use xlink:href="#Cmmi10-18" transform="translate(0 0.8125)"/>
      <use xlink:href="#Cmmi10-3e" transform="translate(51.708984 -14.187462) scale(0.7)"/>
     </g>
    </g>
   </g>
   <g id="line2d_7">
    <g>
     <use xlink:href="#mac150c5197" x="412.09322" y="189.81475" style="fill: #52514e; stroke: #52514e; stroke-linejoin: miter"/>
    </g>
   </g>
   <g id="line2d_8">
    <g>
     <use xlink:href="#mb68a15108c" x="260.771186" y="29.03875" style="fill: #52514e; stroke: #52514e; stroke-linejoin: miter"/>
    </g>
   </g>
   <g id="line2d_9">
    <path d="M 260.984576 -1 
L 261.091342 24.840676 
L 261.584021 55.795384 
L 262.0767 69.786946 
L 262.569379 78.635109 
L 263.308398 87.636874 
L 264.047417 93.994298 
L 265.032776 100.257234 
L 266.018134 105.020691 
L 267.003493 108.838966 
L 268.235191 112.724387 
L 269.466889 115.924882 
L 270.944927 119.130501 
L 272.422965 121.833757 
L 274.147342 124.522153 
L 276.118059 127.138558 
L 278.088776 129.389458 
L 280.305833 131.589268 
L 282.769229 133.715171 
L 285.478965 135.754233 
L 288.43504 137.70037 
L 291.637456 139.552066 
L 295.33255 141.428391 
L 299.520324 143.29065 
L 304.200777 145.112374 
L 309.373909 146.876603 
L 315.03972 148.573392 
L 321.44455 150.258669 
L 328.5884 151.909243 
L 336.717607 153.556886 
L 345.832174 155.175547 
L 356.178438 156.783986 
L 368.00274 158.389852 
L 381.30508 159.966144 
L 396.331797 161.519178 
L 408.402439 162.627813 
L 408.402439 162.627813 
" clip-path="url(#p8149fb76fb)" style="fill: none; stroke: #eb6834; stroke-width: 2; stroke-linecap: round"/>
   </g>
   <g id="line2d_10">
    <path d="M 260.771186 152.132875 
L 412.09322 152.132875 
" clip-path="url(#p8149fb76fb)" style="fill: none; stroke: #1baf7a; stroke-width: 2; stroke-linecap: round"/>
   </g>
   <g id="line2d_11">
    <path d="M 329.629944 189.81475 
L 329.629944 152.132875 
" clip-path="url(#p8149fb76fb)" style="fill: none; stroke-dasharray: 2.7,2.7; stroke-dashoffset: 0; stroke: #7a7974; stroke-width: 0.9"/>
   </g>
   <g id="patch_6">
    <path d="M 260.771186 189.81475 
L 260.771186 29.03875 
" style="fill: none; stroke: #52514e; stroke-width: 0.9; stroke-linejoin: miter; stroke-linecap: square"/>
   </g>
   <g id="patch_7">
    <path d="M 260.771186 189.81475 
L 412.09322 189.81475 
" style="fill: none; stroke: #52514e; stroke-width: 0.9; stroke-linejoin: miter; stroke-linecap: square"/>
   </g>
   <g id="text_9">
    <!-- CA $= 0{,}285/k^{1/6}$ -->
    <g style="fill: #eb6834" transform="translate(277.84353 116.238472) scale(0.095 -0.095)">
     <use xlink:href="#Inter-Bold-49" transform="translate(0 0.210766)"/>
     <use xlink:href="#Inter-Bold-2" transform="translate(73.974609 0.210766)"/>
     <use xlink:href="#Inter-Bold-6f1" transform="translate(148.632812 0.210766)"/>
     <use xlink:href="#Cmr10-29" transform="translate(192.31451 0.210766)"/>
     <use xlink:href="#Cmr10-28" transform="translate(290.000114 0.210766)"/>
     <use xlink:href="#Cmmi10-2c" transform="translate(340.000114 0.210766)"/>
     <use xlink:href="#Cmr10-31" transform="translate(367.685661 0.210766)"/>
     <use xlink:href="#Cmr10-4d" transform="translate(417.685661 0.210766)"/>
     <use xlink:href="#Cmr10-78" transform="translate(467.685661 0.210766)"/>
     <use xlink:href="#Cmmi10-62" transform="translate(517.685661 0.210766)"/>
     <use xlink:href="#Cmmi10-3e" transform="translate(567.685661 0.210766)"/>
     <use xlink:href="#Cmr10-64" transform="translate(636.240453 41.5) scale(0.7)"/>
     <use xlink:href="#Cmmi10-62" transform="translate(671.240453 41.5) scale(0.7)"/>
     <use xlink:href="#Cmr10-45" transform="translate(706.240453 41.5) scale(0.7)"/>
    </g>
   </g>
   <g id="text_10">
    <!-- CD $= 0{,}175$ -->
    <g style="fill: #1baf7a" transform="translate(412.402439 155.588686) scale(0.095 -0.095)">
     <use xlink:href="#Inter-Bold-49" transform="translate(0 0.265625)"/>
     <use xlink:href="#Inter-Bold-54" transform="translate(73.974609 0.265625)"/>
     <use xlink:href="#Inter-Bold-6f1" transform="translate(146.191406 0.265625)"/>
     <use xlink:href="#Cmr10-29" transform="translate(189.873104 0.265625)"/>
     <use xlink:href="#Cmr10-28" transform="translate(287.558708 0.265625)"/>
     <use xlink:href="#Cmmi10-2c" transform="translate(337.558708 0.265625)"/>
     <use xlink:href="#Cmr10-64" transform="translate(365.244255 0.265625)"/>
     <use xlink:href="#Cmr10-7f" transform="translate(415.244255 0.265625)"/>
     <use xlink:href="#Cmr10-78" transform="translate(465.244255 0.265625)"/>
    </g>
   </g>
   <g id="text_11">
    <!-- $k^*=18{,}66$ -->
    <g style="fill: #1d1d1b" transform="translate(306.687444 211.017875) scale(0.095 -0.095)">
     <use xlink:href="#Cmmi10-3e" transform="translate(0 0.171703)"/>
     <use xlink:href="#Cmsy10-9" transform="translate(82.554831 41.460938) scale(0.7)"/>
     <use xlink:href="#Cmr10-29" transform="translate(157.275344 0.171703)"/>
     <use xlink:href="#Cmr10-64" transform="translate(254.960948 0.171703)"/>
     <use xlink:href="#Cmr10-4d" transform="translate(304.960948 0.171703)"/>
     <use xlink:href="#Cmmi10-2c" transform="translate(354.960948 0.171703)"/>
     <use xlink:href="#Cmr10-45" transform="translate(382.646495 0.171703)"/>
     <use xlink:href="#Cmr10-45" transform="translate(432.646495 0.171703)"/>
    </g>
   </g>
   <g id="text_12">
    <!-- CURVAS (tasas): se cortan en el mismo $k^*$ -->
    <g transform="translate(260.771186 13.03875) scale(0.09 -0.09)">
     <defs>
      <path id="Inter-Bold-180" d="M 422 0 
L 422 4656 
L 2238 4656 
Q 3031 4656 3467 4242 
Q 3903 3828 3903 3141 
Q 3903 2663 3690 2323 
Q 3478 1984 3078 1816 
L 4069 0 
L 3013 0 
L 2125 1663 
L 1375 1663 
L 1375 0 
L 422 0 
z
M 1375 2434 
L 2063 2434 
Q 2919 2434 2919 3141 
Q 2919 3494 2708 3681 
Q 2497 3869 2059 3869 
L 1375 3869 
L 1375 2434 
z
" transform="scale(0.015625)"/>
      <path id="Inter-Bold-1c8" d="M 1784 0 
L 153 4656 
L 1213 4656 
L 1956 2409 
Q 2069 2059 2181 1650 
Q 2294 1241 2413 769 
Q 2531 1244 2639 1650 
Q 2747 2056 2853 2409 
L 3572 4656 
L 4625 4656 
L 3031 0 
L 1784 0 
z
" transform="scale(0.015625)"/>
      <path id="Inter-Bold-2fe" d="M 400 0 
L 400 3494 
L 1269 3494 
L 1306 2816 
Q 1447 3197 1719 3372 
Q 1991 3547 2303 3547 
Q 2966 3547 3203 2763 
Q 3350 3166 3658 3356 
Q 3966 3547 4325 3547 
Q 4806 3547 5123 3236 
Q 5441 2925 5441 2356 
L 5441 0 
L 4503 0 
L 4503 2178 
Q 4503 2472 4342 2617 
Q 4181 2763 3947 2763 
Q 3681 2763 3526 2594 
Q 3372 2425 3372 2150 
L 3372 0 
L 2466 0 
L 2466 2203 
Q 2466 2459 2314 2611 
Q 2163 2763 1922 2763 
Q 1675 2763 1506 2595 
Q 1338 2428 1338 2113 
L 1338 0 
L 400 0 
z
" transform="scale(0.015625)"/>
     </defs>
     <use xlink:href="#Inter-Bold-49" transform="translate(0 0.796875)"/>
     <use xlink:href="#Inter-Bold-1a8" transform="translate(73.974609 0.796875)"/>
     <use xlink:href="#Inter-Bold-180" transform="translate(147.167969 0.796875)"/>
     <use xlink:href="#Inter-Bold-1c8" transform="translate(212.841797 0.796875)"/>
     <use xlink:href="#Inter-Bold-2" transform="translate(287.5 0.796875)"/>
     <use xlink:href="#Inter-Bold-18d" transform="translate(362.158203 0.796875)"/>
     <use xlink:href="#Inter-Bold-6f1" transform="translate(427.636719 0.796875)"/>
     <use xlink:href="#Inter-Bold-59d" transform="translate(451.318359 0.796875)"/>
     <use xlink:href="#Inter-Bold-379" transform="translate(489.013672 0.796875)"/>
     <use xlink:href="#Inter-Bold-1fb" transform="translate(525.634766 0.796875)"/>
     <use xlink:href="#Inter-Bold-367" transform="translate(583.691406 0.796875)"/>
     <use xlink:href="#Inter-Bold-1fb" transform="translate(639.697266 0.796875)"/>
     <use xlink:href="#Inter-Bold-367" transform="translate(697.753906 0.796875)"/>
     <use xlink:href="#Inter-Bold-59e" transform="translate(753.759766 0.796875)"/>
     <use xlink:href="#Inter-Bold-5e1" transform="translate(791.455078 0.796875)"/>
     <use xlink:href="#Inter-Bold-6f1" transform="translate(824.853516 0.796875)"/>
     <use xlink:href="#Inter-Bold-367" transform="translate(848.535156 0.796875)"/>
     <use xlink:href="#Inter-Bold-266" transform="translate(904.541016 0.796875)"/>
     <use xlink:href="#Inter-Bold-6f1" transform="translate(964.111328 0.796875)"/>
     <use xlink:href="#Inter-Bold-24a" transform="translate(987.792969 0.796875)"/>
     <use xlink:href="#Inter-Bold-316" transform="translate(1046.630859 0.796875)"/>
     <use xlink:href="#Inter-Bold-354" transform="translate(1107.958984 0.796875)"/>
     <use xlink:href="#Inter-Bold-379" transform="translate(1148.681641 0.796875)"/>
     <use xlink:href="#Inter-Bold-1fb" transform="translate(1185.302734 0.796875)"/>
     <use xlink:href="#Inter-Bold-305" transform="translate(1243.359375 0.796875)"/>
     <use xlink:href="#Inter-Bold-6f1" transform="translate(1305.615234 0.796875)"/>
     <use xlink:href="#Inter-Bold-266" transform="translate(1329.296875 0.796875)"/>
     <use xlink:href="#Inter-Bold-305" transform="translate(1388.867188 0.796875)"/>
     <use xlink:href="#Inter-Bold-6f1" transform="translate(1451.123047 0.796875)"/>
     <use xlink:href="#Inter-Bold-266" transform="translate(1474.804688 0.796875)"/>
     <use xlink:href="#Inter-Bold-2e0" transform="translate(1534.375 0.796875)"/>
     <use xlink:href="#Inter-Bold-6f1" transform="translate(1561.474609 0.796875)"/>
     <use xlink:href="#Inter-Bold-2fe" transform="translate(1585.15625 0.796875)"/>
     <use xlink:href="#Inter-Bold-2b1" transform="translate(1676.416016 0.796875)"/>
     <use xlink:href="#Inter-Bold-367" transform="translate(1703.515625 0.796875)"/>
     <use xlink:href="#Inter-Bold-2fe" transform="translate(1759.521484 0.796875)"/>
     <use xlink:href="#Inter-Bold-316" transform="translate(1850.78125 0.796875)"/>
     <use xlink:href="#Inter-Bold-6f1" transform="translate(1912.109375 0.796875)"/>
     <use xlink:href="#Cmmi10-3e" transform="translate(1935.791016 0.796875)"/>
     <use xlink:href="#Cmsy10-9" transform="translate(2018.345847 42.086109) scale(0.7)"/>
    </g>
   </g>
   <g id="line2d_12">
    <g clip-path="url(#p8149fb76fb)">
     <use xlink:href="#m4bf3811fc7" x="329.629944" y="152.132875" style="fill: #1d1d1b; stroke: #ffffff; stroke-width: 1.6"/>
    </g>
   </g>
  </g>
 </g>
 <defs>
  <clipPath id="p570bb23756">
   <rect x="54.97322" y="29.03875" width="151.322034" height="160.776"/>
  </clipPath>
  <clipPath id="p8149fb76fb">
   <rect x="260.771186" y="29.03875" width="151.322034" height="160.776"/>
  </clipPath>
 </defs>
</svg>
